<?xml version="1.0" encoding="UTF-8"?>
<svg width="1440px" height="640px" viewBox="0 0 1440 640" version="1.1" xmlns="http://www.w3.org/2000/svg" xmlns:xlink="http://www.w3.org/1999/xlink">
    <!-- Generator: Sketch 52.2 (67145) - http://www.bohemiancoding.com/sketch -->
    <title>Group</title>
    <desc>Created with Sketch.</desc>
    <g id="Page-1" stroke="none" stroke-width="1" fill="none" fill-rule="evenodd">
        <g id="Group" fill="#000000">
            <path d="M0,0 L105.189797,0 C122.591886,0 137.31673,2.01046315 149.36433,6.03138944 C161.41193,10.0950916 171.257281,15.442068 178.814019,22.1150946 C186.413939,28.7453454 191.85479,36.4877673 195.222936,45.2140329 C198.591083,53.9830743 200.275156,63.0943222 200.275156,72.5050008 C200.275156,81.4451454 198.677445,89.2731189 195.438843,96.074473 C192.200241,102.875827 188.443463,108.736113 184.082145,113.56978 C179.720827,118.446222 175.100422,122.25327 170.177747,125.033697 C165.298253,127.814125 161.282386,129.610709 158.216509,130.466226 C162.966459,131.877827 168.580036,133.931066 175.014059,136.711494 C181.750351,139.491922 188.098012,143.5984 193.970677,149.030928 C199.843342,154.42068 204.85238,161.26481 208.911428,169.43499 C212.970476,177.647946 215,187.272503 215,198.394214 C215,212.852439 212.409118,225.086321 207.227355,235.095861 C202.045591,245.105401 194.747941,253.275581 185.334404,259.691953 C175.964049,266.065549 164.434625,270.728112 150.832496,273.636867 C137.230368,276.545622 122.030528,278 105.189797,278 L0,278 L0,0 Z M99.317132,111.302662 C104.067082,111.302662 108.77385,110.746576 113.394256,109.634405 C118.014662,108.522234 122.07371,106.768426 125.614581,104.415756 C129.112272,102.063087 131.962241,98.8549008 134.207672,94.8339745 C136.453103,90.8130482 137.575818,85.851054 137.575818,80.0335436 C137.575818,73.9166026 136.453103,68.826281 134.207672,64.8053547 C131.962241,60.7844284 129.025909,57.5762425 125.398674,55.2235729 C121.728259,52.8709032 117.582848,51.2026466 112.962442,50.2188029 C108.342037,49.2349592 103.764812,48.7644253 99.317132,48.7644253 L61.83571,48.7644253 L61.83571,111.302662 L99.317132,111.302662 Z M103.07391,229.663333 C107.564772,229.663333 112.616991,229.321126 118.230568,228.636713 C123.844145,227.9523 129.025909,226.32682 133.81904,223.845822 C138.56899,221.32205 142.584856,217.728881 145.780277,212.980766 C149.018879,208.275427 150.61659,201.730728 150.61659,193.389445 C150.61659,185.903677 149.105242,179.786736 145.996184,175.081397 C142.930307,170.333282 139.000803,166.654562 134.207672,164.002462 C129.457722,161.393137 124.275959,159.553778 118.662382,158.61271 C113.048805,157.628866 107.867042,157.158332 103.07391,157.158332 L61.83571,157.158332 L61.83571,229.663333 L103.07391,229.663333 Z" id="Fill-416"></path>
            <polygon id="Fill-418" points="241 278 302 278 302 0 241 0"></polygon>
            <path d="M766.569145,250.619828 C758.42599,259.48177 747.740792,267.108152 734.470466,273.45637 C721.157054,279.804588 705.430855,283 687.205698,283 C671.264072,283 656.787352,280.443671 643.775539,275.331012 C630.763725,270.218353 619.647672,263.018025 610.384295,253.730029 C601.164003,244.484637 593.925643,233.449816 588.755386,220.710774 C583.585129,208.014338 581,194.039738 581,178.786973 C581,164.428923 583.6713,150.922982 588.970813,138.311757 C594.313412,125.743138 601.637943,114.708316 611.030577,105.335109 C620.380125,95.9192954 631.582349,88.5059402 644.594163,83.095043 C657.605976,77.7267513 671.824183,75 687.205698,75 C705.129256,75 720.683113,77.8971733 733.824183,83.7341254 C746.965254,89.5284719 758.038221,97.282671 767,106.996723 L730.463516,146.023351 C725.982627,141.038509 720.510771,136.607538 714.091035,132.730438 C707.628214,128.853339 699.09729,126.893486 688.498263,126.893486 C681.216817,126.893486 674.71091,128.342073 668.937457,131.281852 C663.207088,134.179025 658.338429,137.970914 654.245309,142.700123 C650.195274,147.386727 647.136206,152.840229 645.025017,159.060631 C642.913829,165.323638 641.879778,171.884883 641.879778,178.786973 C641.879778,185.177796 642.913829,191.483408 645.025017,197.70381 C647.136206,203.924211 650.195274,209.462925 654.245309,214.277345 C658.338429,219.134371 663.207088,223.096682 668.937457,226.121671 C674.71091,229.189267 681.216817,230.680459 688.498263,230.680459 C698.838777,230.680459 707.498958,228.678001 714.52189,224.673085 C721.501737,220.668169 727.102849,216.322409 731.325226,211.5932 L766.569145,250.619828 Z" id="Fill-419"></path>
            <polygon id="Fill-421" points="785 0 845.576481 0 845.576481 144.197261 905.764374 82.5145407 974.328488 82.5145407 903.648731 154.634559 984 278 913.752007 278 863.235626 195.485459 845.576481 213.408524 845.576481 278 785 278"></polygon>
            <g id="Group-426" transform="translate(109.000000, 331.000000)">
                <path d="M0.677785878,0.563662064 L105.148164,0.563662064 C121.400072,0.563662064 135.706938,2.86768823 148.068762,7.4330734 C160.430585,11.9984586 170.760921,18.2278626 179.059767,26.1212856 C187.315391,34.0147086 193.496303,43.2308132 197.55928,53.7695996 C201.622257,64.3083859 203.696969,75.5298467 203.696969,87.4339818 C203.696969,105.482187 199.677215,121.183698 191.68093,134.666518 C183.684646,148.106671 172.360178,158.816126 157.793973,166.880217 L220.12177,277.857477 L150.186697,277.857477 L97.9731192,176.010988 L62.5733511,176.010988 L62.5733511,277.857477 L0.677785878,277.857477 L0.677785878,0.563662064 Z M101.776757,125.706416 C113.533457,125.706416 122.826436,122.250377 129.569249,115.295632 C136.312062,108.383553 139.683469,99.6367871 139.683469,89.0980007 C139.683469,77.7485385 136.312062,68.7457696 129.569249,62.089694 C122.826436,55.4336185 113.533457,52.1055807 101.776757,52.1055807 L62.5733511,52.1055807 L62.5733511,125.706416 L101.776757,125.706416 Z" id="Fill-422"></path>
                <path d="M661.711184,252.095052 C653.58523,260.969819 642.822663,268.607239 629.50993,274.964645 C616.153974,281.32205 600.37752,284.522086 582.094123,284.522086 C566.101554,284.522086 551.578572,281.962057 538.525178,276.841999 C525.471784,271.721941 514.320208,264.511193 505.027229,255.209754 C495.777473,245.950982 488.559205,234.90019 483.329203,222.142711 C478.142423,209.4279 475.549034,195.433075 475.549034,180.158235 C475.549034,165.779405 478.22887,152.253918 483.545319,139.624441 C488.90499,127.037632 496.252928,115.986839 505.675576,106.600066 C515.055002,97.1706257 526.293024,89.7465414 539.346418,84.3278132 C552.399812,78.9517522 566.663455,76.2210545 582.094123,76.2210545 C600.074958,76.2210545 615.678519,79.1650879 628.861583,84.9678205 C642.044646,90.7705531 653.152999,98.5359746 662.143416,108.264085 L625.490176,147.347195 C620.994968,142.355139 615.505626,137.917755 609.065375,134.035044 C602.581901,130.152334 594.023716,128.189645 583.390818,128.189645 C576.086104,128.189645 569.559407,129.640328 563.767504,132.584361 C558.018823,135.485727 553.134606,139.283104 549.028406,143.976491 C544.965429,148.712544 541.896585,154.17394 539.77865,160.403344 C537.660715,166.675415 536.623359,173.246156 536.623359,180.158235 C536.623359,186.558307 537.660715,192.873046 539.77865,199.10245 C541.896585,205.331854 544.965429,210.878584 549.028406,215.699972 C553.134606,220.564027 558.018823,224.532072 563.767504,227.56144 C569.559407,230.633475 576.086104,232.126825 583.390818,232.126825 C593.764377,232.126825 602.452232,230.121469 609.497607,226.110757 C616.499759,222.100044 622.11877,217.747995 626.311416,213.011941 L661.711184,252.095052 Z" id="Fill-424"></path>
            </g>
            <polygon id="Fill-427" points="786 331 846.576481 331 846.576481 475.197261 906.764374 413.514541 975.328488 413.514541 904.648731 485.634559 985 609 914.752007 609 864.235626 526.485459 846.576481 544.408524 846.576481 609 786 609"></polygon>
            <g id="Group-438" transform="translate(329.000000, 45.000000)">
                <path d="M840.993176,542.820342 C838.746004,544.224817 835.375246,546.480487 830.880902,549.672474 C826.386558,552.86446 820.552554,555.971327 813.422105,558.993074 C806.24844,562.057382 797.77833,564.73865 787.925345,567.07944 C778.115575,569.420231 766.879715,570.611906 754.26098,570.611906 C737.407191,570.611906 722.23878,568.058316 708.755748,562.951138 C695.315931,557.843959 683.863996,550.693909 674.44316,541.586108 C665.065539,532.435746 657.891874,521.455312 652.965382,508.602247 C648.082104,495.749181 645.618858,481.57676 645.618858,466.084985 C645.618858,452.550962 647.909245,439.485097 652.576448,426.92995 C657.200437,414.332243 663.855523,403.35181 672.541707,393.946089 C681.271106,384.540369 691.945173,377.00728 704.563908,371.346824 C717.182643,365.686368 731.529972,362.83486 747.519465,362.83486 C763.508958,362.83486 777.553782,365.601248 789.610724,371.134025 C801.710881,376.666802 811.86637,384.32757 820.163621,394.158888 C828.417656,403.947647 834.683809,415.694158 838.875649,429.39842 C843.110704,443.102682 845.185016,458.083739 845.185016,474.384151 L845.185016,484.343149 L704.563908,484.343149 C704.823197,494.855424 709.533615,504.048346 718.651947,511.921913 C727.77028,519.795479 740.3458,523.753543 756.335293,523.753543 C772.065497,523.753543 784.857091,521.455312 794.666861,516.901412 C804.476631,512.347511 811.650296,508.389447 816.14464,505.069781 L840.993176,542.820342 Z M787.925345,446.209549 C787.925345,442.038687 787.104263,437.825264 785.418884,433.526723 C783.733505,429.27074 781.183829,425.312677 777.813072,421.737652 C774.442314,418.120067 770.250473,415.14088 765.194337,412.80009 C760.1382,410.4593 754.088121,409.267625 747.087316,409.267625 C740.086511,409.267625 733.906788,410.4593 728.548147,412.80009 C723.232721,415.14088 718.824807,418.120067 715.281189,421.737652 C711.780787,425.312677 709.101467,429.27074 707.286443,433.526723 C705.471419,437.825264 704.563908,442.038687 704.563908,446.209549 L787.925345,446.209549 Z" id="Fill-428"></path>
                <path d="M883.41719,416.332555 L852.259287,416.332555 L852.259287,369.474192 L883.41719,369.474192 L883.41719,310.5714 L944.047619,310.5714 L944.047619,369.474192 L994.997923,369.474192 L994.997923,416.332555 L944.047619,416.332555 L944.047619,493.067912 C944.047619,502.473632 945.949073,509.708802 949.751979,514.81598 C953.511671,519.923159 959.475319,522.519308 967.642925,522.519308 C973.822648,522.519308 979.138074,521.455312 983.632418,519.369881 C988.126762,517.32701 992.318602,514.9011 996.251153,512.134712 L1020.71076,548.608478 C1001.60979,563.546975 980.823453,571.037504 958.351733,571.037504 C944.306908,571.037504 932.55247,568.994632 923.001989,564.994009 C913.451508,560.993386 905.716051,555.460609 899.838832,548.438239 C893.961613,541.373309 889.726558,532.861344 887.220097,522.902346 C884.670421,512.943348 883.41719,501.920355 883.41719,489.748246 L883.41719,416.332555 Z" id="Fill-430"></path>
                <path d="M232.886829,185.377431 L232.886829,74.0834995 C232.886829,72.2534272 232.62754,70.5935942 232.238606,69.0614406 C231.20145,64.9756978 228.565344,61.1878738 223.768496,58.4640452 C206.957921,48.8880855 190.147346,39.3546857 173.336771,29.778726 C162.100911,23.3947528 150.821837,16.9682199 139.542762,10.5842468 C132.974105,6.83898253 124.54721,0.327329942 116.638893,0.327329942 C108.730577,0.327329942 100.303682,6.83898253 93.7350251,10.5842468 C82.4559503,16.9682199 71.1768755,23.3947528 59.9410156,29.778726 C43.1304405,39.3546857 26.3198655,48.8880855 9.50929042,58.4640452 C4.66922768,61.1878738 2.03312208,65.0182576 1.03918062,69.0614406 C0.650247009,70.636154 0.390957934,72.2534272 0.390957934,74.0834995 L0.390957934,131.454138 L0.390957934,169.843096 C0.390957934,177.376185 -1.12156167,187.760781 2.897419,194.527793 C6.87318482,201.209684 16.5965252,205.040068 23.1219669,208.785333 C25.7580725,210.232366 28.3509632,211.72196 30.943854,213.211554 C23.7701896,217.254737 16.63974,221.34048 9.50929042,225.383663 C4.71244253,228.107491 2.03312208,231.937875 1.03918062,236.023618 C0.650247009,237.555771 0.390957934,239.215604 0.390957934,241.045677 L0.390957934,298.373755 L0.390957934,336.805274 C0.390957934,344.295802 -1.12156167,354.722958 2.897419,361.44741 C6.87318482,368.129302 16.5965252,372.002245 23.1219669,375.70495 C26.2334358,377.449903 29.3449047,379.237415 32.4131588,380.982368 C24.8073459,385.323469 17.1583181,389.707131 9.50929042,394.048233 C4.71244253,396.772061 2.03312208,400.602445 1.03918062,404.645628 C0.650247009,406.177782 0.390957934,407.837615 0.390957934,409.667687 L0.390957934,467.038325 L0.390957934,505.427284 C0.390957934,512.960372 -1.12156167,523.344968 2.897419,530.11198 C6.87318482,536.793872 16.5965252,540.624256 23.1219669,544.36952 C34.4010417,550.753493 45.6801165,557.180026 56.9159764,563.563999 C73.7265515,573.139959 90.5371265,582.673359 107.347702,592.249318 C113.095276,595.483865 120.182511,595.483865 125.930085,592.249318 C158.557294,573.693237 191.141288,555.137155 223.768496,536.581073 C229.386426,533.389086 232.886829,527.303032 232.886829,520.961618 L232.886829,409.667687 C232.886829,407.837615 232.62754,406.177782 232.238606,404.645628 C231.20145,400.559885 228.565344,396.772061 223.768496,394.048233 C216.119469,389.707131 208.470441,385.323469 200.821413,380.982368 C208.470441,376.641266 216.119469,372.300164 223.768496,367.959063 C229.386426,364.767076 232.886829,358.681022 232.886829,352.297048 L232.886829,241.045677 C232.886829,239.215604 232.62754,237.513212 232.238606,235.981058 C231.20145,231.937875 228.565344,228.107491 223.768496,225.383663 C216.638047,221.34048 209.507597,217.254737 202.333933,213.211554 C209.507597,209.125811 216.638047,205.082628 223.768496,200.996885 C229.386426,197.847459 232.886829,191.718844 232.886829,185.377431 Z M116.638893,39.3546857 C136.733797,50.8032775 156.871915,62.2093095 176.966818,73.6579013 C176.707529,73.7855807 176.44824,73.95582 176.188951,74.0834995 C156.353337,85.361852 136.474508,96.6827644 116.638893,107.961117 C96.7600643,96.6827644 76.9244501,85.361852 57.0456209,74.0834995 C56.8295467,73.95582 56.5702576,73.7855807 56.3109685,73.6579013 C76.4058719,62.2093095 96.5439901,50.8032775 116.638893,39.3546857 Z M196.110995,174.907715 C175.756803,186.483986 155.40261,198.060258 135.005203,209.636529 L135.005203,139.327705 C155.40261,127.751434 175.756803,116.175162 196.110995,104.598891 L196.110995,174.907715 Z M37.1667918,104.598891 C57.5209842,116.175162 77.8751767,127.751434 98.2293691,139.327705 L98.2293691,209.636529 C77.8751767,198.060258 57.5209842,186.483986 37.1667918,174.907715 L37.1667918,104.598891 Z M196.110995,341.869892 C175.756803,353.446164 155.40261,365.022435 135.005203,376.598706 L135.005203,306.289882 C155.40261,294.713611 175.756803,283.09478 196.110995,271.518508 L196.110995,341.869892 Z M98.2293691,376.598706 C77.8751767,365.022435 57.5209842,353.446164 37.1667918,341.869892 L37.1667918,271.518508 C57.5209842,283.09478 77.8751767,294.713611 98.2293691,306.289882 L98.2293691,376.598706 Z M98.2293691,545.220716 C77.8751767,533.644445 57.5209842,522.068174 37.1667918,510.491903 L37.1667918,440.183079 C57.5209842,451.75935 77.8751767,463.335621 98.2293691,474.911892 L98.2293691,545.220716 Z M135.005203,545.220716 L135.005203,474.911892 C155.40261,463.335621 175.756803,451.75935 196.110995,440.183079 L196.110995,510.491903 C175.756803,522.068174 155.40261,533.644445 135.005203,545.220716 Z M176.966818,409.242089 C176.707529,409.369768 176.44824,409.540007 176.188951,409.667687 C156.353337,420.946039 136.474508,432.266952 116.638893,443.545304 C96.7600643,432.266952 76.9244501,420.946039 57.0456209,409.667687 C56.8295467,409.540007 56.5702576,409.369768 56.3109685,409.242089 C60.5892383,406.816179 64.9107229,404.347709 69.2322075,401.9218 C73.7697663,404.475389 78.3073251,407.071538 82.8880988,409.667687 C91.0557047,414.306707 99.1800957,418.945728 107.347702,423.584748 C113.095276,426.861855 120.182511,426.861855 125.930085,423.584748 C134.097691,418.945728 142.222082,414.306707 150.389688,409.667687 C154.970462,407.071538 159.508021,404.475389 164.045579,401.9218 C168.367064,404.347709 172.645334,406.816179 176.966818,409.242089 Z M176.966818,240.620079 C176.707529,240.747758 176.44824,240.875437 176.232166,241.045677 C156.353337,252.324029 136.474508,263.602382 116.638893,274.923294 C96.7600643,263.602382 76.9244501,252.324029 57.0456209,241.045677 C56.8295467,240.875437 56.5702576,240.747758 56.3109685,240.620079 C60.113875,238.449528 63.9167814,236.278977 67.7196879,234.108426 C71.7818834,236.406656 75.8440789,238.704887 79.8630596,241.045677 C89.0246069,246.237975 98.1861542,251.430273 107.347702,256.665131 C113.095276,259.899677 120.182511,259.899677 125.930085,256.665131 C135.091633,251.430273 144.25318,246.237975 153.414727,241.045677 C157.433708,238.704887 161.495904,236.406656 165.558099,234.108426 C169.361005,236.278977 173.163912,238.449528 176.966818,240.620079 Z" id="Fill-432"></path>
                <path d="M1110.13956,540.18589 C1110.13956,523.161961 1096.13795,509.330019 1078.85201,509.330019 C1061.52286,509.330019 1047.52125,523.161961 1047.52125,540.18589 C1047.52125,557.209818 1061.52286,570.9992 1078.85201,570.9992 C1096.13795,570.9992 1110.13956,557.209818 1110.13956,540.18589" id="Fill-434"></path>
            </g>
        </g>
    </g>
</svg>