<?xml version="1.0" standalone="no"?>
<!DOCTYPE svg PUBLIC "-//W3C//DTD SVG 20010904//EN"
 "http://www.w3.org/TR/2001/REC-SVG-20010904/DTD/svg10.dtd">
<svg version="1.0" xmlns="http://www.w3.org/2000/svg"
 width="1191.000000pt" height="1191.000000pt" viewBox="0 0 1191.000000 1191.000000"
 preserveAspectRatio="xMidYMid meet">
<metadata>
Created by potrace 1.11, written by Peter Selinger 2001-2013
</metadata>
<g transform="translate(0.000000,1191.000000) scale(0.100000,-0.100000)"
fill="#000000" stroke="none">
<path d="M5924 11585 c-207 -46 -388 -185 -482 -372 -95 -186 -98 -454 -7
-634 27 -52 27 -53 16 -158 -7 -58 -14 -128 -16 -156 -4 -49 -9 -95 -20 -185
-3 -25 -8 -65 -10 -90 -7 -74 -16 -163 -20 -190 -7 -52 -18 -156 -19 -183 -1
-21 -7 -29 -26 -34 -314 -70 -682 -206 -1044 -384 l-129 -64 -73 -110 c-346
-527 -556 -1135 -619 -1790 -18 -197 -14 -705 9 -890 54 -439 131 -762 277
-1157 l51 -138 280 0 280 0 -7 238 c-3 130 -7 265 -8 300 l-1 62 -193 0 -193
0 -1 33 c-1 17 -2 59 -4 92 -4 73 18 225 44 308 30 98 52 148 169 387 61 124
123 261 138 305 60 181 44 351 -49 509 l-29 49 176 176 176 176 0 -1016 c0
-616 -4 -1047 -10 -1095 -5 -43 -21 -178 -35 -299 -41 -352 -44 -377 -50 -425
-2 -19 -7 -57 -10 -85 -3 -27 -8 -68 -10 -90 -5 -42 -72 -619 -81 -695 -2 -25
-7 -61 -9 -80 -3 -19 -7 -55 -10 -80 -2 -25 -13 -121 -24 -215 -11 -93 -23
-192 -26 -220 -8 -76 -33 -287 -60 -515 -49 -411 -200 -1702 -220 -1885 -8
-77 -18 -153 -21 -169 -6 -27 -7 -28 -16 -10 -14 26 -69 83 -91 96 -17 9 -18
5 -12 -59 3 -37 8 -81 10 -98 2 -16 6 -68 10 -115 l6 -85 -113 -49 c-62 -27
-144 -63 -183 -81 -38 -17 -141 -63 -229 -101 l-158 -69 483 -3 c265 -1 484 0
486 2 9 8 20 151 28 351 5 148 82 369 204 590 41 75 119 199 334 533 104 163
215 382 256 507 50 149 64 258 58 430 -6 158 -27 266 -80 407 l-26 67 58 93
c32 51 106 172 165 268 l108 175 183 -1 183 -1 16 36 c54 123 235 513 240 518
3 3 14 -14 25 -38 10 -24 34 -78 53 -119 19 -41 66 -142 103 -225 37 -82 72
-155 76 -161 6 -7 68 -11 186 -10 123 1 180 -2 187 -10 6 -7 26 -36 44 -66 17
-29 88 -144 157 -256 l124 -203 -25 -67 c-49 -130 -75 -259 -81 -403 -9 -227
31 -406 147 -644 68 -139 98 -191 270 -455 225 -347 316 -514 377 -694 45
-135 61 -226 68 -396 5 -139 12 -220 19 -227 1 -2 220 -2 485 -1 l482 3 -68
29 c-37 16 -104 46 -148 66 -44 20 -167 74 -273 120 l-193 85 6 84 c4 47 8 92
10 101 2 9 6 54 10 99 6 78 6 82 -12 73 -20 -12 -62 -55 -86 -91 l-16 -23 -5
33 c-3 19 -17 135 -31 259 -14 124 -43 376 -65 560 -21 184 -66 569 -100 855
-73 632 -72 620 -95 805 -2 19 -7 58 -10 85 -3 28 -10 86 -15 130 -5 44 -12
107 -15 140 -4 33 -8 71 -10 85 -4 32 -8 67 -50 430 -20 168 -37 321 -40 340
-2 19 -18 154 -35 300 -16 146 -35 303 -41 350 -11 87 -14 117 -24 205 -2 28
-12 106 -20 175 -12 103 -15 297 -15 1135 l0 1010 176 -176 175 -175 -40 -75
c-57 -107 -74 -182 -68 -304 6 -133 30 -202 171 -488 129 -264 167 -358 191
-472 18 -83 26 -230 18 -302 l-5 -43 -192 -2 -191 -3 -1 -55 c-1 -30 -5 -164
-9 -297 l-7 -243 280 0 280 0 50 133 c48 127 91 260 146 452 51 178 113 513
131 710 4 39 9 81 12 95 2 14 7 152 10 307 7 354 -9 566 -66 873 -94 504 -295
1001 -573 1420 l-63 94 -125 63 c-69 34 -190 90 -270 123 -80 34 -154 66 -165
71 -86 39 -420 147 -540 174 -44 10 -83 21 -88 25 -4 3 -9 24 -11 46 -2 21 -7
71 -11 109 -4 39 -10 98 -14 133 -4 34 -5 64 -3 67 3 3 77 5 164 5 l160 0 -7
68 c-4 37 -8 78 -10 92 -2 14 -6 49 -9 78 -3 28 -9 74 -12 102 -3 27 -7 67 -9
87 -8 86 -17 148 -21 155 -6 10 28 24 76 31 75 12 105 18 116 22 10 3 0 113
-20 233 -3 17 -8 47 -11 65 -10 57 -24 141 -30 172 -3 17 -10 53 -15 80 -18
103 -80 369 -87 376 -8 7 -274 54 -373 65 -30 3 -66 8 -80 10 -69 13 -349 12
-406 -1z"/>
</g>
</svg>
