<svg width="170" height="369" xmlns="http://www.w3.org/2000/svg">
    <g id="Artboard" fill="none" fill-rule="evenodd">
        <path d="M46.234 76.275c-10.362 4.91-13.508 5.382-20.208 12.172-6.7 6.79-7.442 10.38-11.103 19.56-3.66 9.18-4.782 19.11-4.782 19.11s-2.225 10.616-2.627 18.826c-.402 8.211.89 16.625.89 16.625l2.622 28.027s1.73 13.85 7.184 20.841c5.454 6.99 11.5 4.974 13.976 3.49 2.475-1.484 6.253-6.66 2.876-10.48-1.16-1.31-2.955-2.15-4.896-3.229A822.316 822.316 0 0 0 25 198.38s-1.141-5.644-1.141-9.916c0-4.27-.977 1.366 3.364-9.244 4.34-10.61 8.968-14.981 8.968-20.897 0-5.915-5.187-12.379-5.187-12.379l10.795-18.027.693 63.492-11.488 80.911h25.497v-.595L65 257.55h10.45l12.28-18.736 11.738 19.317 11.146-.581 6.455 14.433h25.033l-11.392-79.882.436-64.58 12.234 18.421s-2.765 2.434-4.099 5.41c-1.333 2.976-.9 6.97-.9 6.97s3.043 8.286 5 12.089c1.956 3.803 5.431 11.316 5.431 11.316s3.415 13.909.962 14.627c-1.153.338-2.66 2.691-4.74 3.798-2.344 1.25-5.237 3.274-5.753 5.575-.972 4.34 3.768 6.499 5.754 7.284 1.986.785 8.194.556 13.367-4.083 3.45-3.093 5.235-8.365 5.358-15.815l4.264-30.034s.867-12.283 0-22.249c-.866-9.966-3.511-18.122-3.511-18.122s-7.96-26.588-14.086-34.262c-2.537-3.178-10.476-6.835-18.315-10.473-11.094-5.147-22.496-9.876-22.496-9.876s-3.5-6.438-2.55-11.607c.257-1.396 7.763.896 8.14-.908.255-1.224 2.525-16.711 2.744-17.933.348-1.94 3.261 1.137 3.382-.935.192-3.303-1.466-16.356-1.932-19.096-.621-3.65 1.118-6.652-1.45-8.547-14.931-11.02-28.676-7.38-28.676-7.38s-5.13.497-8.948 2.225c-3.818 1.728-7.358 5.155-7.358 5.155s-4.132 2.385-4.625 8.547c-.18 2.235-1.219 9.563-.546 11.747 1.182 3.837 2.882 8.284 2.882 8.284l-3.953 30.81c-.001 0-10.131 2.906-20.492 7.815z" id="skin" fill="#E0AC69"/>
        <path id="shorts" fill="#005B9E" d="M42.041 191.966l-9.826 64.857 44.332 1.54 11.26-19.02 11.598 19.02 43.306-1.54-11.089-64.857z"/>
        <g id="socks" transform="translate(19 271)" fill="#FFF">
            <path d="M11.137 6.178l1.02-5.251H37.54s6.072 8.387 1.777 23.901c-2.08 7.516-5.087 9.963-7.673 13.765-2.586 3.803-4.704 5.584-8.51 12.916-7.377 14.209-12.935 32.356-12.935 32.356H.781L11.137 6.178z" id="sockLeft"/>
            <path d="M136.073 82.938l-8.451-58.344-2.778-15.178-.844-4.33-.94-4.143H98.415s-.878.376-2.104 4.755c-1.226 4.378-.823 10.777 1.226 18.203 2.076 7.521 5.087 9.963 7.673 13.766 2.586 3.802 4.703 5.583 8.51 12.915 7.377 14.209 12.935 32.356 12.935 32.356h9.418z" id="sockRight"/>
        </g>
        <g id="boots" transform="translate(0 353)" fill="#484848">
            <path d="M20.377.746s-.084 1.856-5.608 5.546c-3.58 2.393-10.555 2.28-13.523 4.378-1.613 1.14-.645 4.846-.645 4.846l27.37-.836L29.224 1.81 20.377.746z" id="bootLeft"/>
            <path d="M154.848 0s.185 1.29 5.71 4.98c1.015.679 3.476 1.615 6.54 2.405 2.717.7 6.023 1.256 7.526 1.861 3.993 1.608 0 5.524 0 5.524h-26.355L145.527 0h9.321z" id="bootRight"/>
        </g>
        <path id="eye" fill="#3A3A3A" d="M104.813 22.7l3.06 4.22h1.225l.174-2.3 5.413.19v-2.102z"/>
        <path d="M107.002 56.083s-17.16-3.738-20.125-6.968-4.02-11.864-4.02-11.864l-4.978-3.056-7.084 3.33s-.435 3.014-.75 6.09c-.316 3.076-1.134 8.494-1.134 8.494l33.314 23.665s3.456-1.365 4.777-2.476c1.322-1.11 3.447-4.433 3.447-4.433s-.522-.095-1.11-1.146c-.59-1.052-1.138-2.828-1.748-4.901-1.268-4.306-.589-6.735-.589-6.735z" id="neckShadow" fill-opacity=".05" fill="#000"/>
        <path d="M36.437 159.548c.608-2.782-.711-6.867-.711-6.867l-4.269-6.738s2.538-3.615 4.98-7.359c2.443-3.743 5.227-8.28 5.227-8.28l.21 13.594.063 48.488h89.62V129.61s4.205 5.27 6.61 8.974c2.406 3.705 5.144 7.36 5.144 7.36s-2.922 1.698-4.504 4.45c-1.583 2.753-2.067 2.76-1.656 6.878.412 4.118 3.083 7.416 3.083 7.416s4.308 8.187 6.41 13.666c2.103 5.48 3.881 17.582 3.881 17.582h12.454s.968-1.512 1.569-3.936c.922-3.723 1.68-9.238 2.229-11.934.906-4.453 2.557-15.378 2.557-15.378s.88-10.833-1.126-26.104c-2.004-15.27-6.752-28.267-6.752-28.267s-4.695-13.159-9.233-19.83c-4.538-6.672-11.278-9.461-11.278-9.461L109.29 67.774s-.074 3.73-5.549 6.506c-1.889.958-4.976 2.254-6.893 2.941-1.917.687-8.021 1.62-8.021 1.62s-7.83-.903-13.435-3.074c-5.605-2.172-9.708-6.968-9.708-6.968s-7.001 2.227-14.234 4.965c-7.232 2.738-11.662 4.774-15.013 6.478-7.518 3.825-9.105 6.319-12.59 10.244-3.484 3.926-7.28 11.18-7.28 11.18s-4.708 9.178-7.841 26.322c-1.434 7.845-2.545 23.586-1.485 37.989.842 11.43 2.687 22.215 3.852 28.005.575 2.859 1.399 4.397 1.399 4.397H25.37s.563-12.956 2.234-18.314c1.672-5.357 6.752-15.377 6.752-15.377a16.077 16.077 0 0 0 2.081-5.14z" id="jersey" fill="#FFCD00"/>
        <path d="M70.61 37.478l7.384-3.087s-1.977-4.375-1.746-8.242c.23-3.867 2.531-4.903 2.531-4.903s3.277-1.357 5.918.948c2.641 2.305 3.816 7.547 3.816 7.547h3.234l.61-9.685 4.852-.948.356-1.77.516-5.65 21.16 1.324s.697-1.837-.716-3.838c-1.208-1.71-4.298-3.497-6.924-4.824C105.9 1.472 95.508.737 95.508.737s-3.729-.603-8.734.478-9.28 3.135-9.28 3.135-4.127 2.275-6.633 5.344c-2.506 3.07-3.453 5.173-3.833 7.35-.38 2.176-.028 2.795 0 5.15.022 1.898.368 4.47.517 5.678.334 2.706 1.569 6.085 1.569 6.085l1.496 3.52v.001z" id="hair" fill="#7e4d1c" opacity="100"/>
        <g id="verticalStripes" transform="translate(51 69)" fill="#FFCD00">
            <path id="vStripe3" d="M0 123.255V4.78l10.01-3.513 1.137 122.053z"/>
            <path d="M21 123.31V5.193s2.673 1.223 4.889 1.979 5.13 1.438 5.13 1.438l1.15 114.7H21z" id="vStripe4"/>
            <path d="M42.038 123.365V5.065s3.308 1.352 5.586 2.367a27.882 27.882 0 0 0 4.558 1.534l.991 114.399H42.038z" id="vStripe5" transform="matrix(-1 0 0 1 95.211 0)"/>
            <path id="vStripe6" transform="matrix(-1 0 0 1 135.211 0)" d="M62.04 123.367V4.99L72.154.647l1.017 122.72z"/>
        </g>
        <path d="M116.083 70.486s-10.346 12.426-26.052 12.802c-15.707.376-34.12-11.36-34.12-11.36l9.537-3.317s16.857 7.394 24.583 7.222c7.726-.171 19.338-8.199 19.338-8.199l6.714 2.852z" id="collar" fill="#FFF"/>
        <g id="sockTrim" transform="translate(25 294)" fill="#005B9E" fill-rule="nonzero">
            <path d="M2.716.764h30.787c.094.412-.201 1.515-.885 3.307a48.217 48.217 0 0 1-2.394 5.286l-7.04 9.546H.312L2.716.763zM121.713 2l2.53 18.14h-20.837l-7.198-8.222c-.912-1.731-2.622-4.818-3.306-6.61-.684-1.793-.979-2.896-.885-3.308h29.696z" id="Path"/>
        </g>
        <g id="shirtTrim" transform="translate(11 192)" fill="#005B9E" fill-rule="nonzero">
            <path id="sleeveTrimL" d="M.093 1.982l.482 2.032.806 2.365h12.932l.328-4.397z"/>
            <path id="sleeveTrimR" transform="matrix(-1 0 0 1 292.548 0)" d="M139 0l.57 3.964h13.642L153.548 0z"/>
        </g>
        <g id="hoops" transform="translate(41 89)" fill="#005B9E" fill-rule="nonzero">
            <path d="M87.377 1.012c1.34.736-3.166 3.57-4.371 9.264a38.556 38.556 0 0 0-.708 11.395H8c.18-5.04-.116-8.839-.887-11.395-1.155-3.833-3.407-7.798-3.407-8.528 0-.73 82.331-1.473 83.671-.736z" id="topHoop" opacity="0"/>
            <path d="M6.349 32.748H85.02c.225 1.536.727 2.793 1.506 3.772.779.978 2.122 2.321 4.03 4.029V52.67H.937V41.397c2.117-2.245 3.548-4.248 4.293-6.008l1.119-2.641z" id="centerHoop" opacity="0"/>
            <path id="bottomHoop" d="M.937 62.748h89.62v19.923H.937z" opacity="0"/>
        </g>
        <g id="shortsTrimMiddle" transform="translate(32 192)" fill="#005B9E" fill-rule="nonzero">
            <path id="Path-2" d="M.215 64.912L9.937.358h1.67L1.875 64.912z"/>
            <!--<path id="Path-2-Copy" d="M3.744 64.918L12.706.358h1.951l-9.33 64.56z"/>-->
            <!--<path id="Path-2-Copy-3" d="M107.533 65h-1.285L95.215.358h1.67z"/>-->
            <path id="Path-2-Copy-2" d="M110.711 64.848h-1.5L97.723.358h1.95z"/>
        </g>
        <path d="M88.5 29.68c-.314 2.3-.65 3.683-1.005 4.148-.271.355-1.181 1.884-1.95 2.904-1.02 1.353-2.387 2.511-2.387 2.511s.304 2.462.474 2.745c.17.284.295 4.224 3.863 7.533 1.765 1.637 6.27 3.346 14.11 5.326 1.657.419 4.915.954 7.423 1.158 2.874.235 5.419.76 6.072-.207.185-.275.28-1.175.468-2.335.12-.74.292-1.603.419-2.593.215-1.695.554-4.026 1.014-6.993-3.718.135-6.211.135-7.48 0-5.081-.544-7.472-1.176-10.726-3.14-4.473-2.699-6.802-6.384-6.99-11.056H88.5z" id="beard" fill-opacity=".88" fill="#8D5524" fill-rule="nonzero" opacity="0"/>
        <g id="sockTopTrim" transform="translate(30 271)" fill="#FFCD00" fill-rule="nonzero">
            <path d="M1.085.628L.311 5.087h28.232a14.031 14.031 0 0 0-.794-2.23c-.506-1.124-1.112-2.23-1.413-2.23H1.086z" id="sockTrimTopL"/>
            <path d="M112.118.943L113 5.087c-18.008.209-27.133.209-27.376 0-.365-.314 1.383-4.144 1.583-4.144h24.911z" id="sockTrimTopR"/>
        </g>
    </g>
</svg>