<svg width="177" height="369" viewBox="0 0 177 369" xmlns="http://www.w3.org/2000/svg">
<g id="Page-1" fill="none" fill-rule="evenodd">
        <g id="footballPlayer">
            <path d="M67.725 68.46s-10.13 2.906-20.491 7.815c-10.362 4.91-13.508 5.382-20.208 12.172-6.7 6.79-7.442 10.38-11.103 19.56-3.66 9.18-4.782 19.11-4.782 19.11s-2.225 10.616-2.627 18.826c-.402 8.211.89 16.625.89 16.625l2.622 28.027s3.019 20.366 7.036 22.417c4.016 2.05 19.805-.084 19.805-.084l-2.201-15.873-10.64.02s-1.167-4.34-1.167-8.612c0-4.27-.977 1.366 3.364-9.244 4.34-10.61 8.968-14.981 8.968-20.897 0-5.915-5.187-12.379-5.187-12.379l10.795-18.027.693 63.492-11.488 80.156 25.652 1.42L66 257.551h10.45l12.28-18.736 11.738 19.317h11.352l7.13 13.432h24.164l-11.404-79.462.436-64.58 12.234 18.421s-2.765 2.434-4.099 5.41c-1.333 2.976-.9 6.97-.9 6.97s3.043 8.286 5 12.089c1.956 3.803 5.431 11.316 5.431 11.316s3.415 13.909.962 14.627c-2.453.72-7.66 0-7.66 0s-1.86 2.986-2.833 7.326c-.972 4.34-.9 9.33-.9 9.33l19.249 1.401 6.13-21.298 4.264-30.034s.867-12.283 0-22.249c-.866-9.966-3.511-18.122-3.511-18.122s-7.96-26.588-14.086-34.262c-2.537-3.178-10.476-6.835-18.315-10.473-11.094-5.147-22.496-9.876-22.496-9.876s-3.5-6.438-2.55-11.607c.257-1.396 7.763.896 8.14-.908.255-1.224 2.525-16.711 2.744-17.933.348-1.94 3.261 1.137 3.382-.935.192-3.303-1.466-16.356-1.932-19.096-.621-3.65 1.118-6.652-1.45-8.547-14.931-11.02-28.676-7.38-28.676-7.38s-5.13.497-8.948 2.225c-3.818 1.728-7.358 5.155-7.358 5.155s-4.132 2.385-4.625 8.547c-.18 2.235-1.219 9.563-.546 11.747 1.182 3.837 2.882 8.284 2.882 8.284l-3.953 30.81z" id="skin" fill="#FFDBAC"/>
            <path id="shorts" fill="#6CABDD" d="M43.041 191.966l-9.826 64.857 44.332 1.54 11.26-19.02 11.598 19.02 43.306-1.54-11.089-64.857z"/>
            <g id="socks" transform="translate(20 271)" fill="#000">
                <path d="M.781 83.865L11.785.927H37.54s6.072 8.387 1.777 23.901c-2.08 7.516-5.087 9.963-7.673 13.765-2.586 3.803-4.704 5.584-8.51 12.916-7.377 14.209-12.935 32.356-12.935 32.356H.781z" id="sockLeft"/>
                <path d="M136.073 82.938L123.676 0H99.314s-6.072 8.388-1.777 23.901c2.08 7.516 5.087 9.963 7.673 13.766 2.586 3.802 4.703 5.583 8.51 12.915 7.377 14.209 12.935 32.356 12.935 32.356h9.418z" id="sockRight"/>
            </g>
            <g id="boots" transform="translate(0 353)" fill="#484848">
                <path d="M21.377.746s-.186 1.29-5.71 4.98c-3.58 2.393-11.098 5.66-14.066 7.758-1.613 1.14 0 2.032 0 2.032h26.355l2.269-13.707L21.377.746z" id="bootLeft"/>
                <path d="M155.848 0s.185 1.29 5.71 4.98c3.58 2.393 11.097 5.66 14.066 7.758 1.612 1.14 0 2.032 0 2.032h-26.355L147 1.063 155.848 0z" id="bootRight"/>
            </g>
            <path id="eye" fill="#3A3A3A" d="M105.813 22.7l3.06 4.22h1.225l.174-2.3 5.413.19v-2.102z"/>
            <path d="M108.002 56.083s-17.16-3.738-20.125-6.968-4.02-11.864-4.02-11.864l-4.978-3.056-7.084 3.33s-.435 3.014-.75 6.09c-.316 3.076-1.134 8.494-1.134 8.494l33.314 23.665s3.456-1.365 4.777-2.476c1.322-1.11 3.447-4.433 3.447-4.433s-.522-.095-1.11-1.146c-.59-1.052-1.138-2.828-1.748-4.901-1.268-4.306-.589-6.735-.589-6.735z" id="neckShadow" fill-opacity=".05" fill="#000"/>
            <path d="M35.356 164.688s1.474-2.357 2.081-5.14c.608-2.782-.711-6.867-.711-6.867l-4.269-6.738s2.538-3.615 4.98-7.359c2.443-3.743 5.227-8.28 5.227-8.28l.21 13.594.751 48.341 88.574.147.45-64.398s4.113 6.892 6.518 10.596c2.406 3.705 5.144 7.36 5.144 7.36s-2.922 1.698-4.504 4.45c-1.583 2.753-2.067 2.76-1.656 6.878.412 4.118 3.083 7.416 3.083 7.416s4.308 8.187 6.41 13.666c2.103 5.48 3.881 17.582 3.881 17.582h12.454s2.893-11.419 3.798-15.87c.906-4.453 2.557-15.378 2.557-15.378s.88-10.833-1.126-26.104c-2.004-15.27-6.752-28.267-6.752-28.267s-4.695-13.159-9.233-19.83c-4.538-6.672-11.278-9.461-11.278-9.461L110.29 67.774s-.074 3.73-5.549 6.506c-1.889.958-4.976 2.254-6.893 2.941-1.917.687-8.021 1.62-8.021 1.62s-7.83-.903-13.435-3.074c-5.605-2.172-9.708-6.968-9.708-6.968s-7.001 2.227-14.234 4.965c-7.232 2.738-11.662 4.774-15.013 6.478-7.518 3.825-9.105 6.319-12.59 10.244-3.484 3.926-7.28 11.18-7.28 11.18s-4.708 9.178-7.841 26.322c-1.434 7.845-2.545 23.586-1.485 37.989 1.258 17.073 4.878 32.402 4.878 32.402H26.37s.563-12.956 2.234-18.314c1.672-5.357 6.752-15.377 6.752-15.377z" id="jersey" fill="#004812"/>
            <path d="M71.61 37.478l7.384-3.087s-1.977-4.375-1.746-8.242c.23-3.867 2.531-4.903 2.531-4.903s3.277-1.357 5.918.948c2.641 2.305 3.816 7.547 3.816 7.547h3.234l.61-9.685 4.852-.948.356-1.77.516-5.65 21.16 1.324s.697-1.837-.716-3.838c-1.208-1.71-4.298-3.497-6.924-4.824C106.9 1.472 96.508.737 96.508.737s-3.729-.603-8.734.478-9.28 3.135-9.28 3.135-4.127 2.275-6.633 5.344c-2.506 3.07-3.453 5.173-3.833 7.35-.38 2.176-.028 2.795 0 5.15.022 1.898.368 4.47.517 5.678.334 2.706 1.569 6.085 1.569 6.085l1.496 3.52z" id="hair" fill="#8D5524"/>
            <g id="verticalStripes" transform="translate(13 69)" fill="#6CABDD">
                <path d="M3.942 129.313L.2 44.613s2.887-9.509 4.662-12.615 4.884-7.888 4.884-7.888l2.216 105.092-8.02.111z" id="vStripe1" class="stripes"/>
                <path d="M20.321 99.924s-.528-11.37-1.045-22.76c-.517-11.39-.78-62.39-.78-62.39s1.19-1.147 4.205-2.834c3.015-1.686 6.197-2.782 6.197-2.782s.628 34.966.628 52.801c0 .85-3.36 5.294-3.36 5.294l-6.37 10.265s1.154 1.31 2.072 2.732c.524.811 2.197 3.3 2.664 6.344.466 3.043-.154 4.815-1.363 7.51-2.045 4.556-2.848 5.82-2.848 5.82z" id="vStripe2" fill-opacity=".95" class="stripes"/>
                <path id="vStripe3" d="M39 123.255V4.78l10.01-3.513 1.137 122.053z" class="stripes"/>
                <path d="M60 123.31V5.193s2.673 1.223 4.889 1.979 5.13 1.438 5.13 1.438l1.15 114.7H60z" id="vStripe4" class="stripes"/>
                <path d="M81.037 123.365V5.065s3.308 1.352 5.586 2.367a27.882 27.882 0 0 0 4.558 1.534l.991 114.399H81.037z" id="vStripe5" transform="matrix(-1 0 0 1 173.21 0)" class="stripes"/>
                <path id="vStripe6" transform="matrix(-1 0 0 1 213.211 0)" d="M101.04 123.367V4.99L111.154.647l1.017 122.72z" class="stripes"/>
                <path d="M130.835 100.148l1.045-22.984c.517-11.39.678-63.073.678-63.073s-.785-.804-4.262-2.472c-3.477-1.667-6.152-2.463-6.152-2.463s-.514 34.968-.514 52.803c0 .85 3.36 5.294 3.36 5.294l5.845 9.911s-1.621.849-2.539 2.27c-.525.811-3.065 3.269-3.306 5.84-.242 2.57.878 6.42 2.088 9.116 1.21 2.695 3.757 5.758 3.757 5.758z" id="vStripe7" fill-opacity=".95" class="stripes"/>
                <path d="M147.977 126.972l2.76-81.43s-.735-4.309-3.502-10.847c-2.767-6.538-5.752-11.185-5.752-11.185l-1.21 103.462h7.704z" id="vStripe8" class="stripes"/>
            </g>
            <path d="M117.083 70.486s-10.346 12.426-26.052 12.802c-15.707.376-34.12-11.36-34.12-11.36l9.537-3.317s16.857 7.394 24.583 7.222c7.726-.171 19.338-8.199 19.338-8.199l6.714 2.852z" id="collar" fill="#000"/>
        </g>
    </g>
</svg>