<svg width="1496" height="2244" viewBox="0 0 1496 2244" fill="none" xmlns="http://www.w3.org/2000/svg">
    <rect width="1496" height="2244" rx="140" fill="#808080"/>
    <rect x="74" y="80" width="1348" height="2083" rx="94" stroke="#FFE000" stroke-width="20"/>
    <path d="M64 174C64 116.562 110.562 70 168 70H1328C1385.44 70 1432 116.562 1432 174V676H64V174Z" fill="#FFE000"/>
    <rect x="615.167" y="1824.28" width="265.665" height="108.467" fill="white" stroke="#FFE000" stroke-width="9.43191"/>
    <rect x="541.284" y="1899.74" width="413.432" height="126.545" fill="white" stroke="#FFE000" stroke-width="9.43191"/>
    <path d="M568.934 2035.72H552.781L566.396 2044.41L604.91 2068.99L606.071 2069.73H607.447H888.553H889.929L891.09 2068.99L929.604 2044.41L943.219 2035.72H927.066H568.934Z" fill="#D5BB00" stroke="#D4BB00" stroke-width="9.43191"/>
    <rect x="619.883" y="1829" width="256.233" height="99.035" fill="black"/>
    <rect x="546" y="1904.46" width="404" height="117.113" fill="black"/>
    <path d="M675.091 1850.22C674.62 1850.22 674.148 1850.6 674.148 1851.16V1887.67L658.397 1850.79C658.208 1850.41 657.925 1850.22 657.548 1850.22H647.55C646.984 1850.22 646.607 1850.6 646.607 1851.16V1915.77C646.607 1916.34 646.984 1916.72 647.55 1916.72H657.548C658.02 1916.72 658.397 1916.34 658.397 1915.77V1880.4L674.242 1916.06C674.337 1916.43 674.714 1916.72 675.091 1916.72H685.089C685.561 1916.72 686.032 1916.34 686.032 1915.77V1851.16C686.032 1850.6 685.561 1850.22 685.089 1850.22H675.091Z" fill="white"/>
    <path d="M697.307 1850.88C696.741 1850.88 696.364 1851.35 696.364 1851.83V1915.77C696.364 1916.34 696.741 1916.72 697.307 1916.72H707.305C707.777 1916.72 708.154 1916.34 708.154 1915.77V1851.83C708.154 1851.35 707.777 1850.88 707.305 1850.88H697.307Z" fill="white"/>
    <path d="M719.432 1850.88C718.866 1850.88 718.488 1851.35 718.488 1851.83V1915.77C718.488 1916.34 718.866 1916.72 719.432 1916.72H729.429C729.901 1916.72 730.278 1916.34 730.278 1915.77V1890.4H747.633C748.105 1890.4 748.482 1890.02 748.482 1889.46V1879.55C748.482 1878.99 748.105 1878.61 747.633 1878.61H730.278V1862.77H749.614C750.18 1862.77 750.557 1862.29 750.557 1861.82V1851.83C750.557 1851.35 750.18 1850.88 749.614 1850.88H719.432Z" fill="white"/>
    <path d="M761.912 1850.88C761.44 1850.88 760.969 1851.35 760.969 1851.83V1861.82C760.969 1862.29 761.44 1862.77 761.912 1862.77H772.759V1915.77C772.759 1916.34 773.136 1916.72 773.608 1916.72H783.605C784.171 1916.72 784.549 1916.34 784.549 1915.77V1862.77H795.301C795.867 1862.77 796.244 1862.29 796.244 1861.82V1851.83C796.244 1851.35 795.867 1850.88 795.301 1850.88H761.912Z" fill="white"/>
    <path d="M838.178 1850.98C837.895 1850.98 837.518 1851.26 837.329 1851.54L828.18 1873.99L818.937 1851.54C818.842 1851.26 818.465 1850.98 818.088 1850.98H807.524C807.241 1850.98 806.864 1851.16 806.77 1851.45C806.581 1851.64 806.581 1852.01 806.675 1852.3L822.238 1889.18V1915.87C822.238 1916.43 822.709 1916.81 823.181 1916.81H833.179C833.65 1916.81 834.122 1916.43 834.122 1915.87V1889.08L849.685 1852.3C849.779 1852.01 849.779 1851.64 849.59 1851.45C849.402 1851.16 849.119 1850.98 848.836 1850.98H838.178Z" fill="white"/>
    <path d="M568.951 1933.22C568.385 1933.22 568.008 1933.69 568.008 1934.17V1998.11C568.008 1998.68 568.385 1999.06 568.951 1999.06H578.949C579.42 1999.06 579.798 1998.68 579.798 1998.11V1972.74H597.152C597.624 1972.74 598.001 1972.37 598.001 1971.8V1961.9C598.001 1961.33 597.624 1960.95 597.152 1960.95H579.798V1945.11H599.133C599.699 1945.11 600.076 1944.64 600.076 1944.16V1934.17C600.076 1933.69 599.699 1933.22 599.133 1933.22H568.951Z" fill="white"/>
    <path d="M622.278 1933.22C621.995 1933.22 621.807 1933.32 621.618 1933.51L610.771 1944.35C610.583 1944.54 610.488 1944.82 610.488 1945.01V1987.27C610.488 1987.55 610.583 1987.83 610.771 1987.93L621.618 1998.77C621.712 1998.87 621.901 1998.96 621.995 1999.06H638.69C638.973 1999.06 639.161 1998.96 639.35 1998.77L650.197 1987.93C650.385 1987.74 650.48 1987.55 650.48 1987.27V1945.01C650.48 1944.73 650.385 1944.54 650.197 1944.35L639.35 1933.51C639.256 1933.41 639.161 1933.32 639.067 1933.32L638.69 1933.22H622.278ZM634.162 1987.27H626.805L622.278 1982.74V1949.54L626.805 1945.11H634.162L638.69 1949.54V1982.74L634.162 1987.27Z" fill="white"/>
    <path d="M672.68 1933.22C672.397 1933.22 672.208 1933.32 672.02 1933.51L661.173 1944.35C660.984 1944.54 660.89 1944.82 660.89 1945.01V1987.27C660.89 1987.55 660.984 1987.83 661.173 1987.93L672.02 1998.77C672.114 1998.87 672.303 1998.96 672.397 1999.06H689.091C689.374 1999.06 689.563 1998.96 689.752 1998.77L700.598 1987.93C700.787 1987.74 700.881 1987.55 700.881 1987.27V1945.01C700.881 1944.73 700.787 1944.54 700.598 1944.35L689.752 1933.51C689.657 1933.41 689.563 1933.32 689.469 1933.32L689.091 1933.22H672.68ZM684.564 1987.27H677.207L672.68 1982.74V1949.54L677.207 1945.11H684.564L689.091 1949.54V1982.74L684.564 1987.27Z" fill="white"/>
    <path d="M712.235 1933.22C711.763 1933.22 711.292 1933.69 711.292 1934.17V1944.16C711.292 1944.64 711.763 1945.11 712.235 1945.11H723.082V1998.11C723.082 1998.68 723.459 1999.06 723.93 1999.06H733.928C734.494 1999.06 734.872 1998.68 734.872 1998.11V1945.11H745.624C746.19 1945.11 746.567 1944.64 746.567 1944.16V1934.17C746.567 1933.69 746.19 1933.22 745.624 1933.22H712.235Z" fill="white"/>
    <path d="M757.847 1933.22C757.281 1933.22 756.904 1933.69 756.904 1934.17V1998.11C756.904 1998.68 757.281 1999.06 757.847 1999.06H783.408C783.596 1999.06 783.879 1998.96 784.068 1998.77L794.914 1987.93C795.103 1987.74 795.197 1987.55 795.197 1987.27V1971.33C795.197 1971.04 795.009 1970.76 794.82 1970.67L790.387 1966.14L794.914 1961.61C795.103 1961.42 795.197 1961.24 795.197 1960.95V1945.01C795.197 1944.73 795.009 1944.54 794.82 1944.35L784.068 1933.51C783.879 1933.41 783.785 1933.32 783.596 1933.32C783.596 1933.22 783.502 1933.22 783.408 1933.22H757.847ZM778.88 1960.95H768.694V1945.11H778.88L783.313 1949.54V1956.43L778.88 1960.95ZM778.88 1987.27H768.694V1972.74H780.201L783.313 1975.85V1982.74L778.88 1987.27Z" fill="white"/>
    <path d="M819.986 1933.22C819.515 1933.22 819.137 1933.51 819.043 1933.98L805.556 1997.93C805.556 1998.21 805.556 1998.49 805.744 1998.68C805.933 1998.96 806.216 1999.06 806.499 1999.06H816.497C816.874 1999.06 817.251 1998.77 817.345 1998.3L820.647 1982.74H834.417L837.624 1998.3C837.718 1998.77 838.096 1999.06 838.567 1999.06H848.565C848.848 1999.06 849.131 1998.96 849.225 1998.68C849.414 1998.49 849.508 1998.21 849.414 1997.93L835.926 1933.98C835.832 1933.51 835.455 1933.22 835.077 1933.22H819.986ZM827.532 1950.2L831.871 1970.95H823.193L827.532 1950.2Z" fill="white"/>
    <path d="M871.616 1987.17V1934.17C871.616 1933.69 871.238 1933.22 870.767 1933.22H860.769C860.203 1933.22 859.826 1933.69 859.826 1934.17V1998.11C859.826 1998.68 860.203 1999.06 860.769 1999.06H888.027C888.593 1999.06 888.97 1998.59 888.97 1998.11V1988.12C888.97 1987.64 888.593 1987.17 888.027 1987.17H871.616Z" fill="white"/>
    <path d="M911.149 1987.17V1934.17C911.149 1933.69 910.771 1933.22 910.3 1933.22H900.302C899.736 1933.22 899.359 1933.69 899.359 1934.17V1998.11C899.359 1998.68 899.736 1999.06 900.302 1999.06H927.56C928.126 1999.06 928.503 1998.59 928.503 1998.11V1988.12C928.503 1987.64 928.126 1987.17 927.56 1987.17H911.149Z" fill="white"/>
    <path d="M1205.89 1988C1205.1 1988.08 1204.36 1988.45 1203.83 1989.04C1203.29 1989.63 1203 1990.4 1203 1991.2V2061.47C1203 2062.32 1203.34 2063.13 1203.94 2063.73C1204.53 2064.33 1205.35 2064.67 1206.19 2064.67H1314.81C1315.65 2064.67 1316.47 2064.33 1317.06 2063.73C1317.66 2063.13 1318 2062.32 1318 2061.47V1991.2C1318 1990.35 1317.66 1989.54 1317.06 1988.94C1316.47 1988.34 1315.65 1988 1314.81 1988H1206.19C1206.09 1988 1205.99 1988 1205.89 1988V1988ZM1209.39 1994.39H1257.31V2005.87C1247.38 2007.42 1239.74 2015.99 1239.74 2026.34C1239.74 2036.68 1247.38 2045.3 1257.31 2046.85V2058.28H1209.39V2045.5H1220.57C1221.42 2045.5 1222.23 2045.16 1222.83 2044.57C1223.43 2043.97 1223.76 2043.15 1223.76 2042.31V2010.36C1223.76 2009.52 1223.43 2008.7 1222.83 2008.1C1222.23 2007.51 1221.42 2007.17 1220.57 2007.17H1209.39V1994.39ZM1263.69 1994.39H1311.61V2007.17H1300.43C1300.33 2007.16 1300.23 2007.16 1300.13 2007.17C1299.34 2007.24 1298.6 2007.61 1298.06 2008.2C1297.53 2008.8 1297.23 2009.57 1297.24 2010.36V2042.31C1297.24 2043.15 1297.57 2043.97 1298.17 2044.57C1298.77 2045.16 1299.58 2045.5 1300.43 2045.5H1311.61V2058.28H1263.69V2046.85C1273.62 2045.3 1281.26 2036.68 1281.26 2026.34C1281.26 2015.99 1273.62 2007.42 1263.69 2005.87V1994.39V1994.39ZM1257.31 2012.36V2040.41C1250.89 2038.97 1246.13 2033.21 1246.13 2026.34C1246.13 2019.46 1250.89 2013.81 1257.31 2012.36ZM1263.69 2012.36C1270.11 2013.81 1274.87 2019.46 1274.87 2026.34C1274.87 2033.21 1270.11 2038.97 1263.69 2040.41V2012.36ZM1209.39 2013.56H1217.38V2039.11H1209.39V2013.56ZM1303.62 2013.56H1311.61V2039.11H1303.62V2013.56Z" fill="#3D3D3D"/>
    <rect x="165" y="1988" width="254" height="103" rx="51.5" fill="#3D3D3D"/>
    <path d="M223.606 2025.99C223.348 2025.99 223.176 2026.2 223.176 2026.42V2055.57C223.176 2055.83 223.348 2056 223.606 2056H228.164C228.207 2056 228.25 2056 228.293 2055.96H237.366C237.624 2055.96 237.796 2055.78 237.796 2055.57V2051.01C237.796 2050.75 237.624 2050.58 237.366 2050.58H228.551V2044H236.463C236.678 2044 236.85 2043.83 236.85 2043.57V2039.06C236.85 2038.8 236.678 2038.63 236.463 2038.63H228.551V2031.4H237.366C237.624 2031.4 237.796 2031.19 237.796 2030.97V2026.42C237.796 2026.2 237.624 2025.99 237.366 2025.99H223.606ZM242.972 2025.99C242.714 2025.99 242.542 2026.2 242.542 2026.42V2055.57C242.542 2055.83 242.714 2056 242.972 2056H247.53C247.745 2056 247.917 2055.83 247.917 2055.57V2044H250.927L254.625 2055.7C254.668 2055.87 254.84 2056 255.012 2056H259.57C259.699 2056 259.828 2055.96 259.914 2055.83C260 2055.7 260 2055.57 259.957 2055.44L256.001 2042.8L259.871 2038.93C259.957 2038.84 260 2038.76 260 2038.63V2031.36C260 2031.23 259.914 2031.15 259.828 2031.06L254.926 2026.11C254.84 2026.07 254.797 2026.03 254.711 2026.03C254.711 2025.99 254.668 2025.99 254.625 2025.99H242.972ZM252.561 2038.63H247.917V2031.4H252.561L254.582 2033.42V2036.56L252.561 2038.63ZM269.453 2026.03C269.367 2026.03 269.238 2026.07 269.152 2026.16L264.895 2030.46C264.766 2030.5 264.723 2030.63 264.723 2030.76V2051.27C264.723 2051.44 264.809 2051.57 264.938 2051.61L269.152 2055.87C269.238 2055.91 269.281 2055.96 269.367 2056H269.453H277.709C277.795 2056 277.924 2055.96 278.01 2055.87L281.966 2051.91C282.095 2051.83 282.181 2051.7 282.181 2051.53V2047.96C282.181 2047.7 282.009 2047.53 281.751 2047.53H277.236C276.978 2047.53 276.806 2047.7 276.806 2047.96V2049.46L275.645 2050.62H271.517L270.141 2049.21V2032.82L271.517 2031.4H275.645L276.806 2032.61V2034.11C276.806 2034.37 277.021 2034.54 277.236 2034.54H281.794C282.052 2034.54 282.224 2034.37 282.224 2034.11V2030.54C282.224 2030.41 282.181 2030.29 282.095 2030.2L278.01 2026.16C277.967 2026.11 277.924 2026.07 277.881 2026.07C277.795 2026.03 277.752 2026.03 277.709 2026.03H269.453ZM287.375 2035.19C287.117 2035.19 286.945 2035.36 286.945 2035.57V2040.05C286.945 2040.26 287.117 2040.48 287.375 2040.48H301.608C301.823 2040.48 302.038 2040.26 302.038 2040.05V2035.57C302.038 2035.36 301.823 2035.19 301.608 2035.19H287.375ZM307.204 2026.03C306.946 2026.03 306.774 2026.24 306.774 2026.46V2032.74C306.774 2032.95 306.946 2033.17 307.204 2033.17H311.16C311.418 2033.17 311.59 2032.95 311.59 2032.74V2031.4H317.008L311.59 2055.57C311.59 2055.83 311.805 2056 312.02 2056H316.578C316.793 2056 316.965 2055.83 316.965 2055.57L323.544 2026.46C323.544 2026.24 323.329 2026.03 323.114 2026.03H307.204ZM341.311 2026.16C341.268 2026.11 341.139 2026.03 341.053 2026.03H333.657C333.614 2026.03 333.571 2026.07 333.528 2026.07C333.442 2026.07 333.399 2026.11 333.356 2026.16L328.411 2031.1C328.325 2031.19 328.282 2031.27 328.282 2031.4V2035.83C328.282 2036.09 328.454 2036.26 328.712 2036.26H333.227C333.485 2036.26 333.657 2036.09 333.657 2035.83V2033.47L335.721 2031.45H338.989L341.01 2033.47V2035.19L328.454 2044.78C328.325 2044.86 328.282 2044.95 328.282 2045.08V2055.57C328.282 2055.83 328.454 2056 328.712 2056H345.998C346.213 2056 346.385 2055.83 346.385 2055.57V2048.47C346.385 2048.22 346.213 2048.04 345.998 2048.04H341.44C341.182 2048.04 341.01 2048.22 341.01 2048.47V2050.62H333.657V2047.27L346.213 2037.9C346.342 2037.81 346.385 2037.68 346.385 2037.55V2031.4C346.385 2031.27 346.342 2031.15 346.256 2031.1L341.311 2026.16ZM351.564 2026.03C351.306 2026.03 351.134 2026.24 351.134 2026.46V2031.02C351.134 2031.23 351.306 2031.4 351.564 2031.4H353.241V2055.57C353.241 2055.83 353.456 2056 353.671 2056H358.229C358.444 2056 358.659 2055.83 358.659 2055.57V2026.46C358.659 2026.24 358.444 2026.03 358.229 2026.03H351.564Z" fill="#808080"/>
    <path d="M664.485 1095.97C664.377 1095.97 664.304 1096.01 664.232 1096.08L660.104 1100.24C659.996 1100.28 659.96 1100.39 659.96 1100.5V1105.67C659.96 1105.78 659.996 1105.89 660.104 1105.96L670.676 1113.86V1114.98L668.975 1116.72H666.223L664.485 1114.98V1112.99C664.485 1112.81 664.341 1112.63 664.159 1112.63H660.322C660.104 1112.63 659.96 1112.81 659.96 1112.99V1116.72C659.96 1116.83 659.996 1116.93 660.068 1116.97L664.232 1121.13C664.268 1121.17 664.341 1121.21 664.377 1121.24H664.485H670.713C670.785 1121.24 670.894 1121.21 670.966 1121.13L675.094 1117.01C675.202 1116.93 675.238 1116.83 675.238 1116.72V1112.05C675.238 1111.94 675.166 1111.83 675.094 1111.76L664.485 1103.68V1102.23L666.223 1100.53H668.975L670.676 1102.23V1104.23C670.676 1104.44 670.857 1104.59 671.039 1104.59H674.876C675.094 1104.59 675.238 1104.44 675.238 1104.23V1100.5C675.238 1100.39 675.202 1100.32 675.13 1100.24L670.966 1096.08C670.93 1096.04 670.857 1096.01 670.821 1096.01C670.785 1095.97 670.749 1095.97 670.713 1095.97H664.485ZM679.598 1095.97C679.417 1095.97 679.236 1096.15 679.236 1096.33V1100.17C679.236 1100.35 679.417 1100.53 679.598 1100.53H683.762V1120.88C683.762 1121.1 683.907 1121.24 684.088 1121.24H687.926C688.143 1121.24 688.288 1121.1 688.288 1120.88V1100.53H692.415C692.632 1100.53 692.777 1100.35 692.777 1100.17V1096.33C692.777 1096.15 692.632 1095.97 692.415 1095.97H679.598ZM702.284 1095.97C702.103 1095.97 701.959 1096.08 701.922 1096.26L696.745 1120.81C696.745 1120.92 696.745 1121.02 696.817 1121.1C696.89 1121.21 696.998 1121.24 697.107 1121.24H700.945C701.09 1121.24 701.234 1121.13 701.271 1120.95L702.538 1114.98H707.824L709.055 1120.95C709.091 1121.13 709.236 1121.24 709.417 1121.24H713.255C713.363 1121.24 713.472 1121.21 713.508 1121.1C713.58 1121.02 713.617 1120.92 713.58 1120.81L708.403 1096.26C708.367 1096.08 708.222 1095.97 708.077 1095.97H702.284ZM705.181 1102.49L706.846 1110.45H703.515L705.181 1102.49ZM717.939 1095.97C717.758 1095.97 717.577 1096.15 717.577 1096.33V1100.17C717.577 1100.35 717.758 1100.53 717.939 1100.53H722.103V1120.88C722.103 1121.1 722.248 1121.24 722.429 1121.24H726.266C726.484 1121.24 726.629 1121.1 726.629 1120.88V1100.53H730.756C730.973 1100.53 731.118 1100.35 731.118 1100.17V1096.33C731.118 1096.15 730.973 1095.97 730.756 1095.97H717.939ZM735.448 1095.97C735.231 1095.97 735.086 1096.15 735.086 1096.33V1120.88C735.086 1121.1 735.231 1121.24 735.448 1121.24H739.286C739.322 1121.24 739.358 1121.24 739.394 1121.21H747.034C747.251 1121.21 747.396 1121.06 747.396 1120.88V1117.04C747.396 1116.83 747.251 1116.68 747.034 1116.68H739.612V1111.14H746.273C746.454 1111.14 746.599 1111 746.599 1110.78V1106.98C746.599 1106.76 746.454 1106.62 746.273 1106.62H739.612V1100.53H747.034C747.251 1100.53 747.396 1100.35 747.396 1100.17V1096.33C747.396 1096.15 747.251 1095.97 747.034 1095.97H735.448ZM763.535 1095.97C763.354 1095.97 763.173 1096.15 763.173 1096.33V1100.17C763.173 1100.35 763.354 1100.53 763.535 1100.53H767.699V1120.88C767.699 1121.1 767.844 1121.24 768.025 1121.24H771.863C772.08 1121.24 772.225 1121.1 772.225 1120.88V1100.53H776.352C776.569 1100.53 776.714 1100.35 776.714 1100.17V1096.33C776.714 1096.15 776.569 1095.97 776.352 1095.97H763.535ZM781.044 1095.97C780.827 1095.97 780.682 1096.15 780.682 1096.33V1120.88C780.682 1121.1 780.827 1121.24 781.044 1121.24H784.882C785.063 1121.24 785.208 1121.1 785.208 1120.88V1096.33C785.208 1096.15 785.063 1095.97 784.882 1095.97H781.044ZM789.537 1095.97C789.356 1095.97 789.175 1096.15 789.175 1096.33V1100.17C789.175 1100.35 789.356 1100.53 789.537 1100.53H793.7V1120.88C793.7 1121.1 793.845 1121.24 794.026 1121.24H797.864C798.081 1121.24 798.226 1121.1 798.226 1120.88V1100.53H802.354C802.571 1100.53 802.716 1100.35 802.716 1100.17V1096.33C802.716 1096.15 802.571 1095.97 802.354 1095.97H789.537ZM811.209 1116.68V1096.33C811.209 1096.15 811.064 1095.97 810.883 1095.97H807.046C806.828 1095.97 806.684 1096.15 806.684 1096.33V1120.88C806.684 1121.1 806.828 1121.24 807.046 1121.24H810.883H810.956H817.509C817.726 1121.24 817.871 1121.06 817.871 1120.88V1117.04C817.871 1116.86 817.726 1116.68 817.509 1116.68H811.209ZM822.221 1095.97C822.004 1095.97 821.859 1096.15 821.859 1096.33V1120.88C821.859 1121.1 822.004 1121.24 822.221 1121.24H826.059C826.095 1121.24 826.131 1121.24 826.167 1121.21H833.806C834.024 1121.21 834.169 1121.06 834.169 1120.88V1117.04C834.169 1116.83 834.024 1116.68 833.806 1116.68H826.384V1111.14H833.046C833.227 1111.14 833.372 1111 833.372 1110.78V1106.98C833.372 1106.76 833.227 1106.62 833.046 1106.62H826.384V1100.53H833.806C834.024 1100.53 834.169 1100.35 834.169 1100.17V1096.33C834.169 1096.15 834.024 1095.97 833.806 1095.97H822.221Z" fill="black"/>
    <path d="M633.912 1073.25C621.684 1073.25 612.853 1070.22 607.419 1064.16C601.984 1058.1 599.267 1048.33 599.267 1034.85V1021.68H625.76V1038.45C625.76 1045.14 627.902 1048.49 632.187 1048.49C634.591 1048.49 636.263 1047.81 637.204 1046.45C638.144 1044.98 638.614 1042.58 638.614 1039.24C638.614 1034.85 638.092 1031.24 637.047 1028.42C636.002 1025.49 634.643 1023.09 632.971 1021.21C631.403 1019.22 628.529 1016.19 624.349 1012.12L612.749 1000.52C603.761 991.738 599.267 982.018 599.267 971.359C599.267 959.863 601.88 951.136 607.105 945.179C612.435 939.118 620.169 936.087 630.306 936.087C642.429 936.087 651.155 939.327 656.485 945.806C661.815 952.181 664.48 962.214 664.48 975.905H637.047L636.89 966.656C636.89 964.879 636.368 963.468 635.322 962.423C634.382 961.378 633.023 960.856 631.247 960.856C629.156 960.856 627.589 961.43 626.544 962.58C625.499 963.73 624.976 965.297 624.976 967.283C624.976 971.672 627.484 976.218 632.501 980.921L648.177 995.97C651.835 999.524 654.865 1002.92 657.269 1006.16C659.673 1009.3 661.606 1013.06 663.069 1017.45C664.532 1021.73 665.264 1026.85 665.264 1032.81C665.264 1046.08 662.808 1056.17 657.896 1063.06C653.089 1069.86 645.094 1073.25 633.912 1073.25ZM693.628 1072V963.207H677.638V937.341H736.581V963.207H720.591V1072H693.628ZM748.414 1072L761.425 937.341H807.043L819.898 1072H794.345L792.464 1050.21H776.161L774.593 1072H748.414ZM778.199 1028.73H790.426L784.469 960.229H783.215L778.199 1028.73ZM847.543 1072V963.207H831.553V937.341H890.496V963.207H874.506V1072H847.543Z" fill="black"/>
    <path d="M466.117 1366.97C466.009 1366.97 465.936 1367.01 465.864 1367.08L461.737 1371.24C461.628 1371.28 461.592 1371.39 461.592 1371.5V1376.67C461.592 1376.78 461.628 1376.89 461.737 1376.96L472.309 1384.86V1385.98L470.607 1387.72H467.855L466.117 1385.98V1383.99C466.117 1383.81 465.973 1383.62 465.792 1383.62H461.954C461.737 1383.62 461.592 1383.81 461.592 1383.99V1387.72C461.592 1387.82 461.628 1387.93 461.7 1387.97L465.864 1392.13C465.9 1392.17 465.973 1392.21 466.009 1392.24H466.117H472.345C472.417 1392.24 472.526 1392.21 472.598 1392.13L476.726 1388.01C476.834 1387.93 476.87 1387.82 476.87 1387.72V1383.05C476.87 1382.94 476.798 1382.83 476.726 1382.76L466.117 1374.68V1373.23L467.855 1371.53H470.607L472.309 1373.23V1375.22C472.309 1375.44 472.49 1375.59 472.671 1375.59H476.508C476.726 1375.59 476.87 1375.44 476.87 1375.22V1371.5C476.87 1371.39 476.834 1371.31 476.762 1371.24L472.598 1367.08C472.562 1367.04 472.49 1367.01 472.453 1367.01C472.417 1366.97 472.381 1366.97 472.345 1366.97H466.117ZM481.23 1366.97C481.049 1366.97 480.868 1367.15 480.868 1367.33V1371.17C480.868 1371.35 481.049 1371.53 481.23 1371.53H485.394V1391.88C485.394 1392.1 485.539 1392.24 485.72 1392.24H489.558C489.775 1392.24 489.92 1392.1 489.92 1391.88V1371.53H494.047C494.264 1371.53 494.409 1371.35 494.409 1371.17V1367.33C494.409 1367.15 494.264 1366.97 494.047 1366.97H481.23ZM503.916 1366.97C503.735 1366.97 503.591 1367.08 503.554 1367.26L498.377 1391.81C498.377 1391.92 498.377 1392.02 498.449 1392.1C498.522 1392.21 498.63 1392.24 498.739 1392.24H502.577C502.722 1392.24 502.866 1392.13 502.903 1391.95L504.17 1385.98H509.456L510.687 1391.95C510.723 1392.13 510.868 1392.24 511.049 1392.24H514.887C514.995 1392.24 515.104 1392.21 515.14 1392.1C515.213 1392.02 515.249 1391.92 515.213 1391.81L510.035 1367.26C509.999 1367.08 509.854 1366.97 509.709 1366.97H503.916ZM506.813 1373.49L508.478 1381.45H505.147L506.813 1373.49ZM519.571 1366.97C519.39 1366.97 519.209 1367.15 519.209 1367.33V1371.17C519.209 1371.35 519.39 1371.53 519.571 1371.53H523.735V1391.88C523.735 1392.1 523.88 1392.24 524.061 1392.24H527.899C528.116 1392.24 528.261 1392.1 528.261 1391.88V1371.53H532.388C532.605 1371.53 532.75 1371.35 532.75 1371.17V1367.33C532.75 1367.15 532.605 1366.97 532.388 1366.97H519.571ZM537.08 1366.97C536.863 1366.97 536.718 1367.15 536.718 1367.33V1391.88C536.718 1392.1 536.863 1392.24 537.08 1392.24H540.918C540.954 1392.24 540.99 1392.24 541.026 1392.21H548.666C548.883 1392.21 549.028 1392.06 549.028 1391.88V1388.04C549.028 1387.82 548.883 1387.68 548.666 1387.68H541.244V1382.14H547.905C548.086 1382.14 548.231 1382 548.231 1381.78V1377.98C548.231 1377.76 548.086 1377.61 547.905 1377.61H541.244V1371.53H548.666C548.883 1371.53 549.028 1371.35 549.028 1371.17V1367.33C549.028 1367.15 548.883 1366.97 548.666 1366.97H537.08ZM565.168 1366.97C564.986 1366.97 564.805 1367.15 564.805 1367.33V1371.17C564.805 1371.35 564.986 1371.53 565.168 1371.53H569.331V1391.88C569.331 1392.1 569.476 1392.24 569.657 1392.24H573.495C573.712 1392.24 573.857 1392.1 573.857 1391.88V1371.53H577.984C578.201 1371.53 578.346 1371.35 578.346 1371.17V1367.33C578.346 1367.15 578.201 1366.97 577.984 1366.97H565.168ZM582.676 1366.97C582.459 1366.97 582.314 1367.15 582.314 1367.33V1391.88C582.314 1392.1 582.459 1392.24 582.676 1392.24H586.514C586.695 1392.24 586.84 1392.1 586.84 1391.88V1367.33C586.84 1367.15 586.695 1366.97 586.514 1366.97H582.676ZM591.169 1366.97C590.988 1366.97 590.807 1367.15 590.807 1367.33V1371.17C590.807 1371.35 590.988 1371.53 591.169 1371.53H595.333V1391.88C595.333 1392.1 595.477 1392.24 595.658 1392.24H599.496C599.713 1392.24 599.858 1392.1 599.858 1391.88V1371.53H603.986C604.203 1371.53 604.348 1371.35 604.348 1371.17V1367.33C604.348 1367.15 604.203 1366.97 603.986 1366.97H591.169ZM612.841 1387.68V1367.33C612.841 1367.15 612.696 1366.97 612.515 1366.97H608.678C608.46 1366.97 608.316 1367.15 608.316 1367.33V1391.88C608.316 1392.1 608.46 1392.24 608.678 1392.24H612.515H612.588H619.141C619.358 1392.24 619.503 1392.06 619.503 1391.88V1388.04C619.503 1387.86 619.358 1387.68 619.141 1387.68H612.841ZM623.853 1366.97C623.636 1366.97 623.491 1367.15 623.491 1367.33V1391.88C623.491 1392.1 623.636 1392.24 623.853 1392.24H627.691C627.727 1392.24 627.763 1392.24 627.799 1392.21H635.439C635.656 1392.21 635.801 1392.06 635.801 1391.88V1388.04C635.801 1387.82 635.656 1387.68 635.439 1387.68H628.016V1382.14H634.678C634.859 1382.14 635.004 1382 635.004 1381.78V1377.98C635.004 1377.76 634.859 1377.61 634.678 1377.61H628.016V1371.53H635.439C635.656 1371.53 635.801 1371.35 635.801 1371.17V1367.33C635.801 1367.15 635.656 1366.97 635.439 1366.97H623.853Z" fill="black"/>
    <path d="M438.912 1344.25C426.684 1344.25 417.853 1341.22 412.419 1335.16C406.984 1329.1 404.267 1319.33 404.267 1305.85V1292.68H430.76V1309.45C430.76 1316.14 432.902 1319.49 437.187 1319.49C439.591 1319.49 441.263 1318.81 442.204 1317.45C443.144 1315.98 443.614 1313.58 443.614 1310.24C443.614 1305.85 443.092 1302.24 442.047 1299.42C441.002 1296.49 439.643 1294.09 437.971 1292.21C436.403 1290.22 433.529 1287.19 429.349 1283.12L417.749 1271.52C408.761 1262.74 404.267 1253.02 404.267 1242.36C404.267 1230.86 406.88 1222.14 412.105 1216.18C417.435 1210.12 425.169 1207.09 435.306 1207.09C447.429 1207.09 456.155 1210.33 461.485 1216.81C466.815 1223.18 469.48 1233.21 469.48 1246.9H442.047L441.89 1237.66C441.89 1235.88 441.368 1234.47 440.322 1233.42C439.382 1232.38 438.023 1231.86 436.247 1231.86C434.156 1231.86 432.589 1232.43 431.544 1233.58C430.499 1234.73 429.976 1236.3 429.976 1238.28C429.976 1242.67 432.484 1247.22 437.501 1251.92L453.177 1266.97C456.835 1270.52 459.865 1273.92 462.269 1277.16C464.673 1280.3 466.606 1284.06 468.069 1288.45C469.532 1292.73 470.264 1297.85 470.264 1303.81C470.264 1317.08 467.808 1327.17 462.896 1334.06C458.089 1340.86 450.094 1344.25 438.912 1344.25ZM498.628 1343V1234.21H482.638V1208.34H541.581V1234.21H525.591V1343H498.628ZM553.414 1343L566.425 1208.34H612.043L624.898 1343H599.345L597.464 1321.21H581.161L579.593 1343H553.414ZM583.199 1299.73H595.426L589.469 1231.23H588.215L583.199 1299.73ZM652.543 1343V1234.21H636.553V1208.34H695.496V1234.21H679.506V1343H652.543Z" fill="black"/>
    <path d="M856.799 1366.97C856.69 1366.97 856.618 1367.01 856.546 1367.08L852.418 1371.24C852.31 1371.28 852.273 1371.39 852.273 1371.5V1376.67C852.273 1376.78 852.31 1376.89 852.418 1376.96L862.99 1384.86V1385.98L861.289 1387.72H858.537L856.799 1385.98V1383.99C856.799 1383.81 856.654 1383.62 856.473 1383.62H852.635C852.418 1383.62 852.273 1383.81 852.273 1383.99V1387.72C852.273 1387.82 852.31 1387.93 852.382 1387.97L856.546 1392.13C856.582 1392.17 856.654 1392.21 856.69 1392.24H856.799H863.026C863.099 1392.24 863.207 1392.21 863.28 1392.13L867.407 1388.01C867.516 1387.93 867.552 1387.82 867.552 1387.72V1383.05C867.552 1382.94 867.48 1382.83 867.407 1382.76L856.799 1374.68V1373.23L858.537 1371.53H861.289L862.99 1373.23V1375.22C862.99 1375.44 863.171 1375.59 863.352 1375.59H867.19C867.407 1375.59 867.552 1375.44 867.552 1375.22V1371.5C867.552 1371.39 867.516 1371.31 867.443 1371.24L863.28 1367.08C863.244 1367.04 863.171 1367.01 863.135 1367.01C863.099 1366.97 863.063 1366.97 863.026 1366.97H856.799ZM871.912 1366.97C871.731 1366.97 871.55 1367.15 871.55 1367.33V1371.17C871.55 1371.35 871.731 1371.53 871.912 1371.53H876.076V1391.88C876.076 1392.1 876.22 1392.24 876.401 1392.24H880.239C880.456 1392.24 880.601 1392.1 880.601 1391.88V1371.53H884.729C884.946 1371.53 885.091 1371.35 885.091 1371.17V1367.33C885.091 1367.15 884.946 1366.97 884.729 1366.97H871.912ZM894.598 1366.97C894.417 1366.97 894.272 1367.08 894.236 1367.26L889.059 1391.81C889.059 1391.92 889.059 1392.02 889.131 1392.1C889.203 1392.21 889.312 1392.24 889.421 1392.24H893.258C893.403 1392.24 893.548 1392.13 893.584 1391.95L894.852 1385.98H900.138L901.368 1391.95C901.405 1392.13 901.55 1392.24 901.731 1392.24H905.568C905.677 1392.24 905.786 1392.21 905.822 1392.1C905.894 1392.02 905.93 1391.92 905.894 1391.81L900.717 1367.26C900.681 1367.08 900.536 1366.97 900.391 1366.97H894.598ZM897.495 1373.49L899.16 1381.45H895.829L897.495 1373.49ZM910.253 1366.97C910.072 1366.97 909.891 1367.15 909.891 1367.33V1371.17C909.891 1371.35 910.072 1371.53 910.253 1371.53H914.417V1391.88C914.417 1392.1 914.561 1392.24 914.742 1392.24H918.58C918.797 1392.24 918.942 1392.1 918.942 1391.88V1371.53H923.07C923.287 1371.53 923.432 1371.35 923.432 1371.17V1367.33C923.432 1367.15 923.287 1366.97 923.07 1366.97H910.253ZM927.762 1366.97C927.544 1366.97 927.4 1367.15 927.4 1367.33V1391.88C927.4 1392.1 927.544 1392.24 927.762 1392.24H931.599C931.636 1392.24 931.672 1392.24 931.708 1392.21H939.347C939.565 1392.21 939.709 1392.06 939.709 1391.88V1388.04C939.709 1387.82 939.565 1387.68 939.347 1387.68H931.925V1382.14H938.587C938.768 1382.14 938.913 1382 938.913 1381.78V1377.98C938.913 1377.76 938.768 1377.61 938.587 1377.61H931.925V1371.53H939.347C939.565 1371.53 939.709 1371.35 939.709 1371.17V1367.33C939.709 1367.15 939.565 1366.97 939.347 1366.97H927.762ZM955.849 1366.97C955.668 1366.97 955.487 1367.15 955.487 1367.33V1371.17C955.487 1371.35 955.668 1371.53 955.849 1371.53H960.013V1391.88C960.013 1392.1 960.158 1392.24 960.339 1392.24H964.176C964.394 1392.24 964.538 1392.1 964.538 1391.88V1371.53H968.666C968.883 1371.53 969.028 1371.35 969.028 1371.17V1367.33C969.028 1367.15 968.883 1366.97 968.666 1366.97H955.849ZM973.358 1366.97C973.141 1366.97 972.996 1367.15 972.996 1367.33V1391.88C972.996 1392.1 973.141 1392.24 973.358 1392.24H977.196C977.377 1392.24 977.521 1392.1 977.521 1391.88V1367.33C977.521 1367.15 977.377 1366.97 977.196 1366.97H973.358ZM981.851 1366.97C981.67 1366.97 981.489 1367.15 981.489 1367.33V1371.17C981.489 1371.35 981.67 1371.53 981.851 1371.53H986.014V1391.88C986.014 1392.1 986.159 1392.24 986.34 1392.24H990.178C990.395 1392.24 990.54 1392.1 990.54 1391.88V1371.53H994.667C994.885 1371.53 995.029 1371.35 995.029 1371.17V1367.33C995.029 1367.15 994.885 1366.97 994.667 1366.97H981.851ZM1003.52 1387.68V1367.33C1003.52 1367.15 1003.38 1366.97 1003.2 1366.97H999.359C999.142 1366.97 998.997 1367.15 998.997 1367.33V1391.88C998.997 1392.1 999.142 1392.24 999.359 1392.24H1003.2H1003.27H1009.82C1010.04 1392.24 1010.18 1392.06 1010.18 1391.88V1388.04C1010.18 1387.86 1010.04 1387.68 1009.82 1387.68H1003.52ZM1014.53 1366.97C1014.32 1366.97 1014.17 1367.15 1014.17 1367.33V1391.88C1014.17 1392.1 1014.32 1392.24 1014.53 1392.24H1018.37C1018.41 1392.24 1018.44 1392.24 1018.48 1392.21H1026.12C1026.34 1392.21 1026.48 1392.06 1026.48 1391.88V1388.04C1026.48 1387.82 1026.34 1387.68 1026.12 1387.68H1018.7V1382.14H1025.36C1025.54 1382.14 1025.69 1382 1025.69 1381.78V1377.98C1025.69 1377.76 1025.54 1377.61 1025.36 1377.61H1018.7V1371.53H1026.12C1026.34 1371.53 1026.48 1371.35 1026.48 1371.17V1367.33C1026.48 1367.15 1026.34 1366.97 1026.12 1366.97H1014.53Z" fill="black"/>
    <path d="M829.593 1344.25C817.366 1344.25 808.535 1341.22 803.1 1335.16C797.666 1329.1 794.949 1319.33 794.949 1305.85V1292.68H821.442V1309.45C821.442 1316.14 823.584 1319.49 827.869 1319.49C830.273 1319.49 831.945 1318.81 832.885 1317.45C833.826 1315.98 834.296 1313.58 834.296 1310.24C834.296 1305.85 833.774 1302.24 832.728 1299.42C831.683 1296.49 830.325 1294.09 828.653 1292.21C827.085 1290.22 824.211 1287.19 820.031 1283.12L808.43 1271.52C799.443 1262.74 794.949 1253.02 794.949 1242.36C794.949 1230.86 797.561 1222.14 802.787 1216.18C808.117 1210.12 815.85 1207.09 825.988 1207.09C838.111 1207.09 846.837 1210.33 852.167 1216.81C857.497 1223.18 860.162 1233.21 860.162 1246.9H832.728L832.572 1237.66C832.572 1235.88 832.049 1234.47 831.004 1233.42C830.064 1232.38 828.705 1231.86 826.928 1231.86C824.838 1231.86 823.27 1232.43 822.225 1233.58C821.18 1234.73 820.658 1236.3 820.658 1238.28C820.658 1242.67 823.166 1247.22 828.182 1251.92L843.859 1266.97C847.516 1270.52 850.547 1273.92 852.951 1277.16C855.354 1280.3 857.288 1284.06 858.751 1288.45C860.214 1292.73 860.946 1297.85 860.946 1303.81C860.946 1317.08 858.49 1327.17 853.578 1334.06C848.77 1340.86 840.776 1344.25 829.593 1344.25ZM889.31 1343V1234.21H873.32V1208.34H932.263V1234.21H916.273V1343H889.31ZM944.096 1343L957.107 1208.34H1002.72L1015.58 1343H990.027L988.146 1321.21H971.843L970.275 1343H944.096ZM973.881 1299.73H986.108L980.151 1231.23H978.897L973.881 1299.73ZM1043.22 1343V1234.21H1027.23V1208.34H1086.18V1234.21H1070.19V1343H1043.22Z" fill="black"/>
    <path d="M456.117 1637.37C456.009 1637.37 455.936 1637.4 455.864 1637.48L451.737 1641.64C451.628 1641.68 451.592 1641.78 451.592 1641.89V1647.07C451.592 1647.18 451.628 1647.29 451.737 1647.36L462.309 1655.25V1656.38L460.607 1658.11H457.855L456.117 1656.38V1654.38C456.117 1654.2 455.973 1654.02 455.792 1654.02H451.954C451.737 1654.02 451.592 1654.2 451.592 1654.38V1658.11C451.592 1658.22 451.628 1658.33 451.7 1658.37L455.864 1662.53C455.9 1662.57 455.973 1662.6 456.009 1662.64H456.117H462.345C462.417 1662.64 462.526 1662.6 462.598 1662.53L466.726 1658.4C466.834 1658.33 466.87 1658.22 466.87 1658.11V1653.44C466.87 1653.33 466.798 1653.23 466.726 1653.15L456.117 1645.08V1643.63L457.855 1641.93H460.607L462.309 1643.63V1645.62C462.309 1645.84 462.49 1645.98 462.671 1645.98H466.508C466.726 1645.98 466.87 1645.84 466.87 1645.62V1641.89C466.87 1641.78 466.834 1641.71 466.762 1641.64L462.598 1637.48C462.562 1637.44 462.49 1637.4 462.453 1637.4C462.417 1637.37 462.381 1637.37 462.345 1637.37H456.117ZM471.23 1637.37C471.049 1637.37 470.868 1637.55 470.868 1637.73V1641.57C470.868 1641.75 471.049 1641.93 471.23 1641.93H475.394V1662.28C475.394 1662.49 475.539 1662.64 475.72 1662.64H479.558C479.775 1662.64 479.92 1662.49 479.92 1662.28V1641.93H484.047C484.264 1641.93 484.409 1641.75 484.409 1641.57V1637.73C484.409 1637.55 484.264 1637.37 484.047 1637.37H471.23ZM493.916 1637.37C493.735 1637.37 493.591 1637.48 493.554 1637.66L488.377 1662.2C488.377 1662.31 488.377 1662.42 488.449 1662.49C488.522 1662.6 488.63 1662.64 488.739 1662.64H492.577C492.722 1662.64 492.866 1662.53 492.903 1662.35L494.17 1656.38H499.456L500.687 1662.35C500.723 1662.53 500.868 1662.64 501.049 1662.64H504.887C504.995 1662.64 505.104 1662.6 505.14 1662.49C505.213 1662.42 505.249 1662.31 505.213 1662.2L500.035 1637.66C499.999 1637.48 499.854 1637.37 499.709 1637.37H493.916ZM496.813 1643.88L498.478 1651.85H495.147L496.813 1643.88ZM509.571 1637.37C509.39 1637.37 509.209 1637.55 509.209 1637.73V1641.57C509.209 1641.75 509.39 1641.93 509.571 1641.93H513.735V1662.28C513.735 1662.49 513.88 1662.64 514.061 1662.64H517.899C518.116 1662.64 518.261 1662.49 518.261 1662.28V1641.93H522.388C522.605 1641.93 522.75 1641.75 522.75 1641.57V1637.73C522.75 1637.55 522.605 1637.37 522.388 1637.37H509.571ZM527.08 1637.37C526.863 1637.37 526.718 1637.55 526.718 1637.73V1662.28C526.718 1662.49 526.863 1662.64 527.08 1662.64H530.918C530.954 1662.64 530.99 1662.64 531.026 1662.6H538.666C538.883 1662.6 539.028 1662.46 539.028 1662.28V1658.44C539.028 1658.22 538.883 1658.08 538.666 1658.08H531.244V1652.54H537.905C538.086 1652.54 538.231 1652.39 538.231 1652.18V1648.37C538.231 1648.16 538.086 1648.01 537.905 1648.01H531.244V1641.93H538.666C538.883 1641.93 539.028 1641.75 539.028 1641.57V1637.73C539.028 1637.55 538.883 1637.37 538.666 1637.37H527.08ZM555.168 1637.37C554.986 1637.37 554.805 1637.55 554.805 1637.73V1641.57C554.805 1641.75 554.986 1641.93 555.168 1641.93H559.331V1662.28C559.331 1662.49 559.476 1662.64 559.657 1662.64H563.495C563.712 1662.64 563.857 1662.49 563.857 1662.28V1641.93H567.984C568.201 1641.93 568.346 1641.75 568.346 1641.57V1637.73C568.346 1637.55 568.201 1637.37 567.984 1637.37H555.168ZM572.676 1637.37C572.459 1637.37 572.314 1637.55 572.314 1637.73V1662.28C572.314 1662.49 572.459 1662.64 572.676 1662.64H576.514C576.695 1662.64 576.84 1662.49 576.84 1662.28V1637.73C576.84 1637.55 576.695 1637.37 576.514 1637.37H572.676ZM581.169 1637.37C580.988 1637.37 580.807 1637.55 580.807 1637.73V1641.57C580.807 1641.75 580.988 1641.93 581.169 1641.93H585.333V1662.28C585.333 1662.49 585.477 1662.64 585.658 1662.64H589.496C589.713 1662.64 589.858 1662.49 589.858 1662.28V1641.93H593.986C594.203 1641.93 594.348 1641.75 594.348 1641.57V1637.73C594.348 1637.55 594.203 1637.37 593.986 1637.37H581.169ZM602.841 1658.08V1637.73C602.841 1637.55 602.696 1637.37 602.515 1637.37H598.678C598.46 1637.37 598.316 1637.55 598.316 1637.73V1662.28C598.316 1662.49 598.46 1662.64 598.678 1662.64H602.515H602.588H609.141C609.358 1662.64 609.503 1662.46 609.503 1662.28V1658.44C609.503 1658.26 609.358 1658.08 609.141 1658.08H602.841ZM613.853 1637.37C613.636 1637.37 613.491 1637.55 613.491 1637.73V1662.28C613.491 1662.49 613.636 1662.64 613.853 1662.64H617.691C617.727 1662.64 617.763 1662.64 617.799 1662.6H625.439C625.656 1662.6 625.801 1662.46 625.801 1662.28V1658.44C625.801 1658.22 625.656 1658.08 625.439 1658.08H618.016V1652.54H624.678C624.859 1652.54 625.004 1652.39 625.004 1652.18V1648.37C625.004 1648.16 624.859 1648.01 624.678 1648.01H618.016V1641.93H625.439C625.656 1641.93 625.801 1641.75 625.801 1641.57V1637.73C625.801 1637.55 625.656 1637.37 625.439 1637.37H613.853Z" fill="black"/>
    <path d="M428.912 1614.65C416.684 1614.65 407.853 1611.62 402.419 1605.56C396.984 1599.5 394.267 1589.73 394.267 1576.24V1563.08H420.76V1579.85C420.76 1586.54 422.902 1589.88 427.187 1589.88C429.591 1589.88 431.263 1589.2 432.204 1587.85C433.144 1586.38 433.614 1583.98 433.614 1580.63C433.614 1576.24 433.092 1572.64 432.047 1569.82C431.002 1566.89 429.643 1564.49 427.971 1562.61C426.403 1560.62 423.529 1557.59 419.349 1553.51L407.749 1541.91C398.761 1533.14 394.267 1523.42 394.267 1512.76C394.267 1501.26 396.88 1492.53 402.105 1486.58C407.435 1480.52 415.169 1477.48 425.306 1477.48C437.429 1477.48 446.155 1480.72 451.485 1487.2C456.815 1493.58 459.48 1503.61 459.48 1517.3H432.047L431.89 1508.05C431.89 1506.28 431.368 1504.87 430.322 1503.82C429.382 1502.78 428.023 1502.25 426.247 1502.25C424.156 1502.25 422.589 1502.83 421.544 1503.98C420.499 1505.13 419.976 1506.69 419.976 1508.68C419.976 1513.07 422.484 1517.62 427.501 1522.32L443.177 1537.37C446.835 1540.92 449.865 1544.32 452.269 1547.56C454.673 1550.69 456.606 1554.45 458.069 1558.84C459.532 1563.13 460.264 1568.25 460.264 1574.21C460.264 1587.48 457.808 1597.56 452.896 1604.46C448.089 1611.26 440.094 1614.65 428.912 1614.65ZM488.628 1613.4V1504.6H472.638V1478.74H531.581V1504.6H515.591V1613.4H488.628ZM543.414 1613.4L556.425 1478.74H602.043L614.898 1613.4H589.345L587.464 1591.61H571.161L569.593 1613.4H543.414ZM573.199 1570.13H585.426L579.469 1501.63H578.215L573.199 1570.13ZM642.543 1613.4V1504.6H626.553V1478.74H685.496V1504.6H669.506V1613.4H642.543Z" fill="black"/>
    <path d="M866.165 1637.37C866.056 1637.37 865.984 1637.4 865.911 1637.48L861.784 1641.64C861.675 1641.68 861.639 1641.78 861.639 1641.89V1647.07C861.639 1647.18 861.675 1647.29 861.784 1647.36L872.356 1655.25V1656.38L870.654 1658.11H867.903L866.165 1656.38V1654.38C866.165 1654.2 866.02 1654.02 865.839 1654.02H862.001C861.784 1654.02 861.639 1654.2 861.639 1654.38V1658.11C861.639 1658.22 861.675 1658.33 861.748 1658.37L865.911 1662.53C865.948 1662.57 866.02 1662.6 866.056 1662.64H866.165H872.392C872.465 1662.64 872.573 1662.6 872.646 1662.53L876.773 1658.4C876.882 1658.33 876.918 1658.22 876.918 1658.11V1653.44C876.918 1653.33 876.845 1653.23 876.773 1653.15L866.165 1645.08V1643.63L867.903 1641.93H870.654L872.356 1643.63V1645.62C872.356 1645.84 872.537 1645.98 872.718 1645.98H876.556C876.773 1645.98 876.918 1645.84 876.918 1645.62V1641.89C876.918 1641.78 876.882 1641.71 876.809 1641.64L872.646 1637.48C872.609 1637.44 872.537 1637.4 872.501 1637.4C872.465 1637.37 872.428 1637.37 872.392 1637.37H866.165ZM881.278 1637.37C881.097 1637.37 880.916 1637.55 880.916 1637.73V1641.57C880.916 1641.75 881.097 1641.93 881.278 1641.93H885.441V1662.28C885.441 1662.49 885.586 1662.64 885.767 1662.64H889.605C889.822 1662.64 889.967 1662.49 889.967 1662.28V1641.93H894.094C894.312 1641.93 894.456 1641.75 894.456 1641.57V1637.73C894.456 1637.55 894.312 1637.37 894.094 1637.37H881.278ZM903.964 1637.37C903.783 1637.37 903.638 1637.48 903.602 1637.66L898.424 1662.2C898.424 1662.31 898.424 1662.42 898.497 1662.49C898.569 1662.6 898.678 1662.64 898.786 1662.64H902.624C902.769 1662.64 902.914 1662.53 902.95 1662.35L904.217 1656.38H909.503L910.734 1662.35C910.77 1662.53 910.915 1662.64 911.096 1662.64H914.934C915.043 1662.64 915.151 1662.6 915.187 1662.49C915.26 1662.42 915.296 1662.31 915.26 1662.2L910.083 1637.66C910.046 1637.48 909.901 1637.37 909.757 1637.37H903.964ZM906.86 1643.88L908.526 1651.85H905.195L906.86 1643.88ZM919.619 1637.37C919.438 1637.37 919.257 1637.55 919.257 1637.73V1641.57C919.257 1641.75 919.438 1641.93 919.619 1641.93H923.782V1662.28C923.782 1662.49 923.927 1662.64 924.108 1662.64H927.946C928.163 1662.64 928.308 1662.49 928.308 1662.28V1641.93H932.435C932.653 1641.93 932.797 1641.75 932.797 1641.57V1637.73C932.797 1637.55 932.653 1637.37 932.435 1637.37H919.619ZM937.127 1637.37C936.91 1637.37 936.765 1637.55 936.765 1637.73V1662.28C936.765 1662.49 936.91 1662.64 937.127 1662.64H940.965C941.001 1662.64 941.038 1662.64 941.074 1662.6H948.713C948.93 1662.6 949.075 1662.46 949.075 1662.28V1658.44C949.075 1658.22 948.93 1658.08 948.713 1658.08H941.291V1652.54H947.953C948.134 1652.54 948.279 1652.39 948.279 1652.18V1648.37C948.279 1648.16 948.134 1648.01 947.953 1648.01H941.291V1641.93H948.713C948.93 1641.93 949.075 1641.75 949.075 1641.57V1637.73C949.075 1637.55 948.93 1637.37 948.713 1637.37H937.127ZM965.215 1637.37C965.034 1637.37 964.853 1637.55 964.853 1637.73V1641.57C964.853 1641.75 965.034 1641.93 965.215 1641.93H969.379V1662.28C969.379 1662.49 969.523 1662.64 969.704 1662.64H973.542C973.759 1662.64 973.904 1662.49 973.904 1662.28V1641.93H978.032C978.249 1641.93 978.394 1641.75 978.394 1641.57V1637.73C978.394 1637.55 978.249 1637.37 978.032 1637.37H965.215ZM982.724 1637.37C982.506 1637.37 982.362 1637.55 982.362 1637.73V1662.28C982.362 1662.49 982.506 1662.64 982.724 1662.64H986.561C986.742 1662.64 986.887 1662.49 986.887 1662.28V1637.73C986.887 1637.55 986.742 1637.37 986.561 1637.37H982.724ZM991.216 1637.37C991.035 1637.37 990.854 1637.55 990.854 1637.73V1641.57C990.854 1641.75 991.035 1641.93 991.216 1641.93H995.38V1662.28C995.38 1662.49 995.525 1662.64 995.706 1662.64H999.544C999.761 1662.64 999.906 1662.49 999.906 1662.28V1641.93H1004.03C1004.25 1641.93 1004.4 1641.75 1004.4 1641.57V1637.73C1004.4 1637.55 1004.25 1637.37 1004.03 1637.37H991.216ZM1012.89 1658.08V1637.73C1012.89 1637.55 1012.74 1637.37 1012.56 1637.37H1008.73C1008.51 1637.37 1008.36 1637.55 1008.36 1637.73V1662.28C1008.36 1662.49 1008.51 1662.64 1008.73 1662.64H1012.56H1012.64H1019.19C1019.41 1662.64 1019.55 1662.46 1019.55 1662.28V1658.44C1019.55 1658.26 1019.41 1658.08 1019.19 1658.08H1012.89ZM1023.9 1637.37C1023.68 1637.37 1023.54 1637.55 1023.54 1637.73V1662.28C1023.54 1662.49 1023.68 1662.64 1023.9 1662.64H1027.74C1027.77 1662.64 1027.81 1662.64 1027.85 1662.6H1035.49C1035.7 1662.6 1035.85 1662.46 1035.85 1662.28V1658.44C1035.85 1658.22 1035.7 1658.08 1035.49 1658.08H1028.06V1652.54H1034.73C1034.91 1652.54 1035.05 1652.39 1035.05 1652.18V1648.37C1035.05 1648.16 1034.91 1648.01 1034.73 1648.01H1028.06V1641.93H1035.49C1035.7 1641.93 1035.85 1641.75 1035.85 1641.57V1637.73C1035.85 1637.55 1035.7 1637.37 1035.49 1637.37H1023.9Z" fill="black"/>
    <path d="M838.959 1614.65C826.731 1614.65 817.901 1611.62 812.466 1605.56C807.032 1599.5 804.314 1589.73 804.314 1576.24V1563.08H830.807V1579.85C830.807 1586.54 832.95 1589.88 837.235 1589.88C839.638 1589.88 841.31 1589.2 842.251 1587.85C843.192 1586.38 843.662 1583.98 843.662 1580.63C843.662 1576.24 843.139 1572.64 842.094 1569.82C841.049 1566.89 839.691 1564.49 838.018 1562.61C836.451 1560.62 833.577 1557.59 829.396 1553.51L817.796 1541.91C808.808 1533.14 804.314 1523.42 804.314 1512.76C804.314 1501.26 806.927 1492.53 812.153 1486.58C817.483 1480.52 825.216 1477.48 835.353 1477.48C847.476 1477.48 856.203 1480.72 861.533 1487.2C866.863 1493.58 869.528 1503.61 869.528 1517.3H842.094L841.937 1508.05C841.937 1506.28 841.415 1504.87 840.37 1503.82C839.429 1502.78 838.071 1502.25 836.294 1502.25C834.204 1502.25 832.636 1502.83 831.591 1503.98C830.546 1505.13 830.024 1506.69 830.024 1508.68C830.024 1513.07 832.532 1517.62 837.548 1522.32L853.224 1537.37C856.882 1540.92 859.913 1544.32 862.317 1547.56C864.72 1550.69 866.654 1554.45 868.117 1558.84C869.58 1563.13 870.311 1568.25 870.311 1574.21C870.311 1587.48 867.855 1597.56 862.944 1604.46C858.136 1611.26 850.141 1614.65 838.959 1614.65ZM898.676 1613.4V1504.6H882.686V1478.74H941.628V1504.6H925.639V1613.4H898.676ZM953.461 1613.4L966.473 1478.74H1012.09L1024.95 1613.4H999.393L997.512 1591.61H981.208L979.641 1613.4H953.461ZM983.246 1570.13H995.474L989.517 1501.63H988.263L983.246 1570.13ZM1052.59 1613.4V1504.6H1036.6V1478.74H1095.54V1504.6H1079.55V1613.4H1052.59Z" fill="black"/>
    <rect x="477.318" y="722.318" width="540.636" height="105.364" rx="18.4016" fill="white" stroke="black" stroke-width="8.63636"/>
    <path d="M527.296 801.431L529.886 787.656L527.344 787.668L527.316 781.422L531.074 781.405L531.83 777.477L528.845 777.491L528.817 771.245L533.018 771.226L535.447 758.392L543.13 758.357L540.645 771.191L545.122 771.171L547.607 758.336L555.234 758.302L552.805 771.136L555.292 771.125L555.321 777.371L551.618 777.388L550.862 781.315L553.791 781.302L553.819 787.548L549.674 787.567L547.028 801.342L539.4 801.376L542.046 787.601L537.514 787.622L534.923 801.397L527.296 801.431ZM538.757 781.37L543.234 781.35L543.935 777.422L539.458 777.443L538.757 781.37ZM587.76 801.599C583.744 801.617 580.643 800.507 578.459 798.27C576.275 795.995 575.173 792.757 575.154 788.556L575.056 767.111C575.036 762.615 576.071 759.184 578.16 756.816C580.25 754.448 583.377 753.255 587.54 753.236C591.741 753.217 594.897 754.382 597.008 756.73C599.119 759.079 600.185 762.501 600.205 766.997L600.303 788.442C600.322 792.68 599.25 795.927 597.086 798.185C594.922 800.443 591.813 801.581 587.76 801.599ZM587.72 792.866C588.42 792.863 588.99 792.547 589.43 791.919C589.869 791.253 590.086 790.479 590.082 789.594L589.976 766.159C589.97 764.795 589.799 763.764 589.464 763.066C589.166 762.33 588.538 761.965 587.58 761.969C586.622 761.973 585.997 762.345 585.706 763.083C585.414 763.784 585.272 764.817 585.278 766.18L585.384 789.616C585.388 790.5 585.594 791.273 586.003 791.934C586.448 792.559 587.02 792.869 587.72 792.866ZM632.759 801.395C628.743 801.413 625.643 800.303 623.458 798.065C621.274 795.791 620.172 792.553 620.153 788.352L620.056 766.907C620.035 762.411 621.07 758.98 623.16 756.612C625.249 754.244 628.376 753.051 632.54 753.032C636.74 753.013 639.896 754.177 642.007 756.526C644.118 758.875 645.184 762.297 645.205 766.793L645.302 788.238C645.321 792.476 644.249 795.723 642.085 797.981C639.921 800.238 636.813 801.376 632.759 801.395ZM632.72 792.662C633.42 792.659 633.989 792.343 634.429 791.714C634.868 791.049 635.086 790.274 635.082 789.39L634.975 765.955C634.969 764.591 634.799 763.56 634.464 762.862C634.166 762.126 633.537 761.76 632.579 761.765C631.621 761.769 630.997 762.14 630.705 762.879C630.414 763.58 630.271 764.613 630.277 765.976L630.383 789.411C630.387 790.296 630.594 791.069 631.002 791.73C631.447 792.354 632.02 792.665 632.72 792.662ZM677.759 801.191C673.742 801.209 670.642 800.099 668.458 797.861C666.273 795.586 665.171 792.349 665.152 788.148L665.055 766.702C665.035 762.207 666.069 758.775 668.159 756.408C670.249 754.04 673.375 752.846 677.539 752.828C681.74 752.808 684.896 753.973 687.007 756.322C689.118 758.671 690.183 762.093 690.204 766.588L690.301 788.034C690.32 792.271 689.248 795.519 687.084 797.777C684.92 800.034 681.812 801.172 677.759 801.191ZM677.719 792.458C678.419 792.454 678.989 792.139 679.428 791.51C679.867 790.845 680.085 790.07 680.081 789.186L679.975 765.75C679.968 764.387 679.798 763.356 679.463 762.657C679.165 761.922 678.537 761.556 677.579 761.561C676.621 761.565 675.996 761.936 675.705 762.674C675.413 763.376 675.27 764.408 675.276 765.772L675.383 789.207C675.387 790.091 675.593 790.864 676.001 791.526C676.446 792.15 677.019 792.461 677.719 792.458ZM722.758 800.986C718.741 801.005 715.641 799.895 713.457 797.657C711.272 795.382 710.171 792.145 710.152 787.944L710.054 766.498C710.034 762.003 711.069 758.571 713.158 756.203C715.248 753.836 718.375 752.642 722.538 752.623C726.739 752.604 729.895 753.769 732.006 756.118C734.117 758.467 735.183 761.889 735.203 766.384L735.301 787.83C735.32 792.067 734.247 795.315 732.084 797.572C729.92 799.83 726.811 800.968 722.758 800.986ZM722.718 792.253C723.418 792.25 723.988 791.934 724.427 791.306C724.867 790.641 725.084 789.866 725.08 788.982L724.974 765.546C724.968 764.183 724.797 763.152 724.462 762.453C724.164 761.718 723.536 761.352 722.578 761.356C721.62 761.361 720.995 761.732 720.704 762.47C720.412 763.172 720.27 764.204 720.276 765.568L720.382 789.003C720.386 789.887 720.592 790.66 721.001 791.322C721.446 791.946 722.018 792.257 722.718 792.253ZM767.757 800.782C763.741 800.8 760.64 799.691 758.456 797.453C756.272 795.178 755.17 791.94 755.151 787.74L755.054 766.294C755.033 761.799 756.068 758.367 758.158 755.999C760.247 753.631 763.374 752.438 767.538 752.419C771.738 752.4 774.894 753.565 777.005 755.914C779.116 758.262 780.182 761.684 780.202 766.18L780.3 787.626C780.319 791.863 779.247 795.111 777.083 797.368C774.919 799.626 771.811 800.764 767.757 800.782ZM767.718 792.049C768.418 792.046 768.987 791.73 769.427 791.102C769.866 790.437 770.084 789.662 770.079 788.777L769.973 765.342C769.967 763.979 769.796 762.948 769.462 762.249C769.164 761.513 768.535 761.148 767.577 761.152C766.619 761.156 765.995 761.528 765.703 762.266C765.412 762.968 765.269 764 765.275 765.363L765.381 788.799C765.385 789.683 765.592 790.456 766 791.117C766.445 791.742 767.017 792.052 767.718 792.049ZM812.757 800.578C808.74 800.596 805.64 799.486 803.455 797.249C801.271 794.974 800.169 791.736 800.15 787.535L800.053 766.09C800.033 761.594 801.067 758.163 803.157 755.795C805.246 753.427 808.373 752.234 812.537 752.215C816.738 752.196 819.894 753.361 822.005 755.709C824.116 758.058 825.181 761.48 825.202 765.976L825.299 787.421C825.318 791.659 824.246 794.906 822.082 797.164C819.918 799.422 816.81 800.56 812.757 800.578ZM812.717 791.845C813.417 791.842 813.987 791.526 814.426 790.898C814.865 790.232 815.083 789.458 815.079 788.573L814.972 765.138C814.966 763.774 814.796 762.743 814.461 762.045C814.163 761.309 813.535 760.944 812.577 760.948C811.619 760.952 810.994 761.324 810.702 762.062C810.411 762.763 810.268 763.796 810.274 765.159L810.381 788.594C810.385 789.479 810.591 790.252 810.999 790.913C811.444 791.538 812.017 791.848 812.717 791.845ZM850.458 763.374C849.835 764.15 848.953 764.781 847.813 765.265C846.71 765.749 845.642 765.994 844.611 765.998L844.576 758.426C846.196 758.161 847.796 757.508 849.376 756.47C850.993 755.43 852.147 754.08 852.84 752.419L860.468 752.384L860.683 799.918L850.624 799.964L850.458 763.374ZM881.735 797.557C881.725 795.383 882.047 793.373 882.702 791.527C883.394 789.682 884.234 788.02 885.222 786.541C886.21 785.063 887.511 783.325 889.123 781.328C890.772 779.257 892.072 777.501 893.023 776.059C894.012 774.618 894.833 772.974 895.488 771.129C896.18 769.246 896.521 767.218 896.511 765.044C896.505 763.754 896.316 762.76 895.945 762.062C895.573 761.327 894.908 760.961 893.95 760.966C892.365 760.973 891.58 762.395 891.592 765.232L891.619 771.036L881.615 771.081L881.491 768.152C881.474 764.541 881.829 761.573 882.556 759.248C883.282 756.924 884.564 755.149 886.401 753.925C888.238 752.7 890.777 752.081 894.02 752.066C898 752.048 901.082 753.158 903.266 755.396C905.45 757.597 906.551 760.743 906.57 764.833C906.582 767.449 906.224 769.827 905.497 771.968C904.806 774.071 903.93 775.918 902.869 777.507C901.844 779.096 900.471 780.963 898.749 783.108C897.503 784.625 896.459 785.975 895.616 787.157C894.811 788.34 894.08 789.56 893.422 790.815L906.356 790.757L906.396 799.711L881.745 799.823L881.735 797.557ZM938.133 800.12C933.969 800.138 930.924 799.065 928.998 796.9C927.072 794.698 926.099 791.349 926.078 786.853L926.056 781.879L935.784 781.835L935.806 786.809C935.813 788.246 936.002 789.369 936.374 790.178C936.746 790.951 937.485 791.334 938.59 791.329C939.364 791.326 939.916 791.047 940.245 790.492C940.611 789.938 940.829 789.292 940.899 788.555C940.969 787.781 941.001 786.675 940.995 785.238L940.99 784.077C940.971 779.987 939.617 777.948 936.927 777.96C936.448 777.963 936.135 777.982 935.987 778.02L935.949 769.508C937.644 769.5 938.913 769.126 939.758 768.385C940.602 767.608 941.02 766.39 941.012 764.732C941 762.042 940.22 760.7 938.673 760.707C937.714 760.712 937.089 760.954 936.797 761.434C936.541 761.915 936.359 762.523 936.252 763.261C936.182 763.998 936.129 764.533 936.094 764.864L936.1 766.302L926.262 766.346L926.199 764.688C926.216 760.34 927.233 757.148 929.251 755.112C931.268 753.039 934.377 751.994 938.578 751.975C946.647 751.938 950.701 756.139 950.74 764.577C950.751 767.046 950.428 769.019 949.772 770.496C949.115 771.936 947.977 772.954 946.359 773.551C947.688 774.208 948.668 775.033 949.299 776.025C949.967 776.98 950.396 778.157 950.587 779.557C950.814 780.956 950.933 782.835 950.944 785.193C950.966 790.094 949.951 793.802 947.899 796.317C945.884 798.832 942.628 800.099 938.133 800.12Z" fill="black"/>
</svg>
