<svg  viewBox="0 0 297 80" fill="none" xmlns="http://www.w3.org/2000/svg">
    <rect x="2.5" y="2.5" width="292" height="64" fill="#88D840" stroke="black" stroke-width="5"/>
    <rect x="2.5" y="71.5" width="292" height="6" fill="black" stroke="black" stroke-width="5"/>
    <path d="M99.6794 24.7754C99.6794 24.5813 99.5177 24.4519 99.3559 24.4519H95.9268C95.765 24.4519 95.6033 24.5813 95.6033 24.7754V41.4034L94.0828 42.9562H90.0714C89.8773 42.9562 89.7479 43.0856 89.7479 43.2474V46.6765C89.7479 46.8706 89.8773 47 90.0714 47H95.6356C95.7003 47 95.7974 46.9676 95.8621 46.9029L99.5177 43.2474C99.6147 43.215 99.6794 43.0856 99.6794 42.9886V24.7754ZM107.268 24.4195C107.171 24.4195 107.106 24.4519 107.041 24.5166L103.321 28.2369C103.256 28.3016 103.224 28.3986 103.224 28.4633V42.9562C103.224 43.0533 103.256 43.1503 103.321 43.1827L107.041 46.9029C107.073 46.9353 107.138 46.9676 107.171 47H107.268H112.897C112.994 47 113.058 46.9676 113.123 46.9029L116.843 43.1827C116.908 43.118 116.94 43.0533 116.94 42.9562V28.4633C116.94 28.3663 116.908 28.3016 116.843 28.2369L113.123 24.5166C113.091 24.4842 113.058 24.4519 113.026 24.4519L112.897 24.4195H107.268ZM111.344 42.9562H108.82L107.268 41.4034V30.0161L108.82 28.4957H111.344L112.897 30.0161V41.4034L111.344 42.9562ZM120.834 24.4195C120.64 24.4195 120.511 24.5813 120.511 24.743V46.6765C120.511 46.8706 120.64 47 120.834 47H124.264C124.425 47 124.555 46.8706 124.555 46.6765V24.743C124.555 24.5813 124.425 24.4195 124.264 24.4195H120.834ZM137.869 24.1931C137.707 24.1931 137.546 24.3225 137.546 24.5166V37.0361L132.143 24.3872C132.078 24.2578 131.981 24.1931 131.852 24.1931H128.423C128.229 24.1931 128.099 24.3225 128.099 24.5166V46.6765C128.099 46.8706 128.229 47 128.423 47H131.852C132.014 47 132.143 46.8706 132.143 46.6765V34.5452L137.578 46.7735C137.61 46.9029 137.74 47 137.869 47H141.298C141.46 47 141.622 46.8706 141.622 46.6765V24.5166C141.622 24.3225 141.46 24.1931 141.298 24.1931H137.869ZM159.736 42.9239V24.743C159.736 24.5813 159.606 24.4195 159.444 24.4195H156.015C155.821 24.4195 155.692 24.5813 155.692 24.743V46.6765C155.692 46.8706 155.821 47 156.015 47H159.444H159.509H165.365C165.559 47 165.688 46.8382 165.688 46.6765V43.2474C165.688 43.0856 165.559 42.9239 165.365 42.9239H159.736ZM169.575 24.4195C169.381 24.4195 169.251 24.5813 169.251 24.743V46.6765C169.251 46.8706 169.381 47 169.575 47H173.004C173.165 47 173.295 46.8706 173.295 46.6765V24.743C173.295 24.5813 173.165 24.4195 173.004 24.4195H169.575ZM180.883 24.4195C180.786 24.4195 180.722 24.4519 180.657 24.5166L176.969 28.2369C176.872 28.2692 176.84 28.3663 176.84 28.4633V33.0894C176.84 33.1865 176.872 33.2835 176.969 33.3482L186.415 40.4006V41.4034L184.895 42.9562H182.436L180.883 41.4034V39.6241C180.883 39.4624 180.754 39.3006 180.592 39.3006H177.163C176.969 39.3006 176.84 39.4624 176.84 39.6241V42.9562C176.84 43.0533 176.872 43.1503 176.937 43.1827L180.657 46.9029C180.689 46.9353 180.754 46.9676 180.786 47H180.883H186.448C186.512 47 186.609 46.9676 186.674 46.9029L190.362 43.215C190.459 43.1503 190.491 43.0533 190.491 42.9562V38.783C190.491 38.686 190.427 38.5889 190.362 38.5242L180.883 31.3101V30.0161L182.436 28.4957H184.895L186.415 30.0161V31.7954C186.415 31.9895 186.577 32.1189 186.739 32.1189H190.168C190.362 32.1189 190.491 31.9895 190.491 31.7954V28.4633C190.491 28.3663 190.459 28.3016 190.394 28.2369L186.674 24.5166C186.642 24.4842 186.577 24.4519 186.545 24.4519C186.512 24.4195 186.48 24.4195 186.448 24.4195H180.883ZM194.387 24.4195C194.225 24.4195 194.063 24.5813 194.063 24.743V28.1722C194.063 28.3339 194.225 28.4957 194.387 28.4957H198.107V46.6765C198.107 46.8706 198.237 47 198.398 47H201.828C202.022 47 202.151 46.8706 202.151 46.6765V28.4957H205.839C206.033 28.4957 206.162 28.3339 206.162 28.1722V24.743C206.162 24.5813 206.033 24.4195 205.839 24.4195H194.387Z" fill="black"/>
</svg>
