<svg viewBox="0 0 192 22" fill="none" xmlns="http://www.w3.org/2000/svg">
    <path d="M16.6689 19V6.22178H19.3784V16.7625H24.5614V19H16.6689ZM27.6851 19V6.22178H30.3946V19H27.6851ZM41.7954 6.22178H44.5311L40.1872 19H37.233L32.8978 6.22178H35.6335L38.0371 13.8258C38.1711 14.2744 38.308 14.7989 38.4479 15.399C38.5935 15.9934 38.6838 16.4071 38.7188 16.6401C38.7829 16.1041 39.0014 15.166 39.3743 13.8258L41.7954 6.22178ZM54.4023 19H47.043V6.22178H54.4023V8.4418H49.7525V11.2474H54.0789V13.4674H49.7525V16.7625H54.4023V19ZM75.1149 12.5934C75.1149 14.7085 74.5905 16.3342 73.5417 17.4705C72.4928 18.6067 70.9895 19.1748 69.0317 19.1748C67.0739 19.1748 65.5706 18.6067 64.5217 17.4705C63.4729 16.3342 62.9485 14.7027 62.9485 12.5759C62.9485 10.4491 63.4729 8.82637 64.5217 7.70762C65.5764 6.58304 67.0855 6.02075 69.0492 6.02075C71.0128 6.02075 72.5132 6.58595 73.5504 7.71636C74.5934 8.84676 75.1149 10.4724 75.1149 12.5934ZM65.7891 12.5934C65.7891 14.021 66.06 15.096 66.6019 15.8186C67.1438 16.5411 67.9537 16.9023 69.0317 16.9023C71.1934 16.9023 72.2743 15.466 72.2743 12.5934C72.2743 9.71496 71.1993 8.27573 69.0492 8.27573C67.9712 8.27573 67.1584 8.63991 66.6106 9.36826C66.0629 10.0908 65.7891 11.1658 65.7891 12.5934ZM89.9943 19H86.5506L80.9918 9.3333H80.9132C81.0239 11.0406 81.0792 12.2584 81.0792 12.9867V19H78.6582V6.22178H82.0756L87.6257 15.7923H87.6868C87.5994 14.1317 87.5557 12.9576 87.5557 12.27V6.22178H89.9943V19ZM102.369 11.8942H103.243C104.099 11.8942 104.731 11.7514 105.139 11.4659C105.547 11.1804 105.751 10.7317 105.751 10.1199C105.751 9.51393 105.541 9.08275 105.122 8.82637C104.708 8.56999 104.064 8.4418 103.19 8.4418H102.369V11.8942ZM102.369 14.0967V19H99.6592V6.22178H103.383C105.119 6.22178 106.404 6.53934 107.237 7.17446C108.07 7.80376 108.487 8.76227 108.487 10.05C108.487 10.8017 108.28 11.4717 107.866 12.0603C107.453 12.6429 106.867 13.1003 106.11 13.4325C108.032 16.3051 109.285 18.1609 109.868 19H106.861L103.811 14.0967H102.369ZM123.969 12.5934C123.969 14.7085 123.445 16.3342 122.396 17.4705C121.347 18.6067 119.844 19.1748 117.886 19.1748C115.928 19.1748 114.425 18.6067 113.376 17.4705C112.327 16.3342 111.803 14.7027 111.803 12.5759C111.803 10.4491 112.327 8.82637 113.376 7.70762C114.431 6.58304 115.94 6.02075 117.904 6.02075C119.867 6.02075 121.368 6.58595 122.405 7.71636C123.448 8.84676 123.969 10.4724 123.969 12.5934ZM114.643 12.5934C114.643 14.021 114.914 15.096 115.456 15.8186C115.998 16.5411 116.808 16.9023 117.886 16.9023C120.048 16.9023 121.129 15.466 121.129 12.5934C121.129 9.71496 120.054 8.27573 117.904 8.27573C116.826 8.27573 116.013 8.63991 115.465 9.36826C114.917 10.0908 114.643 11.1658 114.643 12.5934ZM130.222 12.2351H131.114C131.947 12.2351 132.57 12.0719 132.984 11.7456C133.398 11.4135 133.605 10.9328 133.605 10.3035C133.605 9.66834 133.43 9.19928 133.08 8.89629C132.736 8.59329 132.194 8.4418 131.454 8.4418H130.222V12.2351ZM136.34 10.2073C136.34 11.5825 135.909 12.6342 135.047 13.3625C134.19 14.0909 132.969 14.4551 131.385 14.4551H130.222V19H127.513V6.22178H131.594C133.144 6.22178 134.321 6.55682 135.125 7.2269C135.935 7.89116 136.34 8.88463 136.34 10.2073ZM147.19 15.4515C147.19 16.6052 146.774 17.5142 145.941 18.1784C145.113 18.8427 143.959 19.1748 142.479 19.1748C141.116 19.1748 139.91 18.9184 138.861 18.4057V15.8885C139.723 16.273 140.452 16.544 141.046 16.7013C141.646 16.8586 142.194 16.9373 142.689 16.9373C143.283 16.9373 143.738 16.8237 144.053 16.5964C144.373 16.3692 144.533 16.0312 144.533 15.5826C144.533 15.332 144.463 15.1106 144.324 14.9183C144.184 14.7202 143.977 14.5308 143.703 14.3502C143.435 14.1696 142.884 13.8811 142.051 13.4849C141.27 13.1178 140.685 12.7653 140.294 12.4273C139.904 12.0894 139.592 11.6961 139.359 11.2474C139.126 10.7987 139.01 10.2743 139.01 9.67417C139.01 8.54377 139.391 7.65517 140.154 7.0084C140.924 6.36162 141.984 6.03823 143.336 6.03823C144 6.03823 144.632 6.11689 145.233 6.27422C145.839 6.43154 146.471 6.65296 147.129 6.93848L146.255 9.04487C145.573 8.76518 145.008 8.56999 144.56 8.45928C144.117 8.34857 143.68 8.29321 143.249 8.29321C142.736 8.29321 142.342 8.41266 142.069 8.65156C141.795 8.89046 141.658 9.2022 141.658 9.58677C141.658 9.82567 141.713 10.0354 141.824 10.2161C141.935 10.3909 142.109 10.5628 142.348 10.7317C142.593 10.8949 143.167 11.1921 144.07 11.6232C145.265 12.1943 146.083 12.7682 146.526 13.3451C146.969 13.9161 147.19 14.6182 147.19 15.4515ZM155.331 19H152.622V8.47676H149.152V6.22178H158.801V8.47676H155.331V19ZM169.022 19H161.662V6.22178H169.022V8.4418H164.372V11.2474H168.698V13.4674H164.372V16.7625H169.022V19ZM183.927 19H180.484L174.925 9.3333H174.846C174.957 11.0406 175.012 12.2584 175.012 12.9867V19H172.591V6.22178H176.009L181.559 15.7923H181.62C181.532 14.1317 181.489 12.9576 181.489 12.27V6.22178H183.927V19Z" fill="#508C1D"/>
    <circle cx="3.5" cy="12.5" r="3.5" fill="#508C1D"/>
</svg>
