<svg viewBox="0 0 424 256" fill="none" xmlns="http://www.w3.org/2000/svg">
    <rect x="79.1673" y="5.28405" width="265.665" height="108.467" fill="white" stroke="#88D840" stroke-width="9.43191"/>
    <rect x="5.28405" y="80.7393" width="413.432" height="126.545" fill="white" stroke="#88D840" stroke-width="9.43191"/>
    <path d="M32.9341 216.716H16.7809L30.3967 225.407L68.9103 249.991L70.0709 250.731H71.4477H352.553H353.93L355.09 249.991L393.604 225.407L407.22 216.716H391.066H32.9341Z" fill="#508C1D" stroke="#508C1D" stroke-width="9.43191"/>
    <rect x="83.8833" y="10" width="256.233" height="99.035" fill="black"/>
    <rect x="10" y="85.4553" width="404" height="117.113" fill="black"/>
    <path d="M139.091 31.2218C138.62 31.2218 138.148 31.5991 138.148 32.165V68.6665L122.397 31.7877C122.208 31.4104 121.925 31.2218 121.548 31.2218H111.55C110.984 31.2218 110.607 31.5991 110.607 32.165V96.7735C110.607 97.3395 110.984 97.7167 111.55 97.7167H121.548C122.02 97.7167 122.397 97.3395 122.397 96.7735V61.4039L138.242 97.0565C138.337 97.4338 138.714 97.7167 139.091 97.7167H149.089C149.561 97.7167 150.032 97.3395 150.032 96.7735V32.165C150.032 31.5991 149.561 31.2218 149.089 31.2218H139.091Z" fill="white"/>
    <path d="M161.307 31.882C160.741 31.882 160.364 32.3536 160.364 32.8252V96.7735C160.364 97.3395 160.741 97.7167 161.307 97.7167H171.305C171.777 97.7167 172.154 97.3395 172.154 96.7735V32.8252C172.154 32.3536 171.777 31.882 171.305 31.882H161.307Z" fill="white"/>
    <path d="M183.432 31.882C182.866 31.882 182.488 32.3536 182.488 32.8252V96.7735C182.488 97.3395 182.866 97.7167 183.432 97.7167H193.429C193.901 97.7167 194.278 97.3395 194.278 96.7735V71.4017H211.633C212.105 71.4017 212.482 71.0244 212.482 70.4585V60.555C212.482 59.9891 212.105 59.6118 211.633 59.6118H194.278V43.7662H213.614C214.18 43.7662 214.557 43.2946 214.557 42.823V32.8252C214.557 32.3536 214.18 31.882 213.614 31.882H183.432Z" fill="white"/>
    <path d="M225.912 31.882C225.44 31.882 224.969 32.3536 224.969 32.8252V42.823C224.969 43.2946 225.44 43.7662 225.912 43.7662H236.759V96.7735C236.759 97.3395 237.136 97.7167 237.608 97.7167H247.605C248.171 97.7167 248.549 97.3395 248.549 96.7735V43.7662H259.301C259.867 43.7662 260.244 43.2946 260.244 42.823V32.8252C260.244 32.3536 259.867 31.882 259.301 31.882H225.912Z" fill="white"/>
    <path d="M302.178 31.9764C301.895 31.9764 301.518 32.2593 301.329 32.5423L292.18 54.9902L282.937 32.5423C282.842 32.2593 282.465 31.9764 282.088 31.9764H271.524C271.241 31.9764 270.864 32.165 270.77 32.448C270.581 32.6366 270.581 33.0139 270.675 33.2968L286.238 70.1756V96.8679C286.238 97.4338 286.709 97.8111 287.181 97.8111H297.179C297.65 97.8111 298.122 97.4338 298.122 96.8679V70.0813L313.685 33.2968C313.779 33.0139 313.779 32.6366 313.59 32.448C313.402 32.165 313.119 31.9764 312.836 31.9764H302.178Z" fill="white"/>
    <path d="M32.951 114.223C32.3851 114.223 32.0078 114.694 32.0078 115.166V179.114C32.0078 179.68 32.3851 180.057 32.951 180.057H42.9488C43.4204 180.057 43.7977 179.68 43.7977 179.114V153.742H61.1524C61.624 153.742 62.0013 153.365 62.0013 152.799V142.896C62.0013 142.33 61.624 141.952 61.1524 141.952H43.7977V126.107H63.1331C63.699 126.107 64.0763 125.635 64.0763 125.164V115.166C64.0763 114.694 63.699 114.223 63.1331 114.223H32.951Z" fill="white"/>
    <path d="M86.2781 114.223C85.9952 114.223 85.8065 114.317 85.6179 114.506L74.7712 125.352C74.5826 125.541 74.4882 125.824 74.4882 126.012V168.267C74.4882 168.55 74.5826 168.833 74.7712 168.928L85.6179 179.774C85.7122 179.869 85.9008 179.963 85.9952 180.057H102.69C102.973 180.057 103.161 179.963 103.35 179.774L114.197 168.928C114.385 168.739 114.48 168.55 114.48 168.267V126.012C114.48 125.73 114.385 125.541 114.197 125.352L103.35 114.506C103.256 114.411 103.161 114.317 103.067 114.317L102.69 114.223H86.2781ZM98.1623 168.267H90.8054L86.2781 163.74V130.54L90.8054 126.107H98.1623L102.69 130.54V163.74L98.1623 168.267Z" fill="white"/>
    <path d="M136.68 114.223C136.397 114.223 136.208 114.317 136.02 114.506L125.173 125.352C124.984 125.541 124.89 125.824 124.89 126.012V168.267C124.89 168.55 124.984 168.833 125.173 168.928L136.02 179.774C136.114 179.869 136.303 179.963 136.397 180.057H153.091C153.374 180.057 153.563 179.963 153.752 179.774L164.598 168.928C164.787 168.739 164.881 168.55 164.881 168.267V126.012C164.881 125.73 164.787 125.541 164.598 125.352L153.752 114.506C153.657 114.411 153.563 114.317 153.469 114.317L153.091 114.223H136.68ZM148.564 168.267H141.207L136.68 163.74V130.54L141.207 126.107H148.564L153.091 130.54V163.74L148.564 168.267Z" fill="white"/>
    <path d="M176.235 114.223C175.763 114.223 175.292 114.694 175.292 115.166V125.164C175.292 125.635 175.763 126.107 176.235 126.107H187.082V179.114C187.082 179.68 187.459 180.057 187.93 180.057H197.928C198.494 180.057 198.872 179.68 198.872 179.114V126.107H209.624C210.19 126.107 210.567 125.635 210.567 125.164V115.166C210.567 114.694 210.19 114.223 209.624 114.223H176.235Z" fill="white"/>
    <path d="M221.847 114.223C221.281 114.223 220.904 114.694 220.904 115.166V179.114C220.904 179.68 221.281 180.057 221.847 180.057H247.408C247.596 180.057 247.879 179.963 248.068 179.774L258.914 168.928C259.103 168.739 259.197 168.55 259.197 168.267V152.327C259.197 152.045 259.009 151.762 258.82 151.667L254.387 147.14L258.914 142.613C259.103 142.424 259.197 142.235 259.197 141.952V126.012C259.197 125.73 259.009 125.541 258.82 125.352L248.068 114.506C247.879 114.411 247.785 114.317 247.596 114.317C247.596 114.223 247.502 114.223 247.408 114.223H221.847ZM242.88 141.952H232.694V126.107H242.88L247.313 130.54V137.425L242.88 141.952ZM242.88 168.267H232.694V153.742H244.201L247.313 156.855V163.74L242.88 168.267Z" fill="white"/>
    <path d="M283.986 114.223C283.515 114.223 283.137 114.506 283.043 114.977L269.556 178.925C269.556 179.208 269.556 179.491 269.744 179.68C269.933 179.963 270.216 180.057 270.499 180.057H280.497C280.874 180.057 281.251 179.774 281.345 179.303L284.647 163.74H298.417L301.624 179.303C301.718 179.774 302.096 180.057 302.567 180.057H312.565C312.848 180.057 313.131 179.963 313.225 179.68C313.414 179.491 313.508 179.208 313.414 178.925L299.926 114.977C299.832 114.506 299.455 114.223 299.077 114.223H283.986ZM291.532 131.2L295.871 151.95H287.193L291.532 131.2Z" fill="white"/>
    <path d="M335.616 168.173V115.166C335.616 114.694 335.238 114.223 334.767 114.223H324.769C324.203 114.223 323.826 114.694 323.826 115.166V179.114C323.826 179.68 324.203 180.057 324.769 180.057H352.027C352.593 180.057 352.97 179.586 352.97 179.114V169.116C352.97 168.645 352.593 168.173 352.027 168.173H335.616Z" fill="white"/>
    <path d="M375.149 168.173V115.166C375.149 114.694 374.771 114.223 374.3 114.223H364.302C363.736 114.223 363.359 114.694 363.359 115.166V179.114C363.359 179.68 363.736 180.057 364.302 180.057H391.56C392.126 180.057 392.503 179.586 392.503 179.114V169.116C392.503 168.645 392.126 168.173 391.56 168.173H375.149Z" fill="white"/>
</svg>
