<?xml version="1.0" encoding="utf-8"?>

<svg version="1.1"
     xmlns="http://www.w3.org/2000/svg" xmlns:xlink="http://www.w3.org/1999/xlink" x="0px" y="0px"
     viewBox="0 0 992.13 1483.32"
     style="enable-background:new 0 0 992.13 1483.32;" xml:space="preserve">

    <style type="text/css">
        .Name{font-family:'Anton', sans-serif;}
        .Name{font-size:58px;}
</style>
    <switch>
	<g>
        <g id="Card">
			<g>
				<g>
					<g>
						<path class="Background" fill="#247209" d="M879.32,59.64h-768.3c-44.93,0-81.35,36.42-81.35,81.35v1221.47c0,44.93,36.42,81.35,81.35,81.35h768.3
							c44.93,0,81.35-36.42,81.35-81.35V140.99C960.67,96.06,924.25,59.64,879.32,59.64z"/>
					</g>
				</g>
                <path opacity="1" fill="#247209" class="Footer" d="M960.67,1362.46v-81.73h-931v81.73c0,44.93,36.42,81.35,81.35,81.35h768.3
					C924.25,1443.81,960.67,1407.39,960.67,1362.46z"/>
                <g id="Nifty_Logo-Copy" transform="translate(358,560) scale(0.50)">
        			<path d="M293.602,344.207 C385.794,342.439 465.07,401.254 493.43,484.052 C496.768,493.995 497.199,497.656 489.612,504.318 C462.909,529.005 431.416,548.625 396.644,561.603 C388.258,564.413 387.357,563.719 387.886,553.404 C387.917,552.088 387.923,550.764 387.898,549.435 C386.943,499.534 345.745,459.889 295.841,460.847 C245.94,461.805 206.296,503.003 207.256,552.905 C207.284,554.426 207.353,555.938 207.457,557.44 C208.115,563.648 204.457,562.788 199.273,561.677 C164.112,548.579 132.21,528.681 105.218,503.541 C99.143,498.382 97.97,494.948 101.85,483.687 C129.366,403.921 204.343,345.921 293.602,344.207"
                          id="Fill-2" fill="#DAD8DB"></path>
                    <path d="M191.298,364.875 C181.697,370.368 172.564,376.584 163.971,383.442 C156.612,389.827 154.042,386.478 150.04,382.808 L105.937,340.615 C103.839,338.608 100.604,339.886 102.091,344.152 L122.868,403.776 C125.391,417.176 126.05,421.952 120.148,430.737 C109.411,446.519 100.727,463.797 94.476,482.174 C93.367,485.173 91.148,489.207 87.003,484.952 C43.531,436.307 16.584,372.472 15.234,302.149 C14.369,256.899 24.19,213.926 42.38,175.641 C47.698,164.288 52.186,166.007 57.882,172.138 L88.5,206.915 L88.402,126.967 C88.378,112.086 90.189,103.968 104.145,90.922 C127.862,68.65 155.547,50.249 185.779,37.181 C197.528,32.14 198.393,39.76 198.393,46.385 L198.393,352.499 C198.393,358.551 198.342,360.574 191.298,364.875 L191.298,364.875 Z"
                          id="Fill-3" fill="#DAD8DB"></path>
                    <circle id="Oval-Copy-2" fill="#1A1919" cx="217.5" cy="93.5" r="9.5"></circle>
                    <g id="noun_Football_1496409" transform="translate(249.000000, 481.000000)" fill="#DAD8DB"
                       fill-rule="nonzero" stroke="#FFFFFF">
        		</g>
                    <path d="M287,126.169186 C316.820721,125.054094 347.932088,129.451114 380.334102,139.360245 C384.629097,140.200334 387.887935,143.934448 387.99717,148.44914 C387.999049,148.451943 388,148.453363 388,148.453363 C388,148.453363 388,206.32641 388,206.32641 C387.922075,211.231367 383.922554,215.183343 379,215.183343 C377.462368,215.183343 376.014798,214.797742 374.748715,214.117965 C344.305532,201.47095 315.055961,195.840596 287,197.226901 L287,329 L286.882248,329 C286.204597,333.272202 282.679047,336.596208 278.311816,336.9658 C278.315571,336.985723 278.318404,336.997123 278.320312,337 C256.497631,340.412763 237.822172,344.980595 222.293936,350.703496 C221.391714,351.231873 220.394539,351.615667 219.334212,351.823077 C219.182615,351.881935 219.031335,351.94091 218.880371,352 L218.773625,351.915362 C218.357026,351.971181 217.931879,352 217.5,352 C212.559196,352 208.49934,348.22821 208.042728,343.406926 L208,343.373047 L207.981553,321.797852 L208,321.797852 L208,47 L208,37.5 C208,33.1461929 210.928806,29.4764451 214.923687,28.3534859 L214.941406,28.3300781 C265.723138,9.37119685 320.854036,8.98680467 380.334102,27.1769016 C384.629097,28.016991 387.887935,31.7511049 387.99717,36.2657972 C387.999049,36.2686 388,36.2700195 388,36.2700195 C388,36.2700195 388,94.1430664 388,94.1430664 C387.922075,99.0480242 383.922554,103 379,103 C377.462368,103 376.014798,102.614399 374.748715,101.934622 C344.305532,89.2876073 315.055961,83.6572526 287,85.0435574 L287,126.169186 Z"
                          id="Combined-Shape" fill="#DAD8DB"></path>
                    <path d="M512.981553,208.058796 L512.981553,374.797852 L513,374.797852 L512.981633,484.527039 C512.993801,484.683092 513,484.840822 513,485 C513,488.313708 510.313708,491 507,491 C503.922755,491 501.386578,488.683413 501.040289,485.699057 L501,485.701416 C501,485.701416 495.718836,439.466797 437.475586,387.943359 C437.478296,387.939275 437.488811,387.920364 437.50713,387.886628 C435.724438,386.442965 434.474758,384.367018 434.099305,382 L433.981553,382 L433.981553,154.789092 C424.233938,151.009758 414.297704,148.08006 404.172852,146 C404.08701,145.982365 403.996643,145.953813 403.901749,145.914344 C400.557485,145.387366 398,142.492349 398,139 C398,138.994285 398.000007,138.988571 398.000021,138.98286 C397.934818,138.884061 397.869184,138.784222 397.803118,138.683343 L398,41.9868164 L398.020991,41.9737998 C398.288863,38.6300274 401.087294,36 404.5,36 C405.459245,36 406.369958,36.2077884 407.189585,36.5808102 C413.214888,38.7645669 416.227539,39.8564453 416.227539,39.8564453 C514.642253,90.5335286 569.233073,170.054688 580,278.419922 L579.783844,278.541205 C579.924399,279.002714 580,279.492528 580,280 C580,282.761424 577.761424,285 575,285 C573.513757,285 572.178971,284.351537 571.263138,283.322107 L571.176,283.371 C552.82727,253.539796 533.429121,228.435728 512.981553,208.058796 Z"
                          id="Combined-Shape" fill="#DAD8DB"></path>
    </g>
			</g>
		</g>

	</g>
</switch>
</svg>
