<svg viewBox="0 0 362 484" fill="none" xmlns="http://www.w3.org/2000/svg">
    <g filter="url(#filter0_d)">
        <rect x="50" y="37" width="276.667" height="415" rx="25.8913" fill="white"/>
        <rect x="129.493" y="182.409" width="118.278" height="48.291" fill="white" stroke="#88D840" stroke-width="4.19922"/>
        <rect x="96.5996" y="216.003" width="184.066" height="56.3395" fill="white" stroke="#88D840" stroke-width="4.19922"/>
        <path d="M108.909 276.542H101.718L107.779 280.411L124.926 291.356L125.443 291.686H126.056H251.208H251.821L252.338 291.356L269.484 280.411L275.546 276.542H268.355H108.909Z" fill="#508C1D" stroke="#508C1D" stroke-width="4.19922"/>
        <rect x="131.593" y="184.509" width="114.079" height="44.0918" fill="black"/>
        <rect x="98.6992" y="218.103" width="179.867" height="52.1403" fill="black"/>
        <path d="M156.174 193.957C155.964 193.957 155.754 194.125 155.754 194.377V210.628L148.741 194.209C148.657 194.041 148.531 193.957 148.363 193.957H143.912C143.66 193.957 143.492 194.125 143.492 194.377V223.142C143.492 223.394 143.66 223.562 143.912 223.562H148.363C148.573 223.562 148.741 223.394 148.741 223.142V207.395L155.796 223.268C155.838 223.436 156.006 223.562 156.174 223.562H160.625C160.835 223.562 161.045 223.394 161.045 223.142V194.377C161.045 194.125 160.835 193.957 160.625 193.957H156.174Z" fill="white"/>
        <path d="M166.065 194.251C165.813 194.251 165.645 194.461 165.645 194.671V223.142C165.645 223.394 165.813 223.562 166.065 223.562H170.516C170.726 223.562 170.894 223.394 170.894 223.142V194.671C170.894 194.461 170.726 194.251 170.516 194.251H166.065Z" fill="white"/>
        <path d="M175.915 194.251C175.663 194.251 175.495 194.461 175.495 194.671V223.142C175.495 223.394 175.663 223.562 175.915 223.562H180.366C180.576 223.562 180.744 223.394 180.744 223.142V211.846H188.47C188.68 211.846 188.848 211.678 188.848 211.426V207.017C188.848 206.765 188.68 206.597 188.47 206.597H180.744V199.542H189.352C189.604 199.542 189.772 199.332 189.772 199.122V194.671C189.772 194.461 189.604 194.251 189.352 194.251H175.915Z" fill="white"/>
        <path d="M194.828 194.251C194.618 194.251 194.408 194.461 194.408 194.671V199.122C194.408 199.332 194.618 199.542 194.828 199.542H199.657V223.142C199.657 223.394 199.825 223.562 200.035 223.562H204.486C204.738 223.562 204.906 223.394 204.906 223.142V199.542H209.693C209.945 199.542 210.113 199.332 210.113 199.122V194.671C210.113 194.461 209.945 194.251 209.693 194.251H194.828Z" fill="white"/>
        <path d="M228.782 194.293C228.656 194.293 228.488 194.419 228.404 194.545L224.331 204.539L220.216 194.545C220.174 194.419 220.006 194.293 219.838 194.293H215.135C215.009 194.293 214.841 194.377 214.799 194.503C214.715 194.587 214.715 194.755 214.757 194.881L221.686 211.3V223.184C221.686 223.436 221.896 223.604 222.106 223.604H226.557C226.767 223.604 226.977 223.436 226.977 223.184V211.258L233.905 194.881C233.947 194.755 233.947 194.587 233.863 194.503C233.779 194.377 233.653 194.293 233.527 194.293H228.782Z" fill="white"/>
        <path d="M108.918 230.91C108.666 230.91 108.498 231.12 108.498 231.33V259.801C108.498 260.053 108.666 260.221 108.918 260.221H113.369C113.579 260.221 113.747 260.053 113.747 259.801V248.505H121.474C121.684 248.505 121.852 248.337 121.852 248.085V243.676C121.852 243.424 121.684 243.256 121.474 243.256H113.747V236.201H122.355C122.607 236.201 122.775 235.991 122.775 235.781V231.33C122.775 231.12 122.607 230.91 122.355 230.91H108.918Z" fill="white"/>
        <path d="M132.66 230.91C132.534 230.91 132.45 230.952 132.366 231.036L127.537 235.865C127.453 235.949 127.411 236.075 127.411 236.159V254.972C127.411 255.098 127.453 255.224 127.537 255.266L132.366 260.095C132.408 260.137 132.492 260.179 132.534 260.221H139.967C140.093 260.221 140.177 260.179 140.261 260.095L145.09 255.266C145.174 255.182 145.216 255.098 145.216 254.972V236.159C145.216 236.033 145.174 235.949 145.09 235.865L140.261 231.036C140.219 230.994 140.177 230.952 140.135 230.952L139.967 230.91H132.66ZM137.951 254.972H134.676L132.66 252.956V238.175L134.676 236.201H137.951L139.967 238.175V252.956L137.951 254.972Z" fill="white"/>
        <path d="M155.1 230.91C154.974 230.91 154.89 230.952 154.806 231.036L149.976 235.865C149.893 235.949 149.851 236.075 149.851 236.159V254.972C149.851 255.098 149.893 255.224 149.976 255.266L154.806 260.095C154.848 260.137 154.932 260.179 154.974 260.221H162.406C162.532 260.221 162.616 260.179 162.7 260.095L167.529 255.266C167.613 255.182 167.655 255.098 167.655 254.972V236.159C167.655 236.033 167.613 235.949 167.529 235.865L162.7 231.036C162.658 230.994 162.616 230.952 162.574 230.952L162.406 230.91H155.1ZM160.391 254.972H157.115L155.1 252.956V238.175L157.115 236.201H160.391L162.406 238.175V252.956L160.391 254.972Z" fill="white"/>
        <path d="M172.71 230.91C172.5 230.91 172.29 231.12 172.29 231.33V235.781C172.29 235.991 172.5 236.201 172.71 236.201H177.539V259.801C177.539 260.053 177.707 260.221 177.917 260.221H182.368C182.62 260.221 182.788 260.053 182.788 259.801V236.201H187.575C187.827 236.201 187.995 235.991 187.995 235.781V231.33C187.995 231.12 187.827 230.91 187.575 230.91H172.71Z" fill="white"/>
        <path d="M193.017 230.91C192.765 230.91 192.597 231.12 192.597 231.33V259.801C192.597 260.053 192.765 260.221 193.017 260.221H204.397C204.481 260.221 204.607 260.179 204.691 260.095L209.52 255.266C209.604 255.182 209.646 255.098 209.646 254.972V247.875C209.646 247.749 209.562 247.623 209.478 247.581L207.505 245.565L209.52 243.55C209.604 243.466 209.646 243.382 209.646 243.256V236.159C209.646 236.033 209.562 235.949 209.478 235.865L204.691 231.036C204.607 230.994 204.565 230.952 204.481 230.952C204.481 230.91 204.439 230.91 204.397 230.91H193.017ZM202.381 243.256H197.846V236.201H202.381L204.355 238.175V241.24L202.381 243.256ZM202.381 254.972H197.846V248.505H202.969L204.355 249.891V252.956L202.381 254.972Z" fill="white"/>
        <path d="M220.683 230.91C220.473 230.91 220.305 231.036 220.263 231.246L214.258 259.717C214.258 259.843 214.258 259.969 214.342 260.053C214.426 260.179 214.552 260.221 214.678 260.221H219.129C219.297 260.221 219.465 260.095 219.507 259.885L220.976 252.956H227.107L228.535 259.885C228.577 260.095 228.745 260.221 228.955 260.221H233.406C233.532 260.221 233.658 260.179 233.7 260.053C233.784 259.969 233.826 259.843 233.784 259.717L227.779 231.246C227.737 231.036 227.569 230.91 227.401 230.91H220.683ZM224.042 238.469L225.974 247.707H222.11L224.042 238.469Z" fill="white"/>
        <path d="M243.669 254.93V231.33C243.669 231.12 243.501 230.91 243.291 230.91H238.84C238.588 230.91 238.42 231.12 238.42 231.33V259.801C238.42 260.053 238.588 260.221 238.84 260.221H250.975C251.227 260.221 251.395 260.011 251.395 259.801V255.35C251.395 255.14 251.227 254.93 250.975 254.93H243.669Z" fill="white"/>
        <path d="M261.269 254.93V231.33C261.269 231.12 261.101 230.91 260.891 230.91H256.44C256.188 230.91 256.02 231.12 256.02 231.33V259.801C256.02 260.053 256.188 260.221 256.44 260.221H268.576C268.828 260.221 268.996 260.011 268.996 259.801V255.35C268.996 255.14 268.828 254.93 268.576 254.93H261.269Z" fill="white"/>
    </g>
    <g filter="url(#filter1_d)">
        <rect x="32" y="20" width="276.667" height="415" rx="25.8913" fill="white"/>
        <rect x="111.493" y="165.409" width="118.278" height="48.291" fill="white" stroke="#88D840" stroke-width="4.19922"/>
        <rect x="78.5996" y="199.003" width="184.066" height="56.3395" fill="white" stroke="#88D840" stroke-width="4.19922"/>
        <path d="M90.9092 259.542H83.7175L89.7795 263.411L106.926 274.356L107.443 274.686H108.056H233.208H233.821L234.338 274.356L251.484 263.411L257.546 259.542H250.355H90.9092Z" fill="#508C1D" stroke="#508C1D" stroke-width="4.19922"/>
        <rect x="113.593" y="167.509" width="114.079" height="44.0918" fill="black"/>
        <rect x="80.6992" y="201.103" width="179.867" height="52.1403" fill="black"/>
        <path d="M138.174 176.957C137.964 176.957 137.754 177.125 137.754 177.377V193.628L130.741 177.209C130.657 177.041 130.531 176.957 130.363 176.957H125.912C125.66 176.957 125.492 177.125 125.492 177.377V206.142C125.492 206.394 125.66 206.562 125.912 206.562H130.363C130.573 206.562 130.741 206.394 130.741 206.142V190.395L137.796 206.268C137.838 206.436 138.006 206.562 138.174 206.562H142.625C142.835 206.562 143.045 206.394 143.045 206.142V177.377C143.045 177.125 142.835 176.957 142.625 176.957H138.174Z" fill="white"/>
        <path d="M148.065 177.251C147.813 177.251 147.645 177.461 147.645 177.671V206.142C147.645 206.394 147.813 206.562 148.065 206.562H152.516C152.726 206.562 152.894 206.394 152.894 206.142V177.671C152.894 177.461 152.726 177.251 152.516 177.251H148.065Z" fill="white"/>
        <path d="M157.915 177.251C157.663 177.251 157.495 177.461 157.495 177.671V206.142C157.495 206.394 157.663 206.562 157.915 206.562H162.366C162.576 206.562 162.744 206.394 162.744 206.142V194.846H170.47C170.68 194.846 170.848 194.678 170.848 194.426V190.017C170.848 189.765 170.68 189.597 170.47 189.597H162.744V182.542H171.352C171.604 182.542 171.772 182.332 171.772 182.122V177.671C171.772 177.461 171.604 177.251 171.352 177.251H157.915Z" fill="white"/>
        <path d="M176.828 177.251C176.618 177.251 176.408 177.461 176.408 177.671V182.122C176.408 182.332 176.618 182.542 176.828 182.542H181.657V206.142C181.657 206.394 181.825 206.562 182.035 206.562H186.486C186.738 206.562 186.906 206.394 186.906 206.142V182.542H191.693C191.945 182.542 192.113 182.332 192.113 182.122V177.671C192.113 177.461 191.945 177.251 191.693 177.251H176.828Z" fill="white"/>
        <path d="M210.782 177.293C210.656 177.293 210.488 177.419 210.404 177.545L206.331 187.539L202.216 177.545C202.174 177.419 202.006 177.293 201.838 177.293H197.135C197.009 177.293 196.841 177.377 196.799 177.503C196.715 177.587 196.715 177.755 196.757 177.881L203.686 194.3V206.184C203.686 206.436 203.896 206.604 204.106 206.604H208.557C208.767 206.604 208.977 206.436 208.977 206.184V194.258L215.905 177.881C215.947 177.755 215.947 177.587 215.863 177.503C215.779 177.377 215.653 177.293 215.527 177.293H210.782Z" fill="white"/>
        <path d="M90.918 213.91C90.666 213.91 90.498 214.12 90.498 214.33V242.801C90.498 243.053 90.666 243.221 90.918 243.221H95.3691C95.5791 243.221 95.7471 243.053 95.7471 242.801V231.505H103.474C103.684 231.505 103.852 231.337 103.852 231.085V226.676C103.852 226.424 103.684 226.256 103.474 226.256H95.7471V219.201H104.355C104.607 219.201 104.775 218.991 104.775 218.781V214.33C104.775 214.12 104.607 213.91 104.355 213.91H90.918Z" fill="white"/>
        <path d="M114.66 213.91C114.534 213.91 114.45 213.952 114.366 214.036L109.537 218.865C109.453 218.949 109.411 219.075 109.411 219.159V237.972C109.411 238.098 109.453 238.224 109.537 238.266L114.366 243.095C114.408 243.137 114.492 243.179 114.534 243.221H121.967C122.093 243.221 122.177 243.179 122.261 243.095L127.09 238.266C127.174 238.182 127.216 238.098 127.216 237.972V219.159C127.216 219.033 127.174 218.949 127.09 218.865L122.261 214.036C122.219 213.994 122.177 213.952 122.135 213.952L121.967 213.91H114.66ZM119.951 237.972H116.676L114.66 235.956V221.175L116.676 219.201H119.951L121.967 221.175V235.956L119.951 237.972Z" fill="white"/>
        <path d="M137.1 213.91C136.974 213.91 136.89 213.952 136.806 214.036L131.976 218.865C131.893 218.949 131.851 219.075 131.851 219.159V237.972C131.851 238.098 131.893 238.224 131.976 238.266L136.806 243.095C136.848 243.137 136.932 243.179 136.974 243.221H144.406C144.532 243.221 144.616 243.179 144.7 243.095L149.529 238.266C149.613 238.182 149.655 238.098 149.655 237.972V219.159C149.655 219.033 149.613 218.949 149.529 218.865L144.7 214.036C144.658 213.994 144.616 213.952 144.574 213.952L144.406 213.91H137.1ZM142.391 237.972H139.115L137.1 235.956V221.175L139.115 219.201H142.391L144.406 221.175V235.956L142.391 237.972Z" fill="white"/>
        <path d="M154.71 213.91C154.5 213.91 154.29 214.12 154.29 214.33V218.781C154.29 218.991 154.5 219.201 154.71 219.201H159.539V242.801C159.539 243.053 159.707 243.221 159.917 243.221H164.368C164.62 243.221 164.788 243.053 164.788 242.801V219.201H169.575C169.827 219.201 169.995 218.991 169.995 218.781V214.33C169.995 214.12 169.827 213.91 169.575 213.91H154.71Z" fill="white"/>
        <path d="M175.017 213.91C174.765 213.91 174.597 214.12 174.597 214.33V242.801C174.597 243.053 174.765 243.221 175.017 243.221H186.397C186.481 243.221 186.607 243.179 186.691 243.095L191.52 238.266C191.604 238.182 191.646 238.098 191.646 237.972V230.875C191.646 230.749 191.562 230.623 191.478 230.581L189.505 228.565L191.52 226.55C191.604 226.466 191.646 226.382 191.646 226.256V219.159C191.646 219.033 191.562 218.949 191.478 218.865L186.691 214.036C186.607 213.994 186.565 213.952 186.481 213.952C186.481 213.91 186.439 213.91 186.397 213.91H175.017ZM184.381 226.256H179.846V219.201H184.381L186.355 221.175V224.24L184.381 226.256ZM184.381 237.972H179.846V231.505H184.969L186.355 232.891V235.956L184.381 237.972Z" fill="white"/>
        <path d="M202.683 213.91C202.473 213.91 202.305 214.036 202.263 214.246L196.258 242.717C196.258 242.843 196.258 242.969 196.342 243.053C196.426 243.179 196.552 243.221 196.678 243.221H201.129C201.297 243.221 201.465 243.095 201.507 242.885L202.976 235.956H209.107L210.535 242.885C210.577 243.095 210.745 243.221 210.955 243.221H215.406C215.532 243.221 215.658 243.179 215.7 243.053C215.784 242.969 215.826 242.843 215.784 242.717L209.779 214.246C209.737 214.036 209.569 213.91 209.401 213.91H202.683ZM206.042 221.469L207.974 230.707H204.11L206.042 221.469Z" fill="white"/>
        <path d="M225.669 237.93V214.33C225.669 214.12 225.501 213.91 225.291 213.91H220.84C220.588 213.91 220.42 214.12 220.42 214.33V242.801C220.42 243.053 220.588 243.221 220.84 243.221H232.975C233.227 243.221 233.395 243.011 233.395 242.801V238.35C233.395 238.14 233.227 237.93 232.975 237.93H225.669Z" fill="white"/>
        <path d="M243.269 237.93V214.33C243.269 214.12 243.101 213.91 242.891 213.91H238.44C238.188 213.91 238.02 214.12 238.02 214.33V242.801C238.02 243.053 238.188 243.221 238.44 243.221H250.576C250.828 243.221 250.996 243.011 250.996 242.801V238.35C250.996 238.14 250.828 237.93 250.576 237.93H243.269Z" fill="white"/>
    </g>
    <g filter="url(#filter2_d)">
        <rect x="14" y="4" width="276.667" height="415" rx="25.8913" fill="white"/>
        <rect x="93.4932" y="149.409" width="118.278" height="48.291" fill="white" stroke="#88D840" stroke-width="4.19922"/>
        <rect x="60.5996" y="183.003" width="184.066" height="56.3395" fill="white" stroke="#88D840" stroke-width="4.19922"/>
        <path d="M72.9092 243.542H65.7175L71.7795 247.411L88.9263 258.356L89.443 258.686H90.056H215.208H215.821L216.338 258.356L233.484 247.411L239.546 243.542H232.355H72.9092Z" fill="#508C1D" stroke="#508C1D" stroke-width="4.19922"/>
        <rect x="95.5928" y="151.509" width="114.079" height="44.0918" fill="black"/>
        <rect x="62.6992" y="185.103" width="179.867" height="52.1403" fill="black"/>
        <path d="M120.174 160.957C119.964 160.957 119.754 161.125 119.754 161.377V177.628L112.741 161.209C112.657 161.041 112.531 160.957 112.363 160.957H107.912C107.66 160.957 107.492 161.125 107.492 161.377V190.142C107.492 190.394 107.66 190.562 107.912 190.562H112.363C112.573 190.562 112.741 190.394 112.741 190.142V174.395L119.796 190.268C119.838 190.436 120.006 190.562 120.174 190.562H124.625C124.835 190.562 125.045 190.394 125.045 190.142V161.377C125.045 161.125 124.835 160.957 124.625 160.957H120.174Z" fill="white"/>
        <path d="M130.065 161.251C129.813 161.251 129.645 161.461 129.645 161.671V190.142C129.645 190.394 129.813 190.562 130.065 190.562H134.516C134.726 190.562 134.894 190.394 134.894 190.142V161.671C134.894 161.461 134.726 161.251 134.516 161.251H130.065Z" fill="white"/>
        <path d="M139.915 161.251C139.663 161.251 139.495 161.461 139.495 161.671V190.142C139.495 190.394 139.663 190.562 139.915 190.562H144.366C144.576 190.562 144.744 190.394 144.744 190.142V178.846H152.47C152.68 178.846 152.848 178.678 152.848 178.426V174.017C152.848 173.765 152.68 173.597 152.47 173.597H144.744V166.542H153.352C153.604 166.542 153.772 166.332 153.772 166.122V161.671C153.772 161.461 153.604 161.251 153.352 161.251H139.915Z" fill="white"/>
        <path d="M158.828 161.251C158.618 161.251 158.408 161.461 158.408 161.671V166.122C158.408 166.332 158.618 166.542 158.828 166.542H163.657V190.142C163.657 190.394 163.825 190.562 164.035 190.562H168.486C168.738 190.562 168.906 190.394 168.906 190.142V166.542H173.693C173.945 166.542 174.113 166.332 174.113 166.122V161.671C174.113 161.461 173.945 161.251 173.693 161.251H158.828Z" fill="white"/>
        <path d="M192.782 161.293C192.656 161.293 192.488 161.419 192.404 161.545L188.331 171.539L184.216 161.545C184.174 161.419 184.006 161.293 183.838 161.293H179.135C179.009 161.293 178.841 161.377 178.799 161.503C178.715 161.587 178.715 161.755 178.757 161.881L185.686 178.3V190.184C185.686 190.436 185.896 190.604 186.106 190.604H190.557C190.767 190.604 190.977 190.436 190.977 190.184V178.258L197.905 161.881C197.947 161.755 197.947 161.587 197.863 161.503C197.779 161.377 197.653 161.293 197.527 161.293H192.782Z" fill="white"/>
        <path d="M72.918 197.91C72.666 197.91 72.498 198.12 72.498 198.33V226.801C72.498 227.053 72.666 227.221 72.918 227.221H77.3691C77.5791 227.221 77.7471 227.053 77.7471 226.801V215.505H85.4736C85.6836 215.505 85.8516 215.337 85.8516 215.085V210.676C85.8516 210.424 85.6836 210.256 85.4736 210.256H77.7471V203.201H86.3555C86.6074 203.201 86.7754 202.991 86.7754 202.781V198.33C86.7754 198.12 86.6074 197.91 86.3555 197.91H72.918Z" fill="white"/>
        <path d="M96.66 197.91C96.534 197.91 96.45 197.952 96.366 198.036L91.5369 202.865C91.4529 202.949 91.4109 203.075 91.4109 203.159V221.972C91.4109 222.098 91.4529 222.224 91.5369 222.266L96.366 227.095C96.408 227.137 96.492 227.179 96.534 227.221H103.967C104.093 227.221 104.177 227.179 104.261 227.095L109.09 222.266C109.174 222.182 109.216 222.098 109.216 221.972V203.159C109.216 203.033 109.174 202.949 109.09 202.865L104.261 198.036C104.219 197.994 104.177 197.952 104.135 197.952L103.967 197.91H96.66ZM101.951 221.972H98.6756L96.66 219.956V205.175L98.6756 203.201H101.951L103.967 205.175V219.956L101.951 221.972Z" fill="white"/>
        <path d="M119.1 197.91C118.974 197.91 118.89 197.952 118.806 198.036L113.976 202.865C113.893 202.949 113.851 203.075 113.851 203.159V221.972C113.851 222.098 113.893 222.224 113.976 222.266L118.806 227.095C118.848 227.137 118.932 227.179 118.974 227.221H126.406C126.532 227.221 126.616 227.179 126.7 227.095L131.529 222.266C131.613 222.182 131.655 222.098 131.655 221.972V203.159C131.655 203.033 131.613 202.949 131.529 202.865L126.7 198.036C126.658 197.994 126.616 197.952 126.574 197.952L126.406 197.91H119.1ZM124.391 221.972H121.115L119.1 219.956V205.175L121.115 203.201H124.391L126.406 205.175V219.956L124.391 221.972Z" fill="white"/>
        <path d="M136.71 197.91C136.5 197.91 136.29 198.12 136.29 198.33V202.781C136.29 202.991 136.5 203.201 136.71 203.201H141.539V226.801C141.539 227.053 141.707 227.221 141.917 227.221H146.368C146.62 227.221 146.788 227.053 146.788 226.801V203.201H151.575C151.827 203.201 151.995 202.991 151.995 202.781V198.33C151.995 198.12 151.827 197.91 151.575 197.91H136.71Z" fill="white"/>
        <path d="M157.017 197.91C156.765 197.91 156.597 198.12 156.597 198.33V226.801C156.597 227.053 156.765 227.221 157.017 227.221H168.397C168.481 227.221 168.607 227.179 168.691 227.095L173.52 222.266C173.604 222.182 173.646 222.098 173.646 221.972V214.875C173.646 214.749 173.562 214.623 173.478 214.581L171.505 212.565L173.52 210.55C173.604 210.466 173.646 210.382 173.646 210.256V203.159C173.646 203.033 173.562 202.949 173.478 202.865L168.691 198.036C168.607 197.994 168.565 197.952 168.481 197.952C168.481 197.91 168.439 197.91 168.397 197.91H157.017ZM166.381 210.256H161.846V203.201H166.381L168.355 205.175V208.24L166.381 210.256ZM166.381 221.972H161.846V215.505H166.969L168.355 216.891V219.956L166.381 221.972Z" fill="white"/>
        <path d="M184.683 197.91C184.473 197.91 184.305 198.036 184.263 198.246L178.258 226.717C178.258 226.843 178.258 226.969 178.342 227.053C178.426 227.179 178.552 227.221 178.678 227.221H183.129C183.297 227.221 183.465 227.095 183.507 226.885L184.976 219.956H191.107L192.535 226.885C192.577 227.095 192.745 227.221 192.955 227.221H197.406C197.532 227.221 197.658 227.179 197.7 227.053C197.784 226.969 197.826 226.843 197.784 226.717L191.779 198.246C191.737 198.036 191.569 197.91 191.401 197.91H184.683ZM188.042 205.469L189.974 214.707H186.11L188.042 205.469Z" fill="white"/>
        <path d="M207.669 221.93V198.33C207.669 198.12 207.501 197.91 207.291 197.91H202.84C202.588 197.91 202.42 198.12 202.42 198.33V226.801C202.42 227.053 202.588 227.221 202.84 227.221H214.975C215.227 227.221 215.395 227.011 215.395 226.801V222.35C215.395 222.14 215.227 221.93 214.975 221.93H207.669Z" fill="white"/>
        <path d="M225.269 221.93V198.33C225.269 198.12 225.101 197.91 224.891 197.91H220.44C220.188 197.91 220.02 198.12 220.02 198.33V226.801C220.02 227.053 220.188 227.221 220.44 227.221H232.576C232.828 227.221 232.996 227.011 232.996 226.801V222.35C232.996 222.14 232.828 221.93 232.576 221.93H225.269Z" fill="white"/>
    </g>
    <defs>
        <filter id="filter0_d" x="36" y="33" width="300.667" height="439" filterUnits="userSpaceOnUse" color-interpolation-filters="sRGB">
            <feFlood flood-opacity="0" result="BackgroundImageFix"/>
            <feColorMatrix in="SourceAlpha" type="matrix" values="0 0 0 0 0 0 0 0 0 0 0 0 0 0 0 0 0 0 127 0"/>
            <feOffset dx="-2" dy="8"/>
            <feGaussianBlur stdDeviation="6"/>
            <feColorMatrix type="matrix" values="0 0 0 0 0 0 0 0 0 0 0 0 0 0 0 0 0 0 0.3 0"/>
            <feBlend mode="normal" in2="BackgroundImageFix" result="effect1_dropShadow"/>
            <feBlend mode="normal" in="SourceGraphic" in2="effect1_dropShadow" result="shape"/>
        </filter>
        <filter id="filter1_d" x="18" y="16" width="300.667" height="439" filterUnits="userSpaceOnUse" color-interpolation-filters="sRGB">
            <feFlood flood-opacity="0" result="BackgroundImageFix"/>
            <feColorMatrix in="SourceAlpha" type="matrix" values="0 0 0 0 0 0 0 0 0 0 0 0 0 0 0 0 0 0 127 0"/>
            <feOffset dx="-2" dy="8"/>
            <feGaussianBlur stdDeviation="6"/>
            <feColorMatrix type="matrix" values="0 0 0 0 0 0 0 0 0 0 0 0 0 0 0 0 0 0 0.3 0"/>
            <feBlend mode="normal" in2="BackgroundImageFix" result="effect1_dropShadow"/>
            <feBlend mode="normal" in="SourceGraphic" in2="effect1_dropShadow" result="shape"/>
        </filter>
        <filter id="filter2_d" x="0" y="0" width="300.667" height="439" filterUnits="userSpaceOnUse" color-interpolation-filters="sRGB">
            <feFlood flood-opacity="0" result="BackgroundImageFix"/>
            <feColorMatrix in="SourceAlpha" type="matrix" values="0 0 0 0 0 0 0 0 0 0 0 0 0 0 0 0 0 0 127 0"/>
            <feOffset dx="-2" dy="8"/>
            <feGaussianBlur stdDeviation="6"/>
            <feColorMatrix type="matrix" values="0 0 0 0 0 0 0 0 0 0 0 0 0 0 0 0 0 0 0.3 0"/>
            <feBlend mode="normal" in2="BackgroundImageFix" result="effect1_dropShadow"/>
            <feBlend mode="normal" in="SourceGraphic" in2="effect1_dropShadow" result="shape"/>
        </filter>
    </defs>
</svg>
