<svg id="Layer_1" data-name="Layer 1" xmlns="http://www.w3.org/2000/svg" width="145.6mm" height="193.2533mm" viewBox="0 0 412.7244 547.8046"><defs><style>.cls-1{fill:#1d1d1b;}</style></defs><title>Stanley_chow_logo</title><path class="cls-1" d="M232.4269,205.1853H122.6036a30.4971,30.4971,0,0,1-30.4625-30.4629V101.4309a30.497,30.497,0,0,1,30.4625-30.4625h123.06a30.463,30.463,0,0,1,29.9779,35.8767l-13.2368,73.2915A30.4411,30.4411,0,0,1,232.4269,205.1853ZM122.6036,88.74a12.7055,12.7055,0,0,0-12.6914,12.6914v73.2915a12.7059,12.7059,0,0,0,12.6914,12.6918H232.4269a12.6825,12.6825,0,0,0,12.4892-10.4357l13.2368-73.2919a12.6917,12.6917,0,0,0-12.49-14.9471Z" transform="translate(-91.2756 -23.7355)"/><path class="cls-1" d="M472.6711,205.1853H363.5742A30.4818,30.4818,0,0,1,333.6358,180.35l-13.7752-73.2918a30.4632,30.4632,0,0,1,29.9384-36.09H472.6711a30.4975,30.4975,0,0,1,30.4634,30.4625v73.2915A30.4975,30.4975,0,0,1,472.6711,205.1853ZM349.799,88.74a12.6907,12.6907,0,0,0-12.4728,15.036l13.7752,73.2915a12.6993,12.6993,0,0,0,12.4728,10.3472H472.6711a12.7066,12.7066,0,0,0,12.6923-12.6918V101.4309A12.7063,12.7063,0,0,0,472.6711,88.74Z" transform="translate(-91.2756 -23.7355)"/><rect class="cls-1" x="174.5992" y="62.1778" width="61.0283" height="17.7711"/><circle class="cls-1" cx="174.6933" cy="232.681" r="13.0069"/><circle class="cls-1" cx="238.0311" cy="232.681" r="13.0069"/><path class="cls-1" d="M297.9688,275.618H249.06a78.7842,78.7842,0,0,0-78.7842,78.7842v76.5522h5.92a53.2759,53.2759,0,0,0,53.2759-53.2759v-31.832h0a68.4976,68.4976,0,0,0,68.4976-68.4976Z" transform="translate(-91.2756 -23.7355)"/><path class="cls-1" d="M297.3068,275.618h48.909A78.7842,78.7842,0,0,1,425,354.4022v76.5522h-5.92a53.2759,53.2759,0,0,1-53.2759-53.2759v-31.832h0a68.4976,68.4976,0,0,1-68.4976-68.4976Z" transform="translate(-91.2756 -23.7355)"/><polygon class="cls-1" points="206.362 425.459 252.476 370.812 160.249 370.812 206.362 425.459"/><path class="cls-1" d="M242.3281,338.2118H352.9475a0,0,0,0,1,0,0v0a19.1634,19.1634,0,0,1-19.1634,19.1634H261.4915a19.1634,19.1634,0,0,1-19.1634-19.1634v0a0,0,0,0,1,0,0Z" transform="translate(504 671.8516) rotate(180)"/><path class="cls-1" d="M77.0839,16.6516H167.712a0,0,0,0,1,0,0v0A31.9863,31.9863,0,0,1,135.7257,48.638H45.0976a0,0,0,0,1,0,0v0A31.9863,31.9863,0,0,1,77.0839,16.6516Z"/><path class="cls-1" d="M245.0124,0H335.64a31.9863,31.9863,0,0,1,31.9863,31.9863v0a0,0,0,0,1,0,0H276.9987A31.9863,31.9863,0,0,1,245.0124,0V0A0,0,0,0,1,245.0124,0Z"/><path d="M164.5606,556.11h5.52v15.1889h-5.52Z" transform="translate(-91.2756 -23.7355)"/><path d="M182.7116,556.11h5.52v10.3138h4.633v4.8751H182.7116Z" transform="translate(-91.2756 -23.7355)"/><path d="M204.4478,556.11h5.52v10.3138h4.633v4.8751H204.4478Z" transform="translate(-91.2756 -23.7355)"/><path d="M240.1646,556.11v8.9847a7.48,7.48,0,0,1-.5035,2.88,5.3159,5.3159,0,0,1-1.42,2.0038,5.8505,5.8505,0,0,1-2.2159,1.1794,11.1239,11.1239,0,0,1-5.7817,0,5.8416,5.8416,0,0,1-2.2159-1.1794,5.3041,5.3041,0,0,1-1.42-2.0038,7.47,7.47,0,0,1-.5035-2.88V556.11h5.52V564.57q0,.4424.03.846a2.0911,2.0911,0,0,0,.1712.7144,1.0723,1.0723,0,0,0,.4531.4945,2.1111,2.1111,0,0,0,1.7123,0,1.0761,1.0761,0,0,0,.4536-.4945,2.1169,2.1169,0,0,0,.1713-.7144q.03-.4032.03-.846V556.11Z" transform="translate(-91.2756 -23.7355)"/><path d="M253.5811,565.86l.2818.2211a8.1506,8.1506,0,0,0,1.6115.9866,4.2751,4.2751,0,0,0,1.8331.4037,2.87,2.87,0,0,0,.4536-.0408,1.4874,1.4874,0,0,0,.4632-.1508,1.12,1.12,0,0,0,.3527-.2824.6593.6593,0,0,0,.1406-.4332.646.646,0,0,0-.1207-.4128.7829.7829,0,0,0-.3022-.2313,1.8085,1.8085,0,0,0-.4026-.1213c-.148-.0261-.2824-.0533-.4032-.08l-1.1079-.2008a6.811,6.811,0,0,1-1.5309-.4536,4.4075,4.4075,0,0,1-1.269-.8165,3.6614,3.6614,0,0,1-.8561-1.1884,3.737,3.737,0,0,1-.3125-1.5706,4.97,4.97,0,0,1,.5642-2.3973,5.4837,5.4837,0,0,1,1.4907-1.7634,6.7379,6.7379,0,0,1,2.1053-1.0875A8.0012,8.0012,0,0,1,259,555.8669a9.1181,9.1181,0,0,1,4.8145,1.33l-1.4907,3.8874a8.2858,8.2858,0,0,0-1.5009-.8154,4.38,4.38,0,0,0-1.7021-.3322,2.1833,2.1833,0,0,0-.393.04,1.3771,1.3771,0,0,0-.3827.1316.9176.9176,0,0,0-.292.2415.61.61,0,0,0-.1208.3924.4879.4879,0,0,0,.1106.3425.8821.8821,0,0,0,.2824.2018,1.615,1.615,0,0,0,.3623.1214c.1276.0272.2449.0533.3527.0805l1.2491.2812a8.5051,8.5051,0,0,1,1.6114.5443,4.4938,4.4938,0,0,1,1.2792.8664,3.7611,3.7611,0,0,1,.8363,1.2486,4.3839,4.3839,0,0,1,.3017,1.6931,4.7956,4.7956,0,0,1-.5636,2.3769,5.3161,5.3161,0,0,1-1.4907,1.6919,6.4285,6.4285,0,0,1-2.1155,1.0172,8.9565,8.9565,0,0,1-2.4171.3323,12.8321,12.8321,0,0,1-3.0018-.372,13.1864,13.1864,0,0,1-2.8407-1.0183Z" transform="translate(-91.2756 -23.7355)"/><path d="M275.0554,556.11H286.66v4.9352l-3.0414-.1406v10.3943h-5.52V560.9042l-3.0425.1406Z" transform="translate(-91.2756 -23.7355)"/><path d="M298.1807,556.11h6.668a10.2414,10.2414,0,0,1,2.4381.2812,5.6475,5.6475,0,0,1,2.014.9174,4.4848,4.4848,0,0,1,1.37,1.6409,5.41,5.41,0,0,1,.5035,2.4382,5.6642,5.6642,0,0,1-.1712,1.49,3.0439,3.0439,0,0,1-.533,1.0886,3.1852,3.1852,0,0,1-.9174.7859,7.3956,7.3956,0,0,1-1.3189.584v.12q.2211.1616.4627.3629a2.3593,2.3593,0,0,1,.4638.5443l3.3034,4.9352h-6.3652l-2.4177-4.8751h-.101v4.8751h-5.399Zm5.399,6.7281h.3833a5.28,5.28,0,0,0,.6646-.0409,1.7482,1.7482,0,0,0,.584-.1712.9732.9732,0,0,0,.4128-.3822,1.3042,1.3042,0,0,0,.1519-.6747,1.4284,1.4284,0,0,0-.1417-.6951,1.0253,1.0253,0,0,0-.3822-.3924,1.4743,1.4743,0,0,0-.5647-.1815,5.4571,5.4571,0,0,0-.685-.0408h-.423Z" transform="translate(-91.2756 -23.7355)"/><path d="M327.9757,571.2985h-5.8424l5.2788-15.1889h6.1033l5.4194,15.1889h-5.8424l-.5035-1.8938h-4.17Zm3.6459-5.5-.6441-2.6786q-.1208-.4848-.2019-.9775c-.0533-.3289-.1077-.6543-.161-.9775h-.2007l-1.0082,4.6336Z" transform="translate(-91.2756 -23.7355)"/><path d="M347.4966,556.11H359.1v4.9352l-3.0414-.1406v10.3943h-5.52V560.9042l-3.0415.1406Z" transform="translate(-91.2756 -23.7355)"/><path d="M370.6634,556.11h5.5192v15.1889h-5.5192Z" transform="translate(-91.2756 -23.7355)"/><path d="M396.6708,555.8669a9.3521,9.3521,0,0,1,3.2626.5647,8.1393,8.1393,0,0,1,2.6694,1.591,7.5243,7.5243,0,0,1,1.8031,2.4779,8.3217,8.3217,0,0,1,0,6.5171,7.3193,7.3193,0,0,1-1.8031,2.4472,7.8752,7.8752,0,0,1-2.6694,1.5412,10.2354,10.2354,0,0,1-6.5263,0,7.8752,7.8752,0,0,1-2.6694-1.5412,7.3193,7.3193,0,0,1-1.8031-2.4472,8.3205,8.3205,0,0,1,0-6.5171,7.5243,7.5243,0,0,1,1.8031-2.4779,8.1393,8.1393,0,0,1,2.6694-1.591A9.353,9.353,0,0,1,396.6708,555.8669Zm0,4.9964a2.9186,2.9186,0,0,0-1.19.2314,2.5221,2.5221,0,0,0-.8856.6452,3.0773,3.0773,0,0,0-.5648.9469,3.2057,3.2057,0,0,0-.2007,1.1375,2.9025,2.9025,0,0,0,.7859,2.116,3.023,3.023,0,0,0,4.1085,0,2.9025,2.9025,0,0,0,.7859-2.116,3.2057,3.2057,0,0,0-.2007-1.1375,3.0773,3.0773,0,0,0-.5648-.9469,2.5321,2.5321,0,0,0-.8856-.6452A2.917,2.917,0,0,0,396.6708,560.8633Z" transform="translate(-91.2756 -23.7355)"/><path d="M415.4852,556.11h5.2981l4.9556,8.42h.1622q-.1615-.9661-.313-1.9335a12.4959,12.4959,0,0,1-.1508-1.9346V556.11h5.2777v15.1889h-5.2777l-4.8547-7.9777h-.161q.1395.7858.2415,1.5309a11.3323,11.3323,0,0,1,.1009,1.5116v4.9352h-5.2788Z" transform="translate(-91.2756 -23.7355)"/><path d="M94.8577,523.467l.5967.47a17.3612,17.3612,0,0,0,3.4115,2.09,9.0767,9.0767,0,0,0,3.88.8523,6.11,6.11,0,0,0,.9592-.0844,3.2026,3.2026,0,0,0,.9807-.32,2.3834,2.3834,0,0,0,.7465-.5979,1.3952,1.3952,0,0,0,.2983-.9165,1.3619,1.3619,0,0,0-.2555-.8736,1.6777,1.6777,0,0,0-.64-.491,3.7932,3.7932,0,0,0-.8523-.2555c-.3132-.0571-.5973-.1129-.8529-.1712l-2.3452-.4255a14.4212,14.4212,0,0,1-3.2409-.9593,9.3668,9.3668,0,0,1-2.6864-1.7271,7.8008,7.8008,0,0,1-1.8122-2.5165,7.9288,7.9288,0,0,1-.6609-3.3259A10.5389,10.5389,0,0,1,93.578,509.14a11.6067,11.6067,0,0,1,3.156-3.7312,14.2931,14.2931,0,0,1,4.4557-2.3025,16.9547,16.9547,0,0,1,5.1386-.7893,19.3137,19.3137,0,0,1,10.1911,2.8148l-3.1553,8.23a17.572,17.572,0,0,0-3.1767-1.7272,9.2489,9.2489,0,0,0-3.6035-.7037,4.4532,4.4532,0,0,0-.8315.0856,2.8575,2.8575,0,0,0-.81.277,1.946,1.946,0,0,0-.6182.5111,1.294,1.294,0,0,0-.2561.8321,1.0336,1.0336,0,0,0,.2347.7251,1.8732,1.8732,0,0,0,.5968.4255,3.4536,3.4536,0,0,0,.7678.2568c.27.057.5183.1129.7459.17l2.6436.5968a17.8538,17.8538,0,0,1,3.4115,1.1518,9.5037,9.5037,0,0,1,2.7078,1.8329,7.9478,7.9478,0,0,1,1.7694,2.6448,9.251,9.251,0,0,1,.64,3.5815,10.1436,10.1436,0,0,1-1.194,5.0316,11.231,11.231,0,0,1-3.1554,3.5815,13.6264,13.6264,0,0,1-4.4777,2.1539,18.9452,18.9452,0,0,1-5.1167.7037,27.2,27.2,0,0,1-6.354-.7893,27.98,27.98,0,0,1-6.0123-2.1539Z" transform="translate(-91.2756 -23.7355)"/><path d="M123.2562,502.8292h24.5616v10.4473l-6.4385-.2984v22.0024h-11.684V512.9781l-6.4391.2984Z" transform="translate(-91.2756 -23.7355)"/><path d="M161.2076,534.9805H148.8418l11.1718-32.1513h12.92l11.4707,32.1513H172.0388l-1.0663-4.0083h-8.8271Zm7.718-11.6407-1.3646-5.6712q-.2558-1.0234-.4261-2.0683t-.3411-2.0683h-.4268l-2.1319,9.8078Z" transform="translate(-91.2756 -23.7355)"/><path d="M190.9286,502.8292h11.2151l10.4894,17.8242h.3412q-.3414-2.0469-.6609-4.0938a26.4577,26.4577,0,0,1-.32-4.0938v-9.6366H223.166v32.1513H211.9936L201.717,518.0942h-.3412q.2977,1.6635.5117,3.2415a23.8644,23.8644,0,0,1,.2134,3.1975v10.4473H190.9286Z" transform="translate(-91.2756 -23.7355)"/><path d="M230.9262,502.8292H242.61v21.8324h9.8071v10.3189H230.9262Z" transform="translate(-91.2756 -23.7355)"/><path d="M259.7087,502.8292h21.6184v8.7843h-9.8493v3.07h8.9982v8.3575h-8.9982v3.1548H281.67v8.7843H259.7087Z" transform="translate(-91.2756 -23.7355)"/><path d="M300.9854,502.8292l3.5815,8.4h.3411q.2568-.7684.4909-1.5358a11.0151,11.0151,0,0,1,.5754-1.4918l2.3024-5.3728H321.41l-11.0012,18.2925v13.8588H298.9813V521.1217l-11.2151-18.2925Z" transform="translate(-91.2756 -23.7355)"/><path d="M373.8154,515.8773a15.6912,15.6912,0,0,0-3.1334-2.2811,7.5647,7.5647,0,0,0-3.7312-.9592,6.266,6.266,0,0,0-2.4736.49,6.5416,6.5416,0,0,0-2.0255,1.3432,6.2029,6.2029,0,0,0-1.3646,1.9827,6.0961,6.0961,0,0,0-.49,2.4522,5.8132,5.8132,0,0,0,.5326,2.4737,6.272,6.272,0,0,0,1.4287,1.9827,6.9539,6.9539,0,0,0,2.0683,1.3218,6.3957,6.3957,0,0,0,2.4939.49,8.0932,8.0932,0,0,0,3.667-.8095,12.1181,12.1181,0,0,0,3.0276-2.1752l-.3412,12.0258a8.5321,8.5321,0,0,1-1.8115.5753q-1.0876.2354-2.2609.4053t-2.3238.2342c-.7667.0428-1.4074.0642-1.9185.0642a16.3,16.3,0,0,1-11.5991-4.7119,15.949,15.949,0,0,1-3.4745-5.16,16.2433,16.2433,0,0,1-1.2576-6.4176,16.7134,16.7134,0,0,1,10.19-15.5645,16.5412,16.5412,0,0,1,6.61-1.3218,23.5133,23.5133,0,0,1,3.9868.3412,25.3422,25.3422,0,0,1,3.8584.9806Z" transform="translate(-91.2756 -23.7355)"/><path d="M382.2157,502.8292h11.2579V513.66h7.163V502.8292h11.2579v32.1513H400.6366V523.8081h-7.163v11.1724H382.2157Z" transform="translate(-91.2756 -23.7355)"/><path d="M434.7931,502.3169a19.8438,19.8438,0,0,1,6.9074,1.1946,17.2176,17.2176,0,0,1,5.65,3.3687,15.9016,15.9016,0,0,1,3.8169,5.2445,17.6041,17.6041,0,0,1,0,13.7945,15.5025,15.5025,0,0,1-3.8169,5.1814,16.7173,16.7173,0,0,1-5.65,3.2617,21.6712,21.6712,0,0,1-13.816,0,16.7057,16.7057,0,0,1-5.65-3.2617,15.5187,15.5187,0,0,1-3.8169-5.1814,17.6179,17.6179,0,0,1,0-13.7945,15.9186,15.9186,0,0,1,3.8169-5.2445,17.2053,17.2053,0,0,1,5.65-3.3687A19.8408,19.8408,0,0,1,434.7931,502.3169Zm0,10.5756a6.1794,6.1794,0,0,0-2.5164.49,5.3512,5.3512,0,0,0-1.8757,1.3646,6.4738,6.4738,0,0,0-1.1947,2.0041,6.7743,6.7743,0,0,0-.4255,2.4094,6.1374,6.1374,0,0,0,1.6629,4.4777,6.3978,6.3978,0,0,0,8.6987,0,6.142,6.142,0,0,0,1.663-4.4777,6.7749,6.7749,0,0,0-.4267-2.4094,6.494,6.494,0,0,0-1.1935-2.0041,5.3667,5.3667,0,0,0-1.8769-1.3646A6.1776,6.1776,0,0,0,434.7931,512.8925Z" transform="translate(-91.2756 -23.7355)"/><path d="M465.4941,502.8292l4.051,19.1888h.2556q.1712-1.4923.3839-2.9848a25.68,25.68,0,0,1,.5979-2.9431l3.41-13.2609h8.9555L487.54,522.018h.2556q.1284-1.4069.2984-2.8576a22.3211,22.3211,0,0,1,.5111-2.8136l3.2415-13.5176H504l-11.3435,32.1513h-10.19l-3.6671-17.483h-.3839q-.0855,1.2374-.1926,2.4522a15.5655,15.5655,0,0,1-.4041,2.4094l-3.2415,12.6214h-9.9349l-11.258-32.1513Z" transform="translate(-91.2756 -23.7355)"/><path class="cls-1" d="M153.6758,111.5776h65.2629a33.175,33.175,0,0,1,33.175,33.175v0a0,0,0,0,1,0,0H186.8508a33.175,33.175,0,0,1-33.175-33.175v0A0,0,0,0,1,153.6758,111.5776Z" transform="translate(314.514 232.5948) rotate(180)"/><path class="cls-1" d="M286.4615,87.8421h65.2629a0,0,0,0,1,0,0v0a33.175,33.175,0,0,1-33.175,33.175H253.2864a0,0,0,0,1,0,0v0A33.175,33.175,0,0,1,286.4615,87.8421Z"/></svg>