<svg width="297" height="80" viewBox="0 0 297 80" fill="none" xmlns="http://www.w3.org/2000/svg">
    <rect x="2.5" y="2.5" width="292" height="64" fill="black" stroke="#88D840" stroke-width="5"/>
    <rect x="2.5" y="71.5" width="292" height="6" fill="#508C1D" stroke="#508C1D" stroke-width="5"/>
    <path d="M31.8764 24.4195C31.7793 24.4195 31.7146 24.4519 31.6499 24.5166L27.962 28.2369C27.8649 28.2692 27.8326 28.3663 27.8326 28.4633V33.0894C27.8326 33.1865 27.8649 33.2835 27.962 33.3482L37.4083 40.4006V41.4034L35.8878 42.9562H33.4292L31.8764 41.4034V39.6241C31.8764 39.4624 31.747 39.3006 31.5852 39.3006H28.1561C27.962 39.3006 27.8326 39.4624 27.8326 39.6241V42.9562C27.8326 43.0533 27.8649 43.1503 27.9296 43.1827L31.6499 46.9029C31.6823 46.9353 31.747 46.9676 31.7793 47H31.8764H37.4406C37.5053 47 37.6024 46.9676 37.6671 46.9029L41.355 43.215C41.452 43.1503 41.4844 43.0533 41.4844 42.9562V38.783C41.4844 38.686 41.4197 38.5889 41.355 38.5242L31.8764 31.3101V30.0161L33.4292 28.4957H35.8878L37.4083 30.0161V31.7954C37.4083 31.9895 37.57 32.1189 37.7318 32.1189H41.1609C41.355 32.1189 41.4844 31.9895 41.4844 31.7954V28.4633C41.4844 28.3663 41.452 28.3016 41.3873 28.2369L37.6671 24.5166C37.6347 24.4842 37.57 24.4519 37.5377 24.4519C37.5053 24.4195 37.473 24.4195 37.4406 24.4195H31.8764ZM45.3801 24.4195C45.2183 24.4195 45.0566 24.5813 45.0566 24.743V28.1722C45.0566 28.3339 45.2183 28.4957 45.3801 28.4957H49.1003V46.6765C49.1003 46.8706 49.2297 47 49.3915 47H52.8206C53.0147 47 53.1441 46.8706 53.1441 46.6765V28.4957H56.832C57.0261 28.4957 57.1555 28.3339 57.1555 28.1722V24.743C57.1555 24.5813 57.0261 24.4195 56.832 24.4195H45.3801ZM65.6505 24.4195C65.4888 24.4195 65.3594 24.5166 65.327 24.6783L60.7009 46.6118C60.7009 46.7088 60.7009 46.8059 60.7656 46.8706C60.8303 46.9676 60.9274 47 61.0244 47H64.4536C64.583 47 64.7124 46.9029 64.7447 46.7412L65.877 41.4034H70.6001L71.7 46.7412C71.7324 46.9029 71.8618 47 72.0235 47H75.4526C75.5497 47 75.6467 46.9676 75.6791 46.8706C75.7438 46.8059 75.7761 46.7088 75.7438 46.6118L71.1177 24.6783C71.0854 24.5166 70.956 24.4195 70.8266 24.4195H65.6505ZM68.2385 30.2426L69.7266 37.3596H66.7504L68.2385 30.2426ZM79.6385 24.4195C79.4444 24.4195 79.315 24.5813 79.315 24.743V46.6765C79.315 46.8706 79.4444 47 79.6385 47H83.0676C83.2293 47 83.3587 46.8706 83.3587 46.6765V37.9743H85.6232L88.4054 46.7735C88.4377 46.9029 88.5671 47 88.6965 47H92.1256C92.2227 47 92.3197 46.9676 92.3844 46.8706C92.4491 46.7735 92.4491 46.6765 92.4168 46.5794L89.4406 37.0685L92.3521 34.157C92.4168 34.0923 92.4491 34.0276 92.4491 33.9305V28.4633C92.4491 28.3663 92.3844 28.3016 92.3197 28.2369L88.6318 24.5166C88.5671 24.4842 88.5348 24.4519 88.4701 24.4519C88.4701 24.4195 88.4377 24.4195 88.4054 24.4195H79.6385ZM86.8526 33.9305H83.3587V28.4957H86.8526L88.373 30.0161V32.3777L86.8526 33.9305ZM96.3254 24.4195C96.1636 24.4195 96.0019 24.5813 96.0019 24.743V28.1722C96.0019 28.3339 96.1636 28.4957 96.3254 28.4957H100.046V46.6765C100.046 46.8706 100.175 47 100.337 47H103.766C103.96 47 104.089 46.8706 104.089 46.6765V28.4957H107.777C107.971 28.4957 108.101 28.3339 108.101 28.1722V24.743C108.101 24.5813 107.971 24.4195 107.777 24.4195H96.3254ZM125.731 24.4519C125.667 24.4519 125.569 24.4842 125.505 24.5489L122.302 27.784C122.205 27.8163 122.173 27.9134 122.173 28.0104V43.4415C122.173 43.5709 122.237 43.6679 122.334 43.7003L125.505 46.9029C125.569 46.9353 125.602 46.9676 125.667 47H125.731H131.942C132.007 47 132.104 46.9676 132.169 46.9029L135.145 43.9267C135.242 43.862 135.307 43.765 135.307 43.6356V40.9505C135.307 40.7564 135.177 40.627 134.983 40.627H131.587C131.393 40.627 131.263 40.7564 131.263 40.9505V42.0828L130.39 42.9562H127.284L126.249 41.8887V29.5632L127.284 28.4957H130.39L131.263 29.4015V30.5337C131.263 30.7278 131.425 30.8572 131.587 30.8572H135.016C135.21 30.8572 135.339 30.7278 135.339 30.5337V27.8487C135.339 27.7516 135.307 27.6546 135.242 27.5899L132.169 24.5489C132.137 24.5166 132.104 24.4842 132.072 24.4842C132.007 24.4519 131.975 24.4519 131.942 24.4519H125.731ZM142.935 24.4195C142.838 24.4195 142.773 24.4519 142.709 24.5166L138.988 28.2369C138.924 28.3016 138.891 28.3986 138.891 28.4633V42.9562C138.891 43.0533 138.924 43.1503 138.988 43.1827L142.709 46.9029C142.741 46.9353 142.806 46.9676 142.838 47H142.935H148.564C148.661 47 148.726 46.9676 148.79 46.9029L152.511 43.1827C152.575 43.118 152.608 43.0533 152.608 42.9562V28.4633C152.608 28.3663 152.575 28.3016 152.511 28.2369L148.79 24.5166C148.758 24.4842 148.726 24.4519 148.693 24.4519L148.564 24.4195H142.935ZM147.011 42.9562H144.488L142.935 41.4034V30.0161L144.488 28.4957H147.011L148.564 30.0161V41.4034L147.011 42.9562ZM160.222 42.9239V24.743C160.222 24.5813 160.093 24.4195 159.931 24.4195H156.502C156.308 24.4195 156.178 24.5813 156.178 24.743V46.6765C156.178 46.8706 156.308 47 156.502 47H159.931H159.996H165.851C166.045 47 166.175 46.8382 166.175 46.6765V43.2474C166.175 43.0856 166.045 42.9239 165.851 42.9239H160.222ZM173.781 42.9239V24.743C173.781 24.5813 173.652 24.4195 173.49 24.4195H170.061C169.867 24.4195 169.738 24.5813 169.738 24.743V46.6765C169.738 46.8706 169.867 47 170.061 47H173.49H173.555H179.41C179.604 47 179.734 46.8382 179.734 46.6765V43.2474C179.734 43.0856 179.604 42.9239 179.41 42.9239H173.781ZM183.62 24.4195C183.426 24.4195 183.297 24.5813 183.297 24.743V46.6765C183.297 46.8706 183.426 47 183.62 47H187.05C187.082 47 187.114 47 187.147 46.9676H193.972C194.167 46.9676 194.296 46.8382 194.296 46.6765V43.2474C194.296 43.0533 194.167 42.9239 193.972 42.9239H187.341V37.9743H193.293C193.455 37.9743 193.584 37.8449 193.584 37.6508V34.254C193.584 34.0599 193.455 33.9305 193.293 33.9305H187.341V28.4957H193.972C194.167 28.4957 194.296 28.3339 194.296 28.1722V24.743C194.296 24.5813 194.167 24.4195 193.972 24.4195H183.62ZM201.426 24.4519C201.361 24.4519 201.264 24.4842 201.199 24.5489L197.997 27.784C197.9 27.8163 197.867 27.9134 197.867 28.0104V43.4415C197.867 43.5709 197.932 43.6679 198.029 43.7003L201.199 46.9029C201.264 46.9353 201.296 46.9676 201.361 47H201.426H207.637C207.702 47 207.799 46.9676 207.863 46.9029L210.84 43.9267C210.937 43.862 211.001 43.765 211.001 43.6356V40.9505C211.001 40.7564 210.872 40.627 210.678 40.627H207.281C207.087 40.627 206.958 40.7564 206.958 40.9505V42.0828L206.084 42.9562H202.979L201.943 41.8887V29.5632L202.979 28.4957H206.084L206.958 29.4015V30.5337C206.958 30.7278 207.119 30.8572 207.281 30.8572H210.71C210.904 30.8572 211.034 30.7278 211.034 30.5337V27.8487C211.034 27.7516 211.001 27.6546 210.937 27.5899L207.863 24.5489C207.831 24.5166 207.799 24.4842 207.766 24.4842C207.702 24.4519 207.669 24.4519 207.637 24.4519H201.426ZM214.909 24.4195C214.747 24.4195 214.586 24.5813 214.586 24.743V28.1722C214.586 28.3339 214.747 28.4957 214.909 28.4957H218.629V46.6765C218.629 46.8706 218.759 47 218.921 47H222.35C222.544 47 222.673 46.8706 222.673 46.6765V28.4957H226.361C226.555 28.4957 226.685 28.3339 226.685 28.1722V24.743C226.685 24.5813 226.555 24.4195 226.361 24.4195H214.909ZM230.554 24.4195C230.359 24.4195 230.23 24.5813 230.23 24.743V46.6765C230.23 46.8706 230.359 47 230.554 47H233.983C234.144 47 234.274 46.8706 234.274 46.6765V24.743C234.274 24.5813 234.144 24.4195 233.983 24.4195H230.554ZM247.588 24.1931C247.426 24.1931 247.265 24.3225 247.265 24.5166V37.0361L241.862 24.3872C241.798 24.2578 241.7 24.1931 241.571 24.1931H238.142C237.948 24.1931 237.818 24.3225 237.818 24.5166V46.6765C237.818 46.8706 237.948 47 238.142 47H241.571C241.733 47 241.862 46.8706 241.862 46.6765V34.5452L247.297 46.7735C247.329 46.9029 247.459 47 247.588 47H251.017C251.179 47 251.341 46.8706 251.341 46.6765V24.5166C251.341 24.3225 251.179 24.1931 251.017 24.1931H247.588ZM268.213 32.1512C268.31 32.1512 268.374 32.1189 268.439 32.0542C268.504 31.9895 268.536 31.8924 268.536 31.8277V28.4957C268.536 28.3986 268.504 28.3339 268.439 28.2692L264.719 24.5489C264.687 24.4842 264.59 24.4519 264.492 24.4519H258.928C258.831 24.4519 258.734 24.4842 258.702 24.5489L254.981 28.2692C254.917 28.3339 254.884 28.3986 254.884 28.4957V42.9886L254.981 43.215L258.702 46.9029C258.766 46.9676 258.864 47 258.961 47H264.492C264.557 47 264.654 46.9676 264.719 46.9029L268.439 43.215C268.504 43.1503 268.536 43.0533 268.536 42.9886V34.254C268.536 34.0923 268.374 33.9305 268.213 33.9305H261.71C261.516 33.9305 261.387 34.0923 261.387 34.254V37.6831C261.387 37.8449 261.516 38.0066 261.71 38.0066H264.46V41.4034L262.94 42.9562H260.481L258.928 41.4034V30.0485L260.481 28.4957H262.94L264.46 30.0485V31.8277C264.46 31.9895 264.622 32.1512 264.784 32.1512H268.213Z" fill="white"/>
</svg>

