<svg viewBox="0 0 458 114" fill="none" xmlns="http://www.w3.org/2000/svg">
    <rect width="458" height="114" rx="57" fill="#DFDFDF"/>
    <path d="M139.656 35.18C139.476 35.18 139.236 35.36 139.116 35.54L133.296 49.82L127.416 35.54C127.356 35.36 127.116 35.18 126.876 35.18H120.156C119.976 35.18 119.736 35.3 119.676 35.48C119.556 35.6 119.556 35.84 119.616 36.02L129.516 59.48V76.46C129.516 76.82 129.816 77.06 130.116 77.06H136.476C136.776 77.06 137.076 76.82 137.076 76.46V59.42L146.976 36.02C147.036 35.84 147.036 35.6 146.916 35.48C146.796 35.3 146.616 35.18 146.436 35.18H139.656ZM161.111 35.12C160.931 35.12 160.811 35.18 160.691 35.3L153.791 42.2C153.671 42.32 153.611 42.5 153.611 42.62V69.5C153.611 69.68 153.671 69.86 153.791 69.92L160.691 76.82C160.751 76.88 160.871 76.94 160.931 77H161.111H171.551C171.731 77 171.851 76.94 171.971 76.82L178.871 69.92C178.991 69.8 179.051 69.68 179.051 69.5V42.62C179.051 42.44 178.991 42.32 178.871 42.2L171.971 35.3C171.911 35.24 171.851 35.18 171.791 35.18L171.551 35.12H161.111ZM168.671 69.5H163.991L161.111 66.62V45.5L163.991 42.68H168.671L171.551 45.5V66.62L168.671 69.5ZM204.033 35.18C203.733 35.18 203.433 35.42 203.433 35.78V66.62L200.613 69.5H196.053L193.173 66.62V35.78C193.173 35.42 192.933 35.18 192.633 35.18H186.273C185.913 35.18 185.673 35.42 185.673 35.78V69.56C185.673 69.74 185.793 69.92 185.973 70.04L192.753 76.82C192.813 76.88 192.873 76.94 192.933 76.94C192.993 77 193.113 77 193.173 77H203.493C203.613 77 203.793 76.94 203.913 76.82L210.693 70.04C210.873 69.92 210.993 69.74 210.993 69.56V35.78C210.993 35.42 210.753 35.18 210.393 35.18H204.033ZM218.218 35.12C217.858 35.12 217.618 35.42 217.618 35.72V76.4C217.618 76.76 217.858 77 218.218 77H224.578C224.878 77 225.118 76.76 225.118 76.4V60.26H229.318L234.478 76.58C234.538 76.82 234.778 77 235.018 77H241.378C241.558 77 241.738 76.94 241.858 76.76C241.978 76.58 241.978 76.4 241.918 76.22L236.398 58.58L241.798 53.18C241.918 53.06 241.978 52.94 241.978 52.76V42.62C241.978 42.44 241.858 42.32 241.738 42.2L234.898 35.3C234.778 35.24 234.718 35.18 234.598 35.18C234.598 35.12 234.538 35.12 234.478 35.12H218.218ZM231.598 52.76H225.118V42.68H231.598L234.418 45.5V49.88L231.598 52.76ZM274.691 35.18C274.571 35.18 274.391 35.24 274.271 35.36L268.331 41.36C268.151 41.42 268.091 41.6 268.091 41.78V70.4C268.091 70.64 268.211 70.82 268.391 70.88L274.271 76.82C274.391 76.88 274.451 76.94 274.571 77H274.691H286.211C286.331 77 286.511 76.94 286.631 76.82L292.151 71.3C292.331 71.18 292.451 71 292.451 70.76V65.78C292.451 65.42 292.211 65.18 291.851 65.18H285.551C285.191 65.18 284.951 65.42 284.951 65.78V67.88L283.331 69.5H277.571L275.651 67.52V44.66L277.571 42.68H283.331L284.951 44.36V46.46C284.951 46.82 285.251 47.06 285.551 47.06H291.911C292.271 47.06 292.511 46.82 292.511 46.46V41.48C292.511 41.3 292.451 41.12 292.331 41L286.631 35.36C286.571 35.3 286.511 35.24 286.451 35.24C286.331 35.18 286.271 35.18 286.211 35.18H274.691ZM308.279 35.12C307.979 35.12 307.739 35.3 307.679 35.6L299.099 76.28C299.099 76.46 299.099 76.64 299.219 76.76C299.339 76.94 299.519 77 299.699 77H306.059C306.299 77 306.539 76.82 306.599 76.52L308.699 66.62H317.459L319.499 76.52C319.559 76.82 319.799 77 320.099 77H326.459C326.639 77 326.819 76.94 326.879 76.76C326.999 76.64 327.059 76.46 326.999 76.28L318.419 35.6C318.359 35.3 318.119 35.12 317.879 35.12H308.279ZM313.079 45.92L315.839 59.12H310.319L313.079 45.92ZM334.222 35.12C333.862 35.12 333.622 35.42 333.622 35.72V76.4C333.622 76.76 333.862 77 334.222 77H340.582C340.882 77 341.122 76.76 341.122 76.4V60.26H345.322L350.482 76.58C350.542 76.82 350.782 77 351.022 77H357.382C357.562 77 357.742 76.94 357.862 76.76C357.982 76.58 357.982 76.4 357.922 76.22L352.402 58.58L357.802 53.18C357.922 53.06 357.982 52.94 357.982 52.76V42.62C357.982 42.44 357.862 42.32 357.742 42.2L350.902 35.3C350.782 35.24 350.722 35.18 350.602 35.18C350.602 35.12 350.542 35.12 350.482 35.12H334.222ZM347.602 52.76H341.122V42.68H347.602L350.422 45.5V49.88L347.602 52.76ZM365.171 35.12C364.811 35.12 364.571 35.42 364.571 35.72V76.4C364.571 76.76 364.811 77 365.171 77H382.931C383.051 77 383.231 76.94 383.351 76.82L390.251 69.92C390.371 69.8 390.431 69.68 390.431 69.5V42.62C390.431 42.44 390.311 42.32 390.191 42.2L383.351 35.3C383.291 35.24 383.171 35.18 383.111 35.18C383.051 35.12 382.991 35.12 382.931 35.12H365.171ZM380.051 69.5H372.071V42.68H380.051L382.871 45.5V66.62L380.051 69.5Z" fill="#454545"/>
    <circle cx="60.5" cy="57.5" r="29.5" fill="#88D840"/>
    <circle cx="60.5" cy="57.5" r="31.5" stroke="black" stroke-width="4"/>
    <mask id="mask0" mask-type="alpha" maskUnits="userSpaceOnUse" x="31" y="28" width="59" height="59">
        <circle cx="60.5" cy="57.5" r="27.5" fill="#88D840" stroke="black" stroke-width="4"/>
    </mask>
    <g mask="url(#mask0)">
        <path d="M77.249 43.2201C77.714 42.6163 77.7953 41.8007 77.4588 41.1169C77.1223 40.4331 76.4264 40 75.6643 40H58.4615C57.8477 40 57.2678 40.2819 56.8886 40.7647L38.4271 64.2714C37.9542 64.8735 37.8666 65.6927 38.2013 66.3812C38.536 67.0697 39.2344 67.5067 40 67.5067H53.3435L38.2968 91.9516C37.7763 92.7973 37.955 93.8968 38.7167 94.534C39.4783 95.1712 40.5921 95.153 41.3326 94.4914L81.3326 58.7501C81.9511 58.1975 82.1643 57.3205 81.8685 56.5456C81.5728 55.7707 80.8294 55.2588 80 55.2588H67.9801L77.249 43.2201Z" fill="white" stroke="black" stroke-width="4" stroke-linejoin="round"/>
    </g>
</svg>
